eulertext-bold.ufo
<glyph name="exclam" format="2">
  <advance width="349"/>
  <unicode hex="0021"/>
  <outline>
    <contour>
      <point x="112.0" y="46.0" type="curve" smooth="yes"/>
      <point x="112.0" y="80.0"/>
      <point x="140.0" y="108.0"/>
      <point x="174.0" y="108.0" type="curve" smooth="yes"/>
      <point x="208.0" y="108.0"/>
      <point x="236.0" y="80.0"/>
      <point x="236.0" y="46.0" type="curve" smooth="yes"/>
      <point x="236.0" y="12.0"/>
      <point x="208.0" y="-16.0"/>
      <point x="174.0" y="-16.0" type="curve" smooth="yes"/>
      <point x="140.0" y="-16.0"/>
      <point x="112.0" y="12.0"/>
    </contour>
    <contour>
      <point x="217.0" y="557.0" type="curve" smooth="yes"/>
      <point x="175.0" y="186.0" type="line"/>
      <point x="156.0" y="184.0" type="line"/>
      <point x="124.0" y="567.0" type="line" smooth="yes"/>
      <point x="122.0" y="586.0"/>
      <point x="120.0" y="608.0"/>
      <point x="120.0" y="625.0" type="curve" smooth="yes"/>
      <point x="120.0" y="680.0"/>
      <point x="146.0" y="690.0"/>
      <point x="180.0" y="690.0" type="curve" smooth="yes"/>
      <point x="212.0" y="690.0"/>
      <point x="224.0" y="666.0"/>
      <point x="224.0" y="644.0" type="curve" smooth="yes"/>
      <point x="224.0" y="615.0"/>
      <point x="220.0" y="586.0"/>
    </contour>
  </outline>
</glyph>
<glyph name="quotedbl" format="1">
  <advance width="368"/>
  <unicode hex="0022"/>
  <outline>
    <contour>
      <point x="102" y="432" type="line"/>
      <point x="79" y="584" type="line" smooth="yes"/>
      <point x="75" y="608"/>
      <point x="72" y="633"/>
      <point x="72" y="657" type="curve" smooth="yes"/>
      <point x="72" y="679"/>
      <point x="85" y="695"/>
      <point x="113" y="695" type="curve" smooth="yes"/>
      <point x="128" y="695"/>
      <point x="152" y="689"/>
      <point x="152" y="675" type="curve" smooth="yes"/>
      <point x="152" y="623" type="line"/>
      <point x="127" y="432" type="line"/>
    </contour>
    <contour>
      <point x="245" y="432" type="line"/>
      <point x="219" y="625" type="line" smooth="yes"/>
      <point x="217" y="639"/>
      <point x="213" y="663"/>
      <point x="213" y="668" type="curve" smooth="yes"/>
      <point x="213" y="687"/>
      <point x="239" y="692"/>
      <point x="259" y="692" type="curve" smooth="yes"/>
      <point x="273" y="692"/>
      <point x="293" y="686"/>
      <point x="293" y="673" type="curve" smooth="yes"/>
      <point x="293" y="657"/>
      <point x="294" y="641"/>
      <point x="292" y="626" type="curve" smooth="yes"/>
      <point x="270" y="432" type="line"/>
    </contour>
  </outline>
</glyph>
<glyph name="numbersign" format="2">
  <advance width="799"/>
  <unicode hex="0023"/>
  <outline>
    <contour>
      <point x="107.0" y="508.0" type="line"/>
      <point x="115.0" y="517.0" type="line"/>
      <point x="768.0" y="517.0" type="line"/>
      <point x="775.0" y="470.0" type="line"/>
      <point x="764.0" y="461.0" type="line"/>
      <point x="120.0" y="461.0" type="line"/>
      <point x="113.0" y="472.0" type="line"/>
    </contour>
    <contour>
      <point x="24.0" y="258.0" type="line"/>
      <point x="32.0" y="267.0" type="line"/>
      <point x="706.0" y="267.0" type="line"/>
      <point x="713.0" y="220.0" type="line"/>
      <point x="702.0" y="211.0" type="line"/>
      <point x="37.0" y="211.0" type="line"/>
      <point x="30.0" y="222.0" type="line"/>
    </contour>
    <contour>
      <point x="653.0" y="714.0" type="line"/>
      <point x="660.0" y="704.0" type="line"/>
      <point x="462.0" y="-3.0" type="line"/>
      <point x="415.0" y="2.0" type="line"/>
      <point x="410.0" y="16.0" type="line"/>
      <point x="606.0" y="715.0" type="line"/>
      <point x="617.0" y="718.0" type="line"/>
    </contour>
    <contour>
      <point x="403.0" y="714.0" type="line"/>
      <point x="410.0" y="704.0" type="line"/>
      <point x="212.0" y="-3.0" type="line"/>
      <point x="165.0" y="2.0" type="line"/>
      <point x="160.0" y="16.0" type="line"/>
      <point x="356.0" y="715.0" type="line"/>
      <point x="367.0" y="718.0" type="line"/>
    </contour>
  </outline>
</glyph>
<glyph name="dollar" format="2">
  <advance width="575"/>
  <unicode hex="0024"/>
  <outline>
    <contour>
      <point x="328.5" y="-89.0" type="line"/>
      <point x="278.5" y="-102.0" type="line"/>
      <point x="278.5" y="789.0" type="line"/>
      <point x="328.5" y="808.0" type="line"/>
    </contour>
    <contour>
      <point x="439.5" y="538.3251953125" type="line"/>
      <point x="423.349609375" y="543.0751953125" type="line"/>
      <point x="414.7998046875" y="605.775390625"/>
      <point x="373.9501953125" y="668.474609375"/>
      <point x="296.0498046875" y="668.474609375" type="curve" smooth="yes"/>
      <point x="235.25" y="668.474609375"/>
      <point x="197.25" y="624.775390625"/>
      <point x="197.25" y="572.525390625" type="curve" smooth="yes"/>
      <point x="197.25" y="490.8251953125"/>
      <point x="276.099609375" y="448.0751953125"/>
      <point x="346.400390625" y="412.9248046875" type="curve" smooth="yes"/>
      <point x="457.5498046875" y="355.9248046875"/>
      <point x="527.849609375" y="310.3251953125"/>
      <point x="527.849609375" y="220.0751953125" type="curve" smooth="yes"/>
      <point x="527.849609375" y="89.9248046875"/>
      <point x="370.150390625" y="4.4248046875"/>
      <point x="237.150390625" y="4.4248046875" type="curve" smooth="yes"/>
      <point x="160.2001953125" y="4.4248046875"/>
      <point x="88.9501953125" y="37.6748046875"/>
      <point x="45.25" y="100.375" type="curve"/>
      <point x="137.400390625" y="203.9248046875" type="line"/>
      <point x="155.4501953125" y="197.275390625" type="line"/>
      <point x="155.4501953125" y="126.025390625"/>
      <point x="206.75" y="50.974609375"/>
      <point x="291.2998046875" y="50.974609375" type="curve" smooth="yes"/>
      <point x="359.7001953125" y="50.974609375"/>
      <point x="412.900390625" y="107.974609375"/>
      <point x="412.900390625" y="167.8251953125" type="curve" smooth="yes"/>
      <point x="412.900390625" y="203.9248046875"/>
      <point x="389.150390625" y="233.375"/>
      <point x="361.599609375" y="259.025390625" type="curve" smooth="yes"/>
      <point x="293.2001953125" y="321.724609375"/>
      <point x="91.7998046875" y="372.0751953125"/>
      <point x="91.7998046875" y="511.724609375" type="curve" smooth="yes"/>
      <point x="91.7998046875" y="649.474609375"/>
      <point x="214.349609375" y="704.5751953125"/>
      <point x="338.7998046875" y="704.5751953125" type="curve" smooth="yes"/>
      <point x="435.7001953125" y="704.5751953125"/>
      <point x="500.2998046875" y="679.875"/>
      <point x="529.75" y="608.625" type="curve"/>
    </contour>
  </outline>
</glyph>
<glyph name="percent" format="2">
  <advance width="771"/>
  <unicode hex="0025"/>
  <outline>
    <contour>
      <point x="589.0" y="347.0" type="curve"/>
      <point x="681.0" y="324.0"/>
      <point x="747.0" y="264.0"/>
      <point x="747.0" y="187.0" type="curve" smooth="yes"/>
      <point x="747.0" y="95.0"/>
      <point x="638.0" y="-12.0"/>
      <point x="535.0" y="-12.0" type="curve" smooth="yes"/>
      <point x="447.0" y="-12.0"/>
      <point x="395.0" y="60.0"/>
      <point x="395.0" y="127.0" type="curve" smooth="yes"/>
      <point x="395.0" y="229.0"/>
      <point x="474.0" y="305.0"/>
    </contour>
    <contour>
      <point x="532.0" y="292.0" type="curve"/>
      <point x="486.0" y="270.0"/>
      <point x="467.0" y="221.0"/>
      <point x="467.0" y="178.0" type="curve" smooth="yes"/>
      <point x="467.0" y="121.0"/>
      <point x="514.0" y="45.0"/>
      <point x="586.0" y="45.0" type="curve" smooth="yes"/>
      <point x="666.0" y="45.0"/>
      <point x="672.0" y="96.0"/>
      <point x="672.0" y="143.0" type="curve" smooth="yes"/>
      <point x="672.0" y="208.0"/>
      <point x="603.0" y="274.0"/>
    </contour>
    <contour>
      <point x="218.0" y="801.0" type="curve"/>
      <point x="310.0" y="778.0"/>
      <point x="376.0" y="718.0"/>
      <point x="376.0" y="641.0" type="curve" smooth="yes"/>
      <point x="376.0" y="549.0"/>
      <point x="267.0" y="442.0"/>
      <point x="164.0" y="442.0" type="curve" smooth="yes"/>
      <point x="76.0" y="442.0"/>
      <point x="24.0" y="514.0"/>
      <point x="24.0" y="581.0" type="curve" smooth="yes"/>
      <point x="24.0" y="683.0"/>
      <point x="103.0" y="759.0"/>
    </contour>
    <contour>
      <point x="161.0" y="746.0" type="curve"/>
      <point x="115.0" y="724.0"/>
      <point x="96.0" y="675.0"/>
      <point x="96.0" y="632.0" type="curve" smooth="yes"/>
      <point x="96.0" y="575.0"/>
      <point x="143.0" y="499.0"/>
      <point x="215.0" y="499.0" type="curve" smooth="yes"/>
      <point x="295.0" y="499.0"/>
      <point x="301.0" y="550.0"/>
      <point x="301.0" y="597.0" type="curve" smooth="yes"/>
      <point x="301.0" y="662.0"/>
      <point x="232.0" y="728.0"/>
    </contour>
    <contour>
      <point x="730.0" y="770.0" type="line"/>
      <point x="732.0" y="757.0" type="line"/>
      <point x="111.0" y="3.0" type="line"/>
      <point x="70.0" y="27.0" type="line"/>
      <point x="72.0" y="42.0" type="line"/>
      <point x="687.0" y="789.0" type="line"/>
      <point x="698.0" y="788.0" type="line"/>
    </contour>
  </outline>
</glyph>
<glyph name="ampersand" format="2">
  <advance width="871"/>
  <unicode hex="0026"/>
  <outline>
    <contour>
      <point x="431.0" y="355.0" type="curve"/>
      <point x="432.0" y="404.0" type="line"/>
      <point x="470.0" y="402.0"/>
      <point x="508.0" y="401.0"/>
      <point x="546.0" y="401.0" type="curve" smooth="yes"/>
      <point x="643.0" y="401.0"/>
      <point x="739.0" y="404.0"/>
      <point x="836.0" y="408.0" type="curve"/>
      <point x="833.0" y="351.0" type="line"/>
      <point x="799.0" y="353.0"/>
      <point x="713.0" y="355.0"/>
      <point x="679.0" y="355.0" type="curve"/>
      <point x="682.0" y="341.0"/>
      <point x="685.0" y="324.0"/>
      <point x="685.0" y="309.0" type="curve" smooth="yes"/>
      <point x="685.0" y="236.0"/>
      <point x="652.0" y="163.0"/>
      <point x="594.0" y="112.0" type="curve"/>
      <point x="626.0" y="92.0"/>
      <point x="668.0" y="71.0"/>
      <point x="708.0" y="71.0" type="curve" smooth="yes"/>
      <point x="769.0" y="71.0"/>
      <point x="796.0" y="138.0"/>
      <point x="815.0" y="184.0" type="curve"/>
      <point x="840.0" y="178.0" type="line"/>
      <point x="817.0" y="94.0"/>
      <point x="766.0" y="-16.0"/>
      <point x="649.0" y="-16.0" type="curve" smooth="yes"/>
      <point x="592.0" y="-16.0"/>
      <point x="538.0" y="5.0"/>
      <point x="496.0" y="37.0" type="curve"/>
      <point x="431.0" y="8.0"/>
      <point x="361.0" y="-14.0"/>
      <point x="287.0" y="-14.0" type="curve" smooth="yes"/>
      <point x="159.0" y="-14.0"/>
      <point x="42.0" y="68.0"/>
      <point x="42.0" y="184.0" type="curve" smooth="yes"/>
      <point x="42.0" y="272.0"/>
      <point x="99.0" y="330.0"/>
      <point x="213.0" y="394.0" type="curve"/>
      <point x="196.0" y="433.0"/>
      <point x="185.0" y="467.0"/>
      <point x="185.0" y="508.0" type="curve" smooth="yes"/>
      <point x="185.0" y="556.0"/>
      <point x="196.0" y="606.0"/>
      <point x="237.0" y="641.0" type="curve" smooth="yes"/>
      <point x="282.0" y="679.0"/>
      <point x="346.0" y="697.0"/>
      <point x="410.0" y="697.0" type="curve" smooth="yes"/>
      <point x="472.0" y="697.0"/>
      <point x="532.0" y="667.0"/>
      <point x="532.0" y="603.0" type="curve" smooth="yes"/>
      <point x="532.0" y="509.0"/>
      <point x="430.0" y="460.0"/>
      <point x="334.0" y="414.0" type="curve"/>
      <point x="432.0" y="273.0"/>
      <point x="475.0" y="212.0"/>
      <point x="567.0" y="133.0" type="curve"/>
      <point x="600.0" y="165.0"/>
      <point x="611.0" y="210.0"/>
      <point x="611.0" y="252.0" type="curve" smooth="yes"/>
      <point x="611.0" y="310.0"/>
      <point x="568.0" y="357.0"/>
      <point x="491.0" y="357.0" type="curve" smooth="yes"/>
      <point x="471.0" y="357.0"/>
      <point x="451.0" y="357.0"/>
    </contour>
    <contour>
      <point x="468.0" y="64.0" type="curve"/>
      <point x="373.0" y="155.0"/>
      <point x="299.0" y="251.0"/>
      <point x="229.0" y="363.0" type="curve"/>
      <point x="170.0" y="333.0"/>
      <point x="159.0" y="288.0"/>
      <point x="159.0" y="237.0" type="curve" smooth="yes"/>
      <point x="159.0" y="139.0"/>
      <point x="249.0" y="38.0"/>
      <point x="367.0" y="38.0" type="curve" smooth="yes"/>
      <point x="396.0" y="38.0"/>
      <point x="438.0" y="50.0"/>
    </contour>
    <contour>
      <point x="319.0" y="445.0" type="curve"/>
      <point x="391.0" y="481.0"/>
      <point x="419.0" y="526.0"/>
      <point x="419.0" y="588.0" type="curve" smooth="yes"/>
      <point x="419.0" y="620.0"/>
      <point x="392.0" y="662.0"/>
      <point x="355.0" y="662.0" type="curve" smooth="yes"/>
      <point x="299.0" y="662.0"/>
      <point x="278.0" y="616.0"/>
      <point x="278.0" y="576.0" type="curve" smooth="yes"/>
      <point x="278.0" y="530.0"/>
      <point x="293.0" y="485.0"/>
    </contour>
  </outline>
</glyph>
<glyph name="quotesingle" format="2">
  <advance width="250"/>
  <unicode hex="0027"/>
  <outline>
    <contour>
      <point x="104.0" y="436.0" type="line"/>
      <point x="82.0" y="629.0" type="line" smooth="yes"/>
      <point x="81.0" y="641.0"/>
      <point x="80.0" y="653.0"/>
      <point x="80.0" y="666.0" type="curve" smooth="yes"/>
      <point x="80.0" y="685.0"/>
      <point x="102.0" y="695.0"/>
      <point x="123.0" y="695.0" type="curve" smooth="yes"/>
      <point x="146.0" y="695.0"/>
      <point x="159.0" y="682.0"/>
      <point x="159.0" y="662.0" type="curve" smooth="yes"/>
      <point x="159.0" y="651.0"/>
      <point x="156.0" y="635.0"/>
      <point x="154.0" y="622.0" type="curve" smooth="yes"/>
      <point x="123.0" y="436.0" type="line"/>
    </contour>
  </outline>
</glyph>
<glyph name="parenleft" format="2">
  <advance width="459"/>
  <unicode hex="0028"/>
  <outline>
    <contour>
      <point x="347.0" y="-172.0" type="curve"/>
      <point x="347.0" y="-186.0" type="line"/>
      <point x="227.0" y="-169.0"/>
      <point x="176.0" y="-58.0"/>
      <point x="155.0" y="38.0" type="curve" smooth="yes"/>
      <point x="138.0" y="118.0"/>
      <point x="134.0" y="199.0"/>
      <point x="134.0" y="280.0" type="curve" smooth="yes"/>
      <point x="134.0" y="357.0"/>
      <point x="139.0" y="435.0"/>
      <point x="157.0" y="510.0" type="curve" smooth="yes"/>
      <point x="180.0" y="606.0"/>
      <point x="225.0" y="706.0"/>
      <point x="347.0" y="738.0" type="curve"/>
      <point x="347.0" y="719.0" type="line"/>
      <point x="205.0" y="657.0"/>
      <point x="194.0" y="430.0"/>
      <point x="194.0" y="274.0" type="curve" smooth="yes"/>
      <point x="194.0" y="188.0"/>
      <point x="198.0" y="102.0"/>
      <point x="215.0" y="18.0" type="curve" smooth="yes"/>
      <point x="228.0" y="-45.0"/>
      <point x="261.0" y="-151.0"/>
    </contour>
  </outline>
</glyph>
<glyph name="parenright" format="2">
  <advance width="459"/>
  <unicode hex="0029"/>
  <outline>
    <contour>
      <point x="105.0" y="715.0" type="curve"/>
      <point x="105.0" y="735.0" type="line"/>
      <point x="300.0" y="701.0"/>
      <point x="326.0" y="438.0"/>
      <point x="326.0" y="272.0" type="curve" smooth="yes"/>
      <point x="326.0" y="188.0"/>
      <point x="321.0" y="103.0"/>
      <point x="302.0" y="20.0" type="curve" smooth="yes"/>
      <point x="280.0" y="-75.0"/>
      <point x="241.0" y="-164.0"/>
      <point x="105.0" y="-187.0" type="curve"/>
      <point x="105.0" y="-171.0" type="line"/>
      <point x="159.0" y="-152.0"/>
      <point x="204.0" y="-130.0"/>
      <point x="227.0" y="-69.0" type="curve" smooth="yes"/>
      <point x="266.0" y="34.0"/>
      <point x="264.0" y="162.0"/>
      <point x="264.0" y="276.0" type="curve" smooth="yes"/>
      <point x="264.0" y="355.0"/>
      <point x="259.0" y="434.0"/>
      <point x="241.0" y="511.0" type="curve" smooth="yes"/>
      <point x="223.0" y="588.0"/>
      <point x="194.0" y="678.0"/>
    </contour>
  </outline>
</glyph>
<glyph name="asterisk" format="2">
  <advance width="328"/>
  <unicode hex="002A"/>
  <outline>
    <contour>
      <point x="188.0" y="449.0" type="curve"/>
      <point x="140.0" y="449.0" type="line"/>
      <point x="147.0" y="494.0"/>
      <point x="149.0" y="506.0"/>
      <point x="150.0" y="557.0" type="curve"/>
      <point x="118.0" y="534.0"/>
      <point x="90.0" y="514.0"/>
      <point x="60.0" y="481.0" type="curve"/>
      <point x="36.0" y="521.0" type="line"/>
      <point x="71.0" y="536.0"/>
      <point x="104.0" y="553.0"/>
      <point x="135.0" y="574.0" type="curve"/>
      <point x="97.0" y="601.0"/>
      <point x="63.0" y="618.0"/>
      <point x="40.0" y="629.0" type="curve"/>
      <point x="68.0" y="662.0" type="line"/>
      <point x="94.0" y="638.0"/>
      <point x="126.0" y="614.0"/>
      <point x="149.0" y="598.0" type="curve"/>
      <point x="149.0" y="637.0"/>
      <point x="149.0" y="662.0"/>
      <point x="140.0" y="702.0" type="curve"/>
      <point x="188.0" y="702.0" type="line"/>
      <point x="179.0" y="663.0"/>
      <point x="177.0" y="642.0"/>
      <point x="174.0" y="602.0" type="curve"/>
      <point x="205.0" y="624.0"/>
      <point x="227.0" y="640.0"/>
      <point x="250.0" y="665.0" type="curve"/>
      <point x="280.0" y="628.0" type="line"/>
      <point x="252.0" y="616.0"/>
      <point x="215.0" y="601.0"/>
      <point x="180.0" y="578.0" type="curve"/>
      <point x="217.0" y="549.0"/>
      <point x="250.0" y="536.0"/>
      <point x="282.0" y="524.0" type="curve"/>
      <point x="250.0" y="488.0" type="line"/>
      <point x="231.0" y="508.0"/>
      <point x="206.0" y="526.0"/>
      <point x="174.0" y="548.0" type="curve"/>
      <point x="176.0" y="506.0"/>
      <point x="178.0" y="492.0"/>
    </contour>
  </outline>
</glyph>
<glyph name="plus" format="2">
  <advance width="893"/>
  <unicode hex="002B"/>
  <outline>
    <contour>
      <point x="472.0" y="288.0" type="line"/>
      <point x="837.0" y="288.0" type="line"/>
      <point x="821.0" y="238.0" type="line"/>
      <point x="472.0" y="238.0" type="line"/>
      <point x="472.0" y="-64.0" type="line"/>
      <point x="422.0" y="-83.0" type="line"/>
      <point x="422.0" y="238.0" type="line"/>
      <point x="56.0" y="238.0" type="line"/>
      <point x="73.0" y="288.0" type="line"/>
      <point x="422.0" y="288.0" type="line"/>
      <point x="422.0" y="584.0" type="line"/>
      <point x="472.0" y="598.0" type="line"/>
    </contour>
  </outline>
</glyph>
<glyph name="comma" format="2">
  <advance width="306"/>
  <unicode hex="002C"/>
  <outline>
    <contour>
      <point x="133.0" y="-192.0" type="curve"/>
      <point x="113.0" y="-173.0" type="line"/>
      <point x="143.0" y="-138.0"/>
      <point x="172.0" y="-100.0"/>
      <point x="172.0" y="-61.0" type="curve" smooth="yes"/>
      <point x="172.0" y="-46.0"/>
      <point x="168.0" y="-31.0"/>
      <point x="158.0" y="-19.0" type="curve" smooth="yes"/>
      <point x="104.0" y="42.0" type="line"/>
      <point x="97.0" y="52.0"/>
      <point x="94.0" y="64.0"/>
      <point x="94.0" y="76.0" type="curve" smooth="yes"/>
      <point x="94.0" y="100.0"/>
      <point x="122.0" y="124.0"/>
      <point x="153.0" y="124.0" type="curve" smooth="yes"/>
      <point x="189.0" y="124.0"/>
      <point x="236.0" y="15.0"/>
      <point x="236.0" y="-27.0" type="curve" smooth="yes"/>
      <point x="236.0" y="-83.0"/>
      <point x="177.0" y="-145.0"/>
    </contour>
  </outline>
</glyph>
<glyph name="hyphen" format="1">
  <advance width="385"/>
  <unicode hex="002D"/>
  <outline>
    <contour>
      <point x="317" y="231" type="line"/>
      <point x="51" y="231" type="line"/>
      <point x="70" y="281" type="line"/>
      <point x="333" y="281" type="line"/>
    </contour>
  </outline>
</glyph>
<glyph name="period" format="1">
  <advance width="280"/>
  <unicode hex="002E"/>
  <outline>
    <contour>
      <point x="69" y="56" type="curve" smooth="yes"/>
      <point x="69" y="95"/>
      <point x="101" y="127"/>
      <point x="140" y="127" type="curve" smooth="yes"/>
      <point x="178" y="127"/>
      <point x="210" y="95"/>
      <point x="210" y="56" type="curve" smooth="yes"/>
      <point x="210" y="18"/>
      <point x="178" y="-14"/>
      <point x="140" y="-14" type="curve" smooth="yes"/>
      <point x="101" y="-14"/>
      <point x="69" y="18"/>
    </contour>
  </outline>
</glyph>
<glyph name="slash" format="2">
  <advance width="553"/>
  <unicode hex="002F"/>
  <outline>
    <contour>
      <point x="490.0" y="711.0" type="line"/>
      <point x="495.0" y="700.0" type="line"/>
      <point x="106.0" y="-196.0" type="line"/>
      <point x="60.0" y="-184.0" type="line"/>
      <point x="57.0" y="-170.0" type="line"/>
      <point x="443.0" y="718.0" type="line"/>
      <point x="454.0" y="720.0" type="line"/>
    </contour>
  </outline>
</glyph>
<glyph name="zero" format="2">
  <advance width="550"/>
  <unicode hex="0030"/>
  <outline>
    <contour>
      <point x="325.0" y="716.0" type="curve"/>
      <point x="481.0" y="647.0"/>
      <point x="513.0" y="482.0"/>
      <point x="513.0" y="344.0" type="curve" smooth="yes"/>
      <point x="513.0" y="221.0"/>
      <point x="448.0" y="-15.0"/>
      <point x="251.0" y="-15.0" type="curve" smooth="yes"/>
      <point x="88.0" y="-15.0"/>
      <point x="40.0" y="160.0"/>
      <point x="40.0" y="285.0" type="curve" smooth="yes"/>
      <point x="40.0" y="410.0"/>
      <point x="73.0" y="539.0"/>
      <point x="174.0" y="626.0" type="curve" smooth="yes"/>
      <point x="218.0" y="664.0"/>
      <point x="270.0" y="703.0"/>
    </contour>
    <contour>
      <point x="256.0" y="632.0" type="curve"/>
      <point x="161.0" y="584.0"/>
      <point x="133.0" y="479.0"/>
      <point x="133.0" y="384.0" type="curve" smooth="yes"/>
      <point x="133.0" y="328.0"/>
      <point x="140.0" y="272.0"/>
      <point x="159.0" y="218.0" type="curve" smooth="yes"/>
      <point x="183.0" y="151.0"/>
      <point x="236.0" y="67.0"/>
      <point x="312.0" y="67.0" type="curve" smooth="yes"/>
      <point x="389.0" y="67.0"/>
      <point x="436.0" y="135.0"/>
      <point x="436.0" y="274.0" type="curve" smooth="yes"/>
      <point x="436.0" y="368.0"/>
      <point x="422.0" y="464.0"/>
      <point x="365.0" y="543.0" type="curve" smooth="yes"/>
      <point x="338.0" y="580.0"/>
      <point x="296.0" y="621.0"/>
    </contour>
  </outline>
</glyph>
<glyph name="one" format="2">
  <advance width="550"/>
  <unicode hex="0031"/>
  <outline>
    <contour>
      <point x="70.0" y="626.0" type="line"/>
      <point x="341.0" y="715.0" type="line"/>
      <point x="357.0" y="697.0" type="line"/>
      <point x="346.0" y="560.0"/>
      <point x="342.0" y="422.0"/>
      <point x="342.0" y="284.0" type="curve" smooth="yes"/>
      <point x="342.0" y="200.0"/>
      <point x="342.0" y="96.0"/>
      <point x="345.0" y="32.0" type="curve"/>
      <point x="238.0" y="-9.0" type="line"/>
      <point x="217.0" y="5.0" type="line"/>
      <point x="230.0" y="123.0"/>
      <point x="237.0" y="242.0"/>
      <point x="237.0" y="361.0" type="curve" smooth="yes"/>
      <point x="237.0" y="428.0"/>
      <point x="236.0" y="494.0"/>
      <point x="231.0" y="561.0" type="curve" smooth="yes"/>
      <point x="230.0" y="578.0"/>
      <point x="215.0" y="594.0"/>
      <point x="198.0" y="594.0" type="curve" smooth="yes"/>
      <point x="70.0" y="594.0" type="line"/>
    </contour>
  </outline>
</glyph>
<glyph name="two" format="2">
  <advance width="550"/>
  <unicode hex="0032"/>
  <outline>
    <contour>
      <point x="529.0" y="109.0" type="line"/>
      <point x="500.0" y="5.0" type="line"/>
      <point x="15.0" y="5.0" type="line"/>
      <point x="15.0" y="25.0" type="line"/>
      <point x="113.0" y="106.0"/>
      <point x="202.0" y="194.0"/>
      <point x="276.0" y="294.0" type="curve" smooth="yes"/>
      <point x="322.0" y="356.0"/>
      <point x="359.0" y="427.0"/>
      <point x="359.0" y="503.0" type="curve" smooth="yes"/>
      <point x="359.0" y="566.0"/>
      <point x="332.0" y="641.0"/>
      <point x="242.0" y="641.0" type="curve" smooth="yes"/>
      <point x="190.0" y="641.0"/>
      <point x="138.0" y="608.0"/>
      <point x="94.0" y="580.0" type="curve"/>
      <point x="76.0" y="604.0" type="line"/>
      <point x="139.0" y="661.0"/>
      <point x="224.0" y="715.0"/>
      <point x="313.0" y="715.0" type="curve" smooth="yes"/>
      <point x="406.0" y="715.0"/>
      <point x="491.0" y="661.0"/>
      <point x="491.0" y="569.0" type="curve" smooth="yes"/>
      <point x="491.0" y="408.0"/>
      <point x="303.0" y="256.0"/>
      <point x="186.0" y="118.0" type="curve"/>
      <point x="185.0" y="117.0"/>
      <point x="185.0" y="115.0"/>
      <point x="185.0" y="114.0" type="curve" smooth="yes"/>
      <point x="185.0" y="112.0"/>
      <point x="188.0" y="109.0"/>
      <point x="191.0" y="109.0" type="curve" smooth="yes"/>
    </contour>
  </outline>
</glyph>
<glyph name="three" format="2">
  <advance width="550"/>
  <unicode hex="0033"/>
  <outline>
    <contour>
      <point x="281.0" y="391.0" type="curve"/>
      <point x="281.0" y="384.0" type="line"/>
      <point x="420.0" y="372.0"/>
      <point x="496.0" y="319.0"/>
      <point x="496.0" y="223.0" type="curve" smooth="yes"/>
      <point x="496.0" y="75.0"/>
      <point x="353.0" y="-8.0"/>
      <point x="210.0" y="-8.0" type="curve" smooth="yes"/>
      <point x="142.0" y="-8.0"/>
      <point x="75.0" y="12.0"/>
      <point x="25.0" y="53.0" type="curve"/>
      <point x="82.0" y="160.0" type="line"/>
      <point x="101.0" y="158.0" type="line"/>
      <point x="117.0" y="102.0"/>
      <point x="154.0" y="32.0"/>
      <point x="217.0" y="32.0" type="curve" smooth="yes"/>
      <point x="328.0" y="32.0"/>
      <point x="369.0" y="117.0"/>
      <point x="369.0" y="201.0" type="curve" smooth="yes"/>
      <point x="369.0" y="332.0"/>
      <point x="251.0" y="359.0"/>
      <point x="133.0" y="359.0" type="curve"/>
      <point x="133.0" y="388.0" type="line"/>
      <point x="218.0" y="393.0"/>
      <point x="338.0" y="433.0"/>
      <point x="338.0" y="542.0" type="curve" smooth="yes"/>
      <point x="338.0" y="602.0"/>
      <point x="293.0" y="644.0"/>
      <point x="229.0" y="644.0" type="curve" smooth="yes"/>
      <point x="179.0" y="644.0"/>
      <point x="132.0" y="615.0"/>
      <point x="89.0" y="588.0" type="curve"/>
      <point x="72.0" y="613.0" type="line"/>
      <point x="135.0" y="660.0"/>
      <point x="213.0" y="708.0"/>
      <point x="295.0" y="708.0" type="curve" smooth="yes"/>
      <point x="376.0" y="708.0"/>
      <point x="455.0" y="663.0"/>
      <point x="455.0" y="582.0" type="curve" smooth="yes"/>
      <point x="455.0" y="488.0"/>
      <point x="372.0" y="425.0"/>
    </contour>
  </outline>
</glyph>
<glyph name="four" format="2">
  <advance width="550"/>
  <unicode hex="0034"/>
  <outline>
    <contour>
      <point x="413.0" y="255.0" type="line"/>
      <point x="515.0" y="255.0" type="line"/>
      <point x="519.0" y="246.0" type="line"/>
      <point x="490.0" y="184.0" type="line"/>
      <point x="413.0" y="184.0" type="line"/>
      <point x="406.0" y="177.0" type="line"/>
      <point x="406.0" y="128.0"/>
      <point x="408.0" y="80.0"/>
      <point x="413.0" y="32.0" type="curve"/>
      <point x="305.0" y="-12.0" type="line"/>
      <point x="291.0" y="-1.0" type="line"/>
      <point x="297.0" y="58.0"/>
      <point x="301.0" y="118.0"/>
      <point x="301.0" y="178.0" type="curve"/>
      <point x="294.0" y="184.0" type="line"/>
      <point x="2.0" y="184.0" type="line"/>
      <point x="2.0" y="236.0" type="line"/>
      <point x="301.0" y="679.0" type="line"/>
      <point x="406.0" y="708.0" type="line"/>
      <point x="406.0" y="698.0" type="line"/>
      <point x="406.0" y="263.0" type="line"/>
    </contour>
    <contour>
      <point x="301.0" y="260.0" type="line"/>
      <point x="301.0" y="571.0" type="line"/>
      <point x="295.0" y="581.0" type="line"/>
      <point x="290.0" y="581.0"/>
      <point x="248.0" y="529.0"/>
      <point x="197.0" y="455.0" type="curve" smooth="yes"/>
      <point x="96.0" y="307.0"/>
      <point x="82.0" y="265.0"/>
      <point x="82.0" y="261.0" type="curve"/>
      <point x="88.0" y="255.0" type="line"/>
      <point x="293.0" y="255.0" type="line"/>
    </contour>
  </outline>
</glyph>
<glyph name="five" format="2">
  <advance width="550"/>
  <unicode hex="0035"/>
  <outline>
    <contour>
      <point x="475.0" y="694.0" type="line"/>
      <point x="480.0" y="690.0" type="line"/>
      <point x="442.0" y="591.0" type="line"/>
      <point x="137.0" y="591.0" type="line"/>
      <point x="137.0" y="417.0" type="line"/>
      <point x="147.0" y="413.0" type="line"/>
      <point x="193.0" y="435.0"/>
      <point x="239.0" y="446.0"/>
      <point x="285.0" y="446.0" type="curve" smooth="yes"/>
      <point x="409.0" y="446.0"/>
      <point x="495.0" y="371.0"/>
      <point x="495.0" y="255.0" type="curve" smooth="yes"/>
      <point x="495.0" y="105.0"/>
      <point x="371.0" y="-12.0"/>
      <point x="209.0" y="-12.0" type="curve" smooth="yes"/>
      <point x="143.0" y="-12.0"/>
      <point x="98.0" y="-6.0"/>
      <point x="18.0" y="49.0" type="curve"/>
      <point x="18.0" y="62.0" type="line"/>
      <point x="67.0" y="157.0" type="line"/>
      <point x="85.0" y="157.0" type="line"/>
      <point x="104.0" y="94.0"/>
      <point x="143.0" y="30.0"/>
      <point x="221.0" y="30.0" type="curve" smooth="yes"/>
      <point x="336.0" y="30.0"/>
      <point x="368.0" y="140.0"/>
      <point x="368.0" y="230.0" type="curve" smooth="yes"/>
      <point x="368.0" y="305.0"/>
      <point x="337.0" y="397.0"/>
      <point x="224.0" y="397.0" type="curve" smooth="yes"/>
      <point x="188.0" y="397.0"/>
      <point x="131.0" y="372.0"/>
      <point x="103.0" y="341.0" type="curve"/>
      <point x="83.0" y="349.0" type="line"/>
      <point x="83.0" y="694.0" type="line"/>
    </contour>
  </outline>
</glyph>
<glyph name="six" format="1">
  <advance width="550"/>
  <unicode hex="0036"/>
  <outline>
    <contour>
      <point x="496" y="625" type="line"/>
      <point x="477" y="623" type="line"/>
      <point x="453" y="638"/>
      <point x="424" y="646"/>
      <point x="395" y="646" type="curve" smooth="yes"/>
      <point x="230" y="646"/>
      <point x="164" y="473"/>
      <point x="159" y="336" type="curve"/>
      <point x="167" y="331" type="line"/>
      <point x="217" y="362"/>
      <point x="273" y="386"/>
      <point x="334" y="386" type="curve" smooth="yes"/>
      <point x="440" y="386"/>
      <point x="509" y="305"/>
      <point x="509" y="216" type="curve" smooth="yes"/>
      <point x="509" y="97"/>
      <point x="377" y="-12"/>
      <point x="243" y="-12" type="curve" smooth="yes"/>
      <point x="100" y="-12"/>
      <point x="44" y="141"/>
      <point x="44" y="253" type="curve" smooth="yes"/>
      <point x="44" y="465"/>
      <point x="221" y="704"/>
      <point x="459" y="704" type="curve" smooth="yes"/>
      <point x="472" y="704"/>
      <point x="504" y="697"/>
      <point x="520" y="690" type="curve"/>
    </contour>
    <contour>
      <point x="161" y="286" type="curve"/>
      <point x="165" y="196"/>
      <point x="184" y="39"/>
      <point x="304" y="39" type="curve" smooth="yes"/>
      <point x="375" y="39"/>
      <point x="419" y="107"/>
      <point x="419" y="165" type="curve" smooth="yes"/>
      <point x="419" y="244"/>
      <point x="368" y="320"/>
      <point x="269" y="320" type="curve" smooth="yes"/>
      <point x="230" y="320"/>
      <point x="194" y="303"/>
    </contour>
  </outline>
</glyph>
<glyph name="seven" format="2">
  <advance width="550"/>
  <unicode hex="0037"/>
  <outline>
    <contour>
      <point x="251.0" y="20.0" type="curve"/>
      <point x="132.0" y="-15.0" type="line"/>
      <point x="113.0" y="4.0" type="line"/>
      <point x="165.0" y="214.0"/>
      <point x="289.0" y="378.0"/>
      <point x="444.0" y="582.0" type="curve"/>
      <point x="446.0" y="585.0"/>
      <point x="447.0" y="588.0"/>
      <point x="447.0" y="592.0" type="curve"/>
      <point x="444.0" y="596.0"/>
      <point x="438.0" y="596.0"/>
      <point x="433.0" y="596.0" type="curve" smooth="yes"/>
      <point x="338.0" y="595.0"/>
      <point x="243.0" y="595.0"/>
      <point x="148.0" y="595.0" type="curve" smooth="yes"/>
      <point x="105.0" y="593.0"/>
      <point x="105.0" y="577.0"/>
      <point x="87.0" y="480.0" type="curve"/>
      <point x="50.0" y="480.0" type="line"/>
      <point x="50.0" y="696.0" type="line"/>
      <point x="197.0" y="693.0"/>
      <point x="381.0" y="693.0"/>
      <point x="547.0" y="693.0" type="curve"/>
      <point x="547.0" y="676.0" type="line"/>
      <point x="466.0" y="560.0"/>
      <point x="391.0" y="442.0"/>
      <point x="328.0" y="318.0" type="curve" smooth="yes"/>
      <point x="282.0" y="226.0"/>
      <point x="258.0" y="120.0"/>
    </contour>
  </outline>
</glyph>
<glyph name="eight" format="2">
  <advance width="550"/>
  <unicode hex="0038"/>
  <outline>
    <contour>
      <point x="249.0" y="330.0" type="curve"/>
      <point x="176.0" y="297.0"/>
      <point x="148.0" y="259.0"/>
      <point x="148.0" y="196.0" type="curve" smooth="yes"/>
      <point x="148.0" y="125.0"/>
      <point x="201.0" y="37.0"/>
      <point x="282.0" y="37.0" type="curve" smooth="yes"/>
      <point x="364.0" y="37.0"/>
      <point x="402.0" y="91.0"/>
      <point x="402.0" y="157.0" type="curve" smooth="yes"/>
      <point x="402.0" y="235.0"/>
      <point x="316.0" y="291.0"/>
    </contour>
    <contour>
      <point x="356.0" y="393.0" type="line"/>
      <point x="449.0" y="331.0"/>
      <point x="505.0" y="290.0"/>
      <point x="505.0" y="206.0" type="curve" smooth="yes"/>
      <point x="505.0" y="75.0"/>
      <point x="370.0" y="-5.0"/>
      <point x="237.0" y="-5.0" type="curve" smooth="yes"/>
      <point x="128.0" y="-5.0"/>
      <point x="42.0" y="59.0"/>
      <point x="42.0" y="161.0" type="curve" smooth="yes"/>
      <point x="42.0" y="254.0"/>
      <point x="103.0" y="300.0"/>
      <point x="212.0" y="353.0" type="curve"/>
      <point x="212.0" y="360.0" type="line"/>
      <point x="152.0" y="407.0"/>
      <point x="82.0" y="460.0"/>
      <point x="82.0" y="533.0" type="curve" smooth="yes"/>
      <point x="82.0" y="629.0"/>
      <point x="195.0" y="685.0"/>
      <point x="291.0" y="720.0" type="curve"/>
      <point x="401.0" y="705.0"/>
      <point x="483.0" y="665.0"/>
      <point x="483.0" y="586.0" type="curve" smooth="yes"/>
      <point x="483.0" y="509.0"/>
      <point x="418.0" y="448.0"/>
      <point x="356.0" y="403.0" type="curve"/>
    </contour>
    <contour>
      <point x="315.0" y="422.0" type="curve"/>
      <point x="358.0" y="451.0"/>
      <point x="381.0" y="502.0"/>
      <point x="381.0" y="550.0" type="curve" smooth="yes"/>
      <point x="381.0" y="620.0"/>
      <point x="319.0" y="661.0"/>
      <point x="252.0" y="667.0" type="curve"/>
      <point x="209.0" y="651.0"/>
      <point x="187.0" y="611.0"/>
      <point x="187.0" y="570.0" type="curve" smooth="yes"/>
      <point x="187.0" y="520.0"/>
      <point x="260.0" y="460.0"/>
    </contour>
  </outline>
</glyph>
<glyph name="nine" format="2">
  <advance width="550"/>
  <unicode hex="0039"/>
  <outline>
    <contour>
      <point x="376.0" y="342.0" type="line"/>
      <point x="369.0" y="349.0" type="line"/>
      <point x="298.0" y="313.0"/>
      <point x="235.0" y="303.0"/>
      <point x="215.0" y="303.0" type="curve" smooth="yes"/>
      <point x="125.0" y="303.0"/>
      <point x="48.0" y="382.0"/>
      <point x="48.0" y="465.0" type="curve" smooth="yes"/>
      <point x="48.0" y="580.0"/>
      <point x="146.0" y="651.0"/>
      <point x="252.0" y="707.0" type="curve"/>
      <point x="295.0" y="707.0"/>
      <point x="335.0" y="707.0"/>
      <point x="377.0" y="698.0" type="curve" smooth="yes"/>
      <point x="457.0" y="681.0"/>
      <point x="514.0" y="622.0"/>
      <point x="514.0" y="551.0" type="curve" smooth="yes"/>
      <point x="514.0" y="514.0"/>
      <point x="500.0" y="480.0"/>
      <point x="485.0" y="446.0" type="curve" smooth="yes"/>
      <point x="422.0" y="303.0"/>
      <point x="291.0" y="170.0"/>
      <point x="235.0" y="16.0" type="curve"/>
      <point x="128.0" y="-10.0" type="line"/>
      <point x="113.0" y="2.0" type="line"/>
      <point x="132.0" y="36.0"/>
      <point x="154.0" y="66.0"/>
      <point x="179.0" y="97.0" type="curve" smooth="yes"/>
    </contour>
    <contour>
      <point x="380.0" y="393.0" type="curve"/>
      <point x="389.0" y="416.0"/>
      <point x="400.0" y="445.0"/>
      <point x="400.0" y="470.0" type="curve" smooth="yes"/>
      <point x="400.0" y="522.0"/>
      <point x="381.0" y="572.0"/>
      <point x="341.0" y="608.0" type="curve" smooth="yes"/>
      <point x="313.0" y="634.0"/>
      <point x="247.0" y="646.0"/>
      <point x="215.0" y="646.0" type="curve"/>
      <point x="176.0" y="616.0"/>
      <point x="155.0" y="568.0"/>
      <point x="155.0" y="523.0" type="curve" smooth="yes"/>
      <point x="155.0" y="446.0"/>
      <point x="204.0" y="370.0"/>
      <point x="302.0" y="370.0" type="curve" smooth="yes"/>
      <point x="331.0" y="370.0"/>
      <point x="356.0" y="380.0"/>
    </contour>
  </outline>
</glyph>
<glyph name="colon" format="2">
  <advance width="255"/>
  <unicode hex="003A"/>
  <outline>
    <contour>
      <point x="127.0" y="478.0" type="curve" smooth="yes"/>
      <point x="167.0" y="478.0"/>
      <point x="199.0" y="446.0"/>
      <point x="199.0" y="406.0" type="curve" smooth="yes"/>
      <point x="199.0" y="366.0"/>
      <point x="167.0" y="334.0"/>
      <point x="127.0" y="334.0" type="curve" smooth="yes"/>
      <point x="87.0" y="334.0"/>
      <point x="55.0" y="366.0"/>
      <point x="55.0" y="406.0" type="curve" smooth="yes"/>
      <point x="55.0" y="446.0"/>
      <point x="87.0" y="478.0"/>
    </contour>
    <contour>
      <point x="127.0" y="129.0" type="curve" smooth="yes"/>
      <point x="167.0" y="129.0"/>
      <point x="200.0" y="97.0"/>
      <point x="200.0" y="57.0" type="curve" smooth="yes"/>
      <point x="200.0" y="17.0"/>
      <point x="167.0" y="-16.0"/>
      <point x="127.0" y="-16.0" type="curve" smooth="yes"/>
      <point x="88.0" y="-16.0"/>
      <point x="55.0" y="17.0"/>
      <point x="55.0" y="57.0" type="curve" smooth="yes"/>
      <point x="55.0" y="97.0"/>
      <point x="88.0" y="129.0"/>
    </contour>
  </outline>
</glyph>
<glyph name="semicolon" format="2">
  <advance width="255"/>
  <unicode hex="003B"/>
  <outline>
    <contour>
      <point x="126.0" y="479.0" type="curve" smooth="yes"/>
      <point x="166.0" y="479.0"/>
      <point x="198.0" y="447.0"/>
      <point x="198.0" y="407.0" type="curve" smooth="yes"/>
      <point x="198.0" y="367.0"/>
      <point x="166.0" y="334.0"/>
      <point x="126.0" y="334.0" type="curve" smooth="yes"/>
      <point x="86.0" y="334.0"/>
      <point x="54.0" y="367.0"/>
      <point x="54.0" y="407.0" type="curve" smooth="yes"/>
      <point x="54.0" y="447.0"/>
      <point x="86.0" y="479.0"/>
    </contour>
    <contour>
      <point x="103.0" y="-217.0" type="line"/>
      <point x="76.0" y="-197.0" type="line"/>
      <point x="79.0" y="-193.0" type="line" smooth="yes"/>
      <point x="115.0" y="-147.0"/>
      <point x="144.0" y="-98.0"/>
      <point x="144.0" y="-61.0" type="curve" smooth="yes"/>
      <point x="144.0" y="-48.0"/>
      <point x="140.0" y="-32.0"/>
      <point x="132.0" y="-22.0" type="curve" smooth="yes"/>
      <point x="62.0" y="61.0" type="line" smooth="yes"/>
      <point x="55.0" y="70.0"/>
      <point x="54.0" y="87.0"/>
      <point x="54.0" y="90.0" type="curve" smooth="yes"/>
      <point x="54.0" y="125.0"/>
      <point x="102.0" y="143.0"/>
      <point x="118.0" y="143.0" type="curve" smooth="yes"/>
      <point x="129.0" y="143.0"/>
      <point x="148.0" y="134.0"/>
      <point x="156.0" y="124.0" type="curve" smooth="yes"/>
      <point x="174.0" y="101.0"/>
      <point x="211.0" y="25.0"/>
      <point x="211.0" y="-27.0" type="curve" smooth="yes"/>
      <point x="211.0" y="-79.0"/>
      <point x="178.0" y="-129.0"/>
      <point x="106.0" y="-214.0" type="curve"/>
    </contour>
  </outline>
</glyph>
<glyph name="less" format="2">
  <advance width="363"/>
  <unicode hex="003C"/>
  <outline>
    <contour>
      <point x="329.0" y="443.0" type="line"/>
      <point x="96.0" y="252.0" type="line"/>
      <point x="339.0" y="29.0" type="line"/>
      <point x="296.0" y="-10.0" type="line"/>
      <point x="19.0" y="245.0" type="line"/>
      <point x="304.0" y="475.0" type="line"/>
    </contour>
  </outline>
</glyph>
<glyph name="equal" format="2">
  <advance width="582"/>
  <unicode hex="003D"/>
  <outline>
    <contour>
      <point x="549.0" y="299.0" type="line"/>
      <point x="22.0" y="299.0" type="line"/>
      <point x="33.0" y="349.0" type="line"/>
      <point x="559.0" y="349.0" type="line"/>
    </contour>
    <contour>
      <point x="549.0" y="164.0" type="line"/>
      <point x="22.0" y="164.0" type="line"/>
      <point x="33.0" y="214.0" type="line"/>
      <point x="559.0" y="214.0" type="line"/>
    </contour>
  </outline>
</glyph>
<glyph name="greater" format="1">
  <advance width="405"/>
  <unicode hex="003E"/>
  <outline>
    <contour>
      <point x="353" y="241" type="line"/>
      <point x="98" y="-7" type="line"/>
      <point x="71" y="14" type="line"/>
      <point x="289" y="228" type="line"/>
      <point x="58" y="437" type="line"/>
      <point x="98" y="472" type="line"/>
    </contour>
  </outline>
</glyph>
<glyph name="question" format="2">
  <advance width="428"/>
  <unicode hex="003F"/>
  <outline>
    <contour>
      <point x="169.0" y="121.0" type="curve" smooth="yes"/>
      <point x="209.0" y="121.0"/>
      <point x="242.0" y="89.0"/>
      <point x="242.0" y="49.0" type="curve" smooth="yes"/>
      <point x="242.0" y="9.0"/>
      <point x="209.0" y="-24.0"/>
      <point x="169.0" y="-24.0" type="curve" smooth="yes"/>
      <point x="130.0" y="-24.0"/>
      <point x="97.0" y="9.0"/>
      <point x="97.0" y="49.0" type="curve" smooth="yes"/>
      <point x="97.0" y="89.0"/>
      <point x="130.0" y="121.0"/>
    </contour>
    <contour>
      <point x="153.0" y="534.0" type="line"/>
      <point x="75.0" y="489.0" type="line"/>
      <point x="46.0" y="503.0"/>
      <point x="39.0" y="526.0"/>
      <point x="39.0" y="552.0" type="curve" smooth="yes"/>
      <point x="39.0" y="644.0"/>
      <point x="165.0" y="699.0"/>
      <point x="263.0" y="699.0" type="curve" smooth="yes"/>
      <point x="346.0" y="699.0"/>
      <point x="423.0" y="654.0"/>
      <point x="423.0" y="577.0" type="curve" smooth="yes"/>
      <point x="423.0" y="522.0"/>
      <point x="395.0" y="475.0"/>
      <point x="347.0" y="438.0" type="curve" smooth="yes"/>
      <point x="217.0" y="338.0" type="line" smooth="yes"/>
      <point x="197.0" y="322.0"/>
      <point x="180.0" y="299.0"/>
      <point x="180.0" y="275.0" type="curve" smooth="yes"/>
      <point x="180.0" y="255.0"/>
      <point x="190.0" y="239.0"/>
      <point x="208.0" y="224.0" type="curve"/>
      <point x="208.0" y="215.0" type="line"/>
      <point x="138.0" y="168.0" type="line"/>
      <point x="104.0" y="183.0"/>
      <point x="83.0" y="207.0"/>
      <point x="83.0" y="240.0" type="curve" smooth="yes"/>
      <point x="83.0" y="267.0"/>
      <point x="99.0" y="293.0"/>
      <point x="123.0" y="311.0" type="curve" smooth="yes"/>
      <point x="243.0" y="398.0" type="line" smooth="yes"/>
      <point x="297.0" y="437.0"/>
      <point x="312.0" y="490.0"/>
      <point x="312.0" y="549.0" type="curve" smooth="yes"/>
      <point x="312.0" y="597.0"/>
      <point x="267.0" y="659.0"/>
      <point x="209.0" y="659.0" type="curve" smooth="yes"/>
      <point x="165.0" y="659.0"/>
      <point x="121.0" y="638.0"/>
      <point x="121.0" y="591.0" type="curve" smooth="yes"/>
      <point x="121.0" y="576.0"/>
      <point x="129.0" y="558.0"/>
      <point x="141.0" y="546.0" type="curve" smooth="yes"/>
    </contour>
  </outline>
</glyph>
<glyph name="at" format="2">
  <advance width="708"/>
  <unicode hex="0040"/>
  <outline>
    <contour>
      <point x="437.0" y="304.0" type="curve" smooth="yes"/>
      <point x="437.0" y="341.0"/>
      <point x="427.0" y="394.0"/>
      <point x="366.0" y="394.0" type="curve" smooth="yes"/>
      <point x="278.0" y="394.0"/>
      <point x="261.0" y="296.0"/>
      <point x="261.0" y="233.0" type="curve" smooth="yes"/>
      <point x="261.0" y="185.0"/>
      <point x="278.0" y="117.0"/>
      <point x="341.0" y="117.0" type="curve" smooth="yes"/>
      <point x="376.0" y="117.0"/>
      <point x="406.0" y="134.0"/>
      <point x="430.0" y="154.0" type="curve"/>
      <point x="434.0" y="185.0"/>
      <point x="437.0" y="256.0"/>
    </contour>
    <contour>
      <point x="516.0" y="418.0" type="line"/>
      <point x="527.0" y="411.0" type="line"/>
      <point x="520.0" y="347.0"/>
      <point x="515.0" y="284.0"/>
      <point x="515.0" y="220.0" type="curve" smooth="yes"/>
      <point x="515.0" y="157.0"/>
      <point x="515.0" y="124.0"/>
      <point x="540.0" y="124.0" type="curve" smooth="yes"/>
      <point x="593.0" y="124.0"/>
      <point x="616.0" y="217.0"/>
      <point x="619.0" y="263.0" type="curve" smooth="yes"/>
      <point x="632.0" y="440.0"/>
      <point x="471.0" y="553.0"/>
      <point x="302.0" y="521.0" type="curve" smooth="yes"/>
      <point x="250.0" y="511.0"/>
      <point x="202.0" y="488.0"/>
      <point x="161.0" y="455.0" type="curve"/>
      <point x="91.0" y="369.0"/>
      <point x="61.0" y="223.0"/>
      <point x="128.0" y="107.0" type="curve" smooth="yes"/>
      <point x="166.0" y="41.0"/>
      <point x="239.0" y="-9.0"/>
      <point x="330.0" y="-16.0" type="curve"/>
      <point x="346.0" y="-31.0" type="line"/>
      <point x="296.0" y="-81.0" type="line"/>
      <point x="190.0" y="-73.0"/>
      <point x="106.0" y="-2.0"/>
      <point x="63.0" y="73.0" type="curve" smooth="yes"/>
      <point x="6.0" y="171.0"/>
      <point x="15.0" y="293.0"/>
      <point x="71.0" y="385.0" type="curve" smooth="yes"/>
      <point x="124.0" y="472.0"/>
      <point x="226.0" y="565.0"/>
      <point x="336.0" y="586.0" type="curve" smooth="yes"/>
      <point x="512.0" y="620.0"/>
      <point x="698.0" y="483.0"/>
      <point x="684.0" y="297.0" type="curve" smooth="yes"/>
      <point x="679.0" y="234.0"/>
      <point x="652.0" y="181.0"/>
      <point x="613.0" y="142.0" type="curve" smooth="yes"/>
      <point x="585.0" y="112.0"/>
      <point x="542.0" y="64.0"/>
      <point x="482.0" y="64.0" type="curve" smooth="yes"/>
      <point x="448.0" y="64.0"/>
      <point x="439.0" y="88.0"/>
      <point x="435.0" y="110.0" type="curve"/>
      <point x="425.0" y="114.0" type="line"/>
      <point x="384.0" y="87.0"/>
      <point x="335.0" y="62.0"/>
      <point x="283.0" y="62.0" type="curve" smooth="yes"/>
      <point x="200.0" y="62.0"/>
      <point x="175.0" y="147.0"/>
      <point x="175.0" y="206.0" type="curve" smooth="yes"/>
      <point x="175.0" y="352.0"/>
      <point x="242.0" y="421.0"/>
      <point x="360.0" y="421.0" type="curve" smooth="yes"/>
      <point x="401.0" y="421.0"/>
      <point x="437.0" y="410.0"/>
      <point x="471.0" y="391.0" type="curve"/>
    </contour>
  </outline>
</glyph>
<glyph name="A" format="1">
  <advance width="836"/>
  <unicode hex="0041"/>
  <outline>
    <contour>
      <point x="137" y="10" type="curve"/>
      <point x="11" y="-1" type="line"/>
      <point x="9" y="9" type="line"/>
      <point x="144" y="210"/>
      <point x="268" y="415"/>
      <point x="379" y="628" type="curve"/>
      <point x="380" y="629"/>
      <point x="380" y="631"/>
      <point x="380" y="633" type="curve" smooth="yes"/>
      <point x="380" y="634"/>
      <point x="379" y="637"/>
      <point x="377" y="637" type="curve"/>
      <point x="283" y="649" type="line"/>
      <point x="283" y="687" type="line"/>
      <point x="507" y="687" type="line"/>
      <point x="618" y="314" type="line" smooth="yes"/>
      <point x="646" y="220"/>
      <point x="694" y="62"/>
      <point x="762" y="62" type="curve" smooth="yes"/>
      <point x="779" y="62"/>
      <point x="801" y="66"/>
      <point x="820" y="70" type="curve"/>
      <point x="827" y="42" type="line"/>
      <point x="769" y="16"/>
      <point x="704" y="-14"/>
      <point x="646" y="-14" type="curve" smooth="yes"/>
      <point x="586" y="-14"/>
      <point x="562" y="40"/>
      <point x="549" y="86" type="curve" smooth="yes"/>
      <point x="498" y="268" type="line"/>
      <point x="247" y="268" type="line"/>
      <point x="213" y="204"/>
      <point x="171" y="97"/>
    </contour>
    <contour>
      <point x="467" y="320" type="line" smooth="yes"/>
      <point x="470" y="320"/>
      <point x="476" y="322"/>
      <point x="476" y="325" type="curve" smooth="yes"/>
      <point x="476" y="328"/>
      <point x="476" y="336"/>
      <point x="475" y="338" type="curve"/>
      <point x="410" y="543" type="line" smooth="yes"/>
      <point x="408" y="549"/>
      <point x="403" y="551"/>
      <point x="401" y="551" type="curve" smooth="yes"/>
      <point x="399" y="551"/>
      <point x="395" y="548"/>
      <point x="392" y="543" type="curve"/>
      <point x="287" y="335" type="line"/>
      <point x="285" y="332"/>
      <point x="285" y="330"/>
      <point x="285" y="326" type="curve" smooth="yes"/>
      <point x="285" y="323"/>
      <point x="292" y="320"/>
      <point x="296" y="320" type="curve" smooth="yes"/>
    </contour>
    <contour>
      <point x="752" y="10" type="move" name="ogonek"/>
    </contour>
    <contour>
      <point x="418" y="0" type="move" name="bottom"/>
    </contour>
    <contour>
      <point x="418" y="692" type="move" name="top"/>
    </contour>
  </outline>
</glyph>
<glyph name="B" format="2">
  <advance width="628"/>
  <unicode hex="0042"/>
  <outline>
    <contour>
      <point x="381.0" y="379.0" type="curve"/>
      <point x="381.0" y="368.0" type="line"/>
      <point x="519.0" y="356.0"/>
      <point x="601.0" y="302.0"/>
      <point x="601.0" y="207.0" type="curve" smooth="yes"/>
      <point x="601.0" y="46.0"/>
      <point x="451.0" y="-2.0"/>
      <point x="305.0" y="-2.0" type="curve" smooth="yes"/>
      <point x="61.0" y="-2.0" type="line"/>
      <point x="61.0" y="14.0" type="line"/>
      <point x="98.0" y="38.0"/>
      <point x="97.0" y="54.0"/>
      <point x="97.0" y="84.0" type="curve" smooth="yes"/>
      <point x="97.0" y="566.0" type="line" smooth="yes"/>
      <point x="97.0" y="621.0"/>
      <point x="115.0" y="643.0"/>
      <point x="0.0" y="676.0" type="curve"/>
      <point x="0.0" y="697.0" type="line"/>
      <point x="6.0" y="703.0" type="line"/>
      <point x="314.0" y="703.0" type="line" smooth="yes"/>
      <point x="483.0" y="703.0"/>
      <point x="577.0" y="655.0"/>
      <point x="577.0" y="550.0" type="curve" smooth="yes"/>
      <point x="577.0" y="449.0"/>
      <point x="473.0" y="398.0"/>
    </contour>
    <contour>
      <point x="222.0" y="117.0" type="line" smooth="yes"/>
      <point x="222.0" y="68.0"/>
      <point x="221.0" y="40.0"/>
      <point x="263.0" y="40.0" type="curve" smooth="yes"/>
      <point x="374.0" y="40.0"/>
      <point x="456.0" y="104.0"/>
      <point x="456.0" y="209.0" type="curve" smooth="yes"/>
      <point x="456.0" y="245.0"/>
      <point x="438.0" y="277.0"/>
      <point x="410.0" y="304.0" type="curve" smooth="yes"/>
      <point x="370.0" y="341.0"/>
      <point x="286.0" y="345.0"/>
      <point x="222.0" y="347.0" type="curve"/>
    </contour>
    <contour>
      <point x="222.0" y="385.0" type="line"/>
      <point x="366.0" y="385.0"/>
      <point x="441.0" y="443.0"/>
      <point x="441.0" y="542.0" type="curve" smooth="yes"/>
      <point x="441.0" y="637.0"/>
      <point x="362.0" y="661.0"/>
      <point x="276.0" y="661.0" type="curve" smooth="yes"/>
      <point x="262.0" y="661.0"/>
      <point x="247.0" y="659.0"/>
      <point x="235.0" y="656.0" type="curve" smooth="yes"/>
      <point x="221.0" y="652.0"/>
      <point x="222.0" y="634.0"/>
      <point x="222.0" y="604.0" type="curve" smooth="yes"/>
    </contour>
  </outline>
</glyph>
<glyph name="C" format="2">
  <advance width="689"/>
  <unicode hex="0043"/>
  <outline>
    <contour>
      <point x="721.0" y="585.0" type="curve"/>
      <point x="627.0" y="499.0" type="line"/>
      <point x="611.0" y="502.0" type="line"/>
      <point x="588.0" y="588.0"/>
      <point x="536.0" y="666.0"/>
      <point x="425.0" y="666.0" type="curve" smooth="yes"/>
      <point x="254.0" y="666.0"/>
      <point x="203.0" y="484.0"/>
      <point x="203.0" y="360.0" type="curve" smooth="yes"/>
      <point x="203.0" y="219.0"/>
      <point x="276.0" y="43.0"/>
      <point x="464.0" y="43.0" type="curve" smooth="yes"/>
      <point x="545.0" y="43.0"/>
      <point x="622.0" y="72.0"/>
      <point x="692.0" y="106.0" type="curve"/>
      <point x="713.0" y="81.0" type="line"/>
      <point x="629.0" y="22.0"/>
      <point x="529.0" y="-18.0"/>
      <point x="423.0" y="-18.0" type="curve" smooth="yes"/>
      <point x="149.0" y="-18.0"/>
      <point x="56.0" y="154.0"/>
      <point x="56.0" y="331.0" type="curve" smooth="yes"/>
      <point x="56.0" y="430.0"/>
      <point x="82.0" y="531.0"/>
      <point x="161.0" y="603.0" type="curve" smooth="yes"/>
      <point x="238.0" y="673.0"/>
      <point x="343.0" y="711.0"/>
      <point x="452.0" y="711.0" type="curve" smooth="yes"/>
      <point x="578.0" y="711.0"/>
      <point x="662.0" y="677.0"/>
    </contour>
  </outline>
</glyph>
<glyph name="D" format="1">
  <advance width="832"/>
  <unicode hex="0044"/>
  <outline>
    <contour>
      <point x="73" y="-1" type="line"/>
      <point x="73" y="13" type="line"/>
      <point x="95" y="42"/>
      <point x="105" y="43"/>
      <point x="105" y="106" type="curve" smooth="yes"/>
      <point x="105" y="535" type="line" smooth="yes"/>
      <point x="105" y="565"/>
      <point x="105" y="602"/>
      <point x="98" y="625" type="curve" smooth="yes"/>
      <point x="89" y="660"/>
      <point x="45" y="662"/>
      <point x="8" y="668" type="curve"/>
      <point x="8" y="692" type="line"/>
      <point x="14" y="698" type="line"/>
      <point x="429" y="698" type="line" smooth="yes"/>
      <point x="724" y="698"/>
      <point x="792" y="545"/>
      <point x="792" y="384" type="curve" smooth="yes"/>
      <point x="792" y="284"/>
      <point x="766" y="184"/>
      <point x="687" y="112" type="curve" smooth="yes"/>
      <point x="599" y="32"/>
      <point x="477" y="-1"/>
      <point x="355" y="-1" type="curve" smooth="yes"/>
    </contour>
    <contour>
      <point x="230" y="185" type="line"/>
      <point x="229" y="149"/>
      <point x="232" y="114"/>
      <point x="237" y="79" type="curve" smooth="yes"/>
      <point x="242" y="45"/>
      <point x="285" y="42"/>
      <point x="321" y="42" type="curve" smooth="yes"/>
      <point x="403" y="42"/>
      <point x="490" y="62"/>
      <point x="549" y="117" type="curve" smooth="yes"/>
      <point x="620" y="182"/>
      <point x="638" y="288"/>
      <point x="638" y="378" type="curve" smooth="yes"/>
      <point x="638" y="628"/>
      <point x="482" y="655"/>
      <point x="323" y="655" type="curve" smooth="yes"/>
      <point x="298" y="655"/>
      <point x="267" y="655"/>
      <point x="245" y="651" type="curve" smooth="yes"/>
      <point x="228" y="648"/>
      <point x="230" y="629"/>
      <point x="230" y="575" type="curve" smooth="yes"/>
    </contour>
  </outline>
</glyph>
<glyph name="E" format="2">
  <advance width="589"/>
  <unicode hex="0045"/>
  <outline>
    <contour>
      <point x="583.0" y="76.0" type="curve"/>
      <point x="593.0" y="68.0" type="line"/>
      <point x="567.0" y="-8.0" type="line"/>
      <point x="453.0" y="-1.0"/>
      <point x="339.0" y="0.0"/>
      <point x="225.0" y="0.0" type="curve" smooth="yes"/>
      <point x="193.0" y="0.0"/>
      <point x="145.0" y="0.0"/>
      <point x="130.0" y="4.0" type="curve"/>
      <point x="115.0" y="12.0"/>
      <point x="97.0" y="32.0"/>
      <point x="97.0" y="51.0" type="curve" smooth="yes"/>
      <point x="97.0" y="480.0" type="line" smooth="yes"/>
      <point x="97.0" y="524.0"/>
      <point x="97.0" y="594.0"/>
      <point x="93.0" y="612.0" type="curve" smooth="yes"/>
      <point x="81.0" y="657.0"/>
      <point x="35.0" y="661.0"/>
      <point x="-1.0" y="666.0" type="curve"/>
      <point x="-1.0" y="689.0" type="line"/>
      <point x="6.0" y="696.0" type="line"/>
      <point x="167.0" y="696.0"/>
      <point x="371.0" y="696.0"/>
      <point x="484.0" y="709.0" type="curve"/>
      <point x="497.0" y="704.0" type="line"/>
      <point x="497.0" y="642.0" type="line"/>
      <point x="485.0" y="631.0" type="line"/>
      <point x="408.0" y="636.0"/>
      <point x="258.0" y="645.0"/>
      <point x="257.0" y="645.0" type="curve" smooth="yes"/>
      <point x="221.0" y="645.0"/>
      <point x="222.0" y="622.0"/>
      <point x="222.0" y="595.0" type="curve" smooth="yes"/>
      <point x="222.0" y="415.0" type="line" smooth="yes"/>
      <point x="222.0" y="406.0"/>
      <point x="230.0" y="389.0"/>
      <point x="242.0" y="389.0" type="curve" smooth="yes"/>
      <point x="304.0" y="389.0"/>
      <point x="459.0" y="405.0"/>
      <point x="462.0" y="406.0" type="curve"/>
      <point x="463.0" y="406.0"/>
      <point x="471.0" y="401.0"/>
      <point x="475.0" y="398.0" type="curve"/>
      <point x="475.0" y="340.0" type="line"/>
      <point x="406.0" y="343.0"/>
      <point x="326.0" y="343.0"/>
      <point x="250.0" y="343.0" type="curve" smooth="yes"/>
      <point x="227.0" y="343.0"/>
      <point x="222.0" y="330.0"/>
      <point x="222.0" y="316.0" type="curve" smooth="yes"/>
      <point x="222.0" y="251.0"/>
      <point x="222.0" y="174.0"/>
      <point x="231.0" y="123.0" type="curve"/>
      <point x="236.0" y="82.0"/>
      <point x="257.0" y="61.0"/>
      <point x="298.0" y="61.0" type="curve" smooth="yes"/>
      <point x="313.0" y="61.0"/>
      <point x="583.0" y="76.0"/>
    </contour>
  </outline>
</glyph>
<glyph name="F" format="2">
  <advance width="509"/>
  <unicode hex="0046"/>
  <outline>
    <contour>
      <point x="232" y="23" type="curve"/>
      <point x="104" y="-12" type="line"/>
      <point x="92" y="-4" type="line"/>
      <point x="99" y="165"/>
      <point x="105" y="333"/>
      <point x="105" y="501" type="curve" smooth="yes"/>
      <point x="105" y="551"/>
      <point x="105" y="606"/>
      <point x="100" y="623" type="curve" smooth="yes"/>
      <point x="89" y="661"/>
      <point x="43" y="666"/>
      <point x="6" y="670" type="curve"/>
      <point x="6" y="690" type="line"/>
      <point x="14" y="698" type="line"/>
      <point x="175" y="698"/>
      <point x="413" y="698"/>
      <point x="488" y="706" type="curve"/>
      <point x="488" y="638" type="line"/>
      <point x="481" y="630" type="line"/>
      <point x="376" y="636"/>
      <point x="271" y="644"/>
      <point x="255" y="644" type="curve" smooth="yes"/>
      <point x="238" y="644"/>
      <point x="226" y="641"/>
      <point x="226" y="609" type="curve" smooth="yes"/>
      <point x="226" y="415" type="line" smooth="yes"/>
      <point x="226" y="402"/>
      <point x="232" y="389"/>
      <point x="243" y="389" type="curve" smooth="yes"/>
      <point x="317" y="389"/>
      <point x="394" y="401"/>
      <point x="468" y="406" type="curve"/>
      <point x="481" y="394" type="line"/>
      <point x="481" y="340" type="line"/>
      <point x="422" y="343"/>
      <point x="327" y="343"/>
      <point x="251" y="343" type="curve" smooth="yes"/>
      <point x="234" y="343"/>
      <point x="226" y="339"/>
      <point x="226" y="316" type="curve" smooth="yes"/>
      <point x="226" y="315"/>
      <point x="231" y="121"/>
    </contour>
  </outline>
</glyph>
<glyph name="G" format="2">
  <advance width="780"/>
  <unicode hex="0047"/>
  <outline>
    <contour>
      <point x="366.0" y="303.0" type="line"/>
      <point x="706.0" y="316.0" type="line"/>
      <point x="703.0" y="277.0"/>
      <point x="701.0" y="238.0"/>
      <point x="701.0" y="198.0" type="curve" smooth="yes"/>
      <point x="701.0" y="144.0"/>
      <point x="704.0" y="90.0"/>
      <point x="708.0" y="36.0" type="curve"/>
      <point x="609.0" y="10.0"/>
      <point x="508.0" y="-14.0"/>
      <point x="405.0" y="-14.0" type="curve" smooth="yes"/>
      <point x="315.0" y="-14.0"/>
      <point x="224.0" y="9.0"/>
      <point x="160.0" y="68.0" type="curve" smooth="yes"/>
      <point x="83.0" y="138.0"/>
      <point x="58.0" y="237.0"/>
      <point x="58.0" y="334.0" type="curve" smooth="yes"/>
      <point x="58.0" y="436.0"/>
      <point x="90.0" y="539.0"/>
      <point x="170.0" y="612.0" type="curve" smooth="yes"/>
      <point x="247.0" y="682.0"/>
      <point x="357.0" y="709.0"/>
      <point x="464.0" y="709.0" type="curve" smooth="yes"/>
      <point x="571.0" y="709.0"/>
      <point x="675.0" y="683.0"/>
      <point x="727.0" y="585.0" type="curve"/>
      <point x="630.0" y="495.0" type="line"/>
      <point x="612.0" y="503.0" type="line"/>
      <point x="587.0" y="582.0"/>
      <point x="535.0" y="661.0"/>
      <point x="433.0" y="661.0" type="curve" smooth="yes"/>
      <point x="256.0" y="661.0"/>
      <point x="204.0" y="486.0"/>
      <point x="204.0" y="353.0" type="curve" smooth="yes"/>
      <point x="204.0" y="204.0"/>
      <point x="275.0" y="39.0"/>
      <point x="481.0" y="39.0" type="curve" smooth="yes"/>
      <point x="504.0" y="39.0"/>
      <point x="528.0" y="39.0"/>
      <point x="551.0" y="42.0" type="curve" smooth="yes"/>
      <point x="585.0" y="45.0"/>
      <point x="575.0" y="96.0"/>
      <point x="575.0" y="146.0" type="curve" smooth="yes"/>
      <point x="575.0" y="221.0" type="line"/>
      <point x="569.0" y="266.0"/>
      <point x="529.0" y="255.0"/>
      <point x="366.0" y="266.0" type="curve"/>
    </contour>
  </outline>
</glyph>
<glyph name="H" format="2">
  <advance width="788"/>
  <unicode hex="0048"/>
  <outline>
    <contour>
      <point x="573.0" y="681.0" type="line"/>
      <point x="703.0" y="711.0" type="line"/>
      <point x="713.0" y="701.0" type="line"/>
      <point x="701.0" y="586.0"/>
      <point x="697.0" y="471.0"/>
      <point x="697.0" y="356.0" type="curve" smooth="yes"/>
      <point x="697.0" y="93.0"/>
      <point x="671.0" y="38.0"/>
      <point x="784.0" y="32.0" type="curve"/>
      <point x="784.0" y="8.0" type="line"/>
      <point x="778.0" y="-7.0" type="line"/>
      <point x="582.0" y="-7.0" type="line"/>
      <point x="559.0" y="14.0" type="line"/>
      <point x="569.0" y="113.0"/>
      <point x="573.0" y="212.0"/>
      <point x="573.0" y="312.0" type="curve" smooth="yes"/>
      <point x="573.0" y="337.0"/>
      <point x="555.0" y="339.0"/>
      <point x="537.0" y="339.0" type="curve" smooth="yes"/>
      <point x="249.0" y="339.0" type="line" smooth="yes"/>
      <point x="234.0" y="339.0"/>
      <point x="220.0" y="334.0"/>
      <point x="220.0" y="311.0" type="curve" smooth="yes"/>
      <point x="220.0" y="217.0"/>
      <point x="222.0" y="123.0"/>
      <point x="226.0" y="30.0" type="curve"/>
      <point x="101.0" y="-6.0" type="line"/>
      <point x="99.0" y="-3.0"/>
      <point x="94.0" y="2.0"/>
      <point x="94.0" y="3.0" type="curve" smooth="yes"/>
      <point x="99.0" y="122.0"/>
      <point x="99.0" y="240.0"/>
      <point x="99.0" y="359.0" type="curve" smooth="yes"/>
      <point x="99.0" y="612.0" type="line" smooth="yes"/>
      <point x="99.0" y="645.0"/>
      <point x="33.0" y="658.0"/>
      <point x="0.0" y="665.0" type="curve"/>
      <point x="0.0" y="688.0" type="line"/>
      <point x="8.0" y="698.0" type="line"/>
      <point x="222.0" y="698.0" type="line"/>
      <point x="230.0" y="690.0" type="line"/>
      <point x="225.0" y="595.0"/>
      <point x="219.0" y="496.0"/>
      <point x="219.0" y="413.0" type="curve" smooth="yes"/>
      <point x="219.0" y="394.0"/>
      <point x="234.0" y="388.0"/>
      <point x="250.0" y="388.0" type="curve" smooth="yes"/>
      <point x="539.0" y="388.0" type="line" smooth="yes"/>
      <point x="573.0" y="388.0"/>
      <point x="573.0" y="399.0"/>
      <point x="573.0" y="413.0" type="curve" smooth="yes"/>
    </contour>
  </outline>
</glyph>
<glyph name="I" format="1">
  <advance width="365"/>
  <unicode hex="0049"/>
  <outline>
    <contour>
      <point x="251" y="646"/>
      <point x="243" y="632"/>
      <point x="243" y="618" type="curve"/>
      <point x="242" y="367" type="line"/>
      <point x="242" y="280"/>
      <point x="242" y="158"/>
      <point x="245" y="106" type="curve" smooth="yes"/>
      <point x="247" y="80"/>
      <point x="258" y="50"/>
      <point x="288" y="44" type="curve" smooth="yes"/>
      <point x="352" y="30" type="line"/>
      <point x="352" y="1" type="line"/>
      <point x="13" y="1" type="line"/>
      <point x="13" y="29" type="line"/>
      <point x="87" y="45" type="line" smooth="yes"/>
      <point x="103" y="48"/>
      <point x="115" y="65"/>
      <point x="115" y="81" type="curve" smooth="yes"/>
      <point x="117" y="124"/>
      <point x="117" y="275"/>
      <point x="117" y="372" type="curve" smooth="yes"/>
      <point x="117" y="455"/>
      <point x="117" y="541"/>
      <point x="111" y="622" type="curve" smooth="yes"/>
      <point x="110" y="635"/>
      <point x="98" y="648"/>
      <point x="83" y="651" type="curve" smooth="yes"/>
      <point x="14" y="666" type="line"/>
      <point x="14" y="692" type="line"/>
      <point x="18" y="696" type="line"/>
      <point x="341" y="696" type="line"/>
      <point x="345" y="692" type="line"/>
      <point x="345" y="665" type="line"/>
      <point x="267" y="649" type="line" smooth="yes"/>
    </contour>
    <contour>
      <point x="328" y="10" type="move" name="ogonek"/>
    </contour>
    <contour>
      <point x="183" y="0" type="move" name="bottom"/>
    </contour>
    <contour>
      <point x="183" y="692" type="move" name="top"/>
    </contour>
  </outline>
</glyph>
<glyph name="J" format="2">
  <advance width="345"/>
  <unicode hex="004A"/>
  <outline>
    <contour>
      <point x="232.0" y="513.0" type="curve" smooth="yes"/>
      <point x="232.0" y="167.0" type="line" smooth="yes"/>
      <point x="232.0" y="9.0"/>
      <point x="212.0" y="-37.0"/>
      <point x="144.0" y="-92.0" type="curve" smooth="yes"/>
      <point x="96.0" y="-131.0"/>
      <point x="41.0" y="-164.0"/>
      <point x="-11.0" y="-192.0" type="curve"/>
      <point x="-28.0" y="-164.0" type="line"/>
      <point x="100.0" y="-83.0"/>
      <point x="107.0" y="-16.0"/>
      <point x="107.0" y="128.0" type="curve" smooth="yes"/>
      <point x="107.0" y="559.0" type="line" smooth="yes"/>
      <point x="107.0" y="583.0"/>
      <point x="107.0" y="609.0"/>
      <point x="104.0" y="631.0" type="curve" smooth="yes"/>
      <point x="99.0" y="667.0"/>
      <point x="38.0" y="670.0"/>
      <point x="0.0" y="670.0" type="curve"/>
      <point x="0.0" y="697.0" type="line"/>
      <point x="9.0" y="705.0" type="line"/>
      <point x="331.0" y="705.0" type="line"/>
      <point x="339.0" y="697.0" type="line"/>
      <point x="339.0" y="672.0" type="line"/>
      <point x="317.0" y="667.0"/>
      <point x="272.0" y="658.0"/>
      <point x="271.0" y="658.0" type="curve"/>
      <point x="225.0" y="645.0"/>
      <point x="232.0" y="581.0"/>
    </contour>
  </outline>
</glyph>
<glyph name="K" format="2">
  <advance width="690"/>
  <unicode hex="004B"/>
  <outline>
    <contour>
      <point x="249.0" y="387.0" type="line"/>
      <point x="545.0" y="702.0" type="line"/>
      <point x="651.0" y="702.0" type="line"/>
      <point x="651.0" y="687.0" type="line"/>
      <point x="350.0" y="407.0" type="line"/>
      <point x="347.0" y="405.0"/>
      <point x="345.0" y="399.0"/>
      <point x="345.0" y="397.0" type="curve" smooth="yes"/>
      <point x="345.0" y="393.0"/>
      <point x="347.0" y="388.0"/>
      <point x="348.0" y="388.0" type="curve"/>
      <point x="697.0" y="70.0" type="line"/>
      <point x="697.0" y="54.0" type="line"/>
      <point x="559.0" y="-5.0" type="line"/>
      <point x="460.0" y="108.0"/>
      <point x="357.0" y="219.0"/>
      <point x="247.0" y="324.0" type="curve"/>
      <point x="237.0" y="324.0" type="line"/>
      <point x="237.0" y="226.0"/>
      <point x="238.0" y="128.0"/>
      <point x="248.0" y="30.0" type="curve"/>
      <point x="118.0" y="-12.0" type="line"/>
      <point x="108.0" y="-2.0" type="line"/>
      <point x="112.0" y="111.0"/>
      <point x="113.0" y="225.0"/>
      <point x="113.0" y="338.0" type="curve" smooth="yes"/>
      <point x="113.0" y="430.0"/>
      <point x="113.0" y="584.0"/>
      <point x="111.0" y="614.0" type="curve" smooth="yes"/>
      <point x="108.0" y="648.0"/>
      <point x="59.0" y="655.0"/>
      <point x="15.0" y="665.0" type="curve"/>
      <point x="15.0" y="691.0" type="line"/>
      <point x="19.0" y="701.0" type="line"/>
      <point x="245.0" y="701.0" type="line"/>
      <point x="252.0" y="694.0" type="line"/>
      <point x="242.0" y="591.0"/>
      <point x="237.0" y="490.0"/>
      <point x="237.0" y="387.0" type="curve"/>
    </contour>
  </outline>
</glyph>
<glyph name="L" format="2">
  <advance width="533"/>
  <unicode hex="004C"/>
  <outline>
    <contour>
      <point x="545.0" y="75.0" type="curve"/>
      <point x="558.0" y="66.0" type="line"/>
      <point x="537.0" y="-5.0" type="line"/>
      <point x="447.0" y="0.0"/>
      <point x="226.0" y="0.0"/>
      <point x="70.0" y="0.0" type="curve"/>
      <point x="70.0" y="17.0" type="line"/>
      <point x="79.0" y="27.0"/>
      <point x="94.0" y="40.0"/>
      <point x="97.0" y="50.0" type="curve" smooth="yes"/>
      <point x="100.0" y="62.0"/>
      <point x="100.0" y="96.0"/>
      <point x="100.0" y="119.0" type="curve" smooth="yes"/>
      <point x="100.0" y="565.0" type="line" smooth="yes"/>
      <point x="100.0" y="588.0"/>
      <point x="99.0" y="606.0"/>
      <point x="95.0" y="629.0" type="curve"/>
      <point x="87.0" y="663.0"/>
      <point x="44.0" y="669.0"/>
      <point x="12.0" y="671.0" type="curve"/>
      <point x="12.0" y="694.0" type="line"/>
      <point x="20.0" y="702.0" type="line"/>
      <point x="315.0" y="702.0" type="line"/>
      <point x="323.0" y="694.0" type="line"/>
      <point x="323.0" y="667.0" type="line"/>
      <point x="227.0" y="657.0"/>
      <point x="225.0" y="640.0"/>
      <point x="225.0" y="544.0" type="curve" smooth="yes"/>
      <point x="225.0" y="253.0" type="line" smooth="yes"/>
      <point x="225.0" y="170.0"/>
      <point x="216.0" y="53.0"/>
      <point x="252.0" y="53.0" type="curve" smooth="yes"/>
      <point x="355.0" y="53.0"/>
      <point x="510.0" y="71.0"/>
    </contour>
  </outline>
</glyph>
<glyph name="M" format="1">
  <advance width="1074"/>
  <unicode hex="004D"/>
  <outline>
    <contour>
      <point x="185" y="533" type="curve"/>
      <point x="126" y="26" type="line"/>
      <point x="42" y="-2" type="line"/>
      <point x="28" y="3" type="line"/>
      <point x="103" y="360" type="line" smooth="yes"/>
      <point x="120" y="442"/>
      <point x="141" y="543"/>
      <point x="141" y="606" type="curve" smooth="yes"/>
      <point x="141" y="639"/>
      <point x="115" y="665"/>
      <point x="41" y="669" type="curve"/>
      <point x="41" y="693" type="line"/>
      <point x="49" y="701" type="line"/>
      <point x="274" y="701" type="line"/>
      <point x="339" y="520"/>
      <point x="409" y="341"/>
      <point x="497" y="167" type="curve" smooth="yes"/>
      <point x="498" y="165"/>
      <point x="501" y="163"/>
      <point x="503" y="163" type="curve" smooth="yes"/>
      <point x="505" y="163"/>
      <point x="508" y="165"/>
      <point x="510" y="167" type="curve"/>
      <point x="570" y="265"/>
      <point x="672" y="445"/>
      <point x="672" y="446" type="curve"/>
      <point x="716" y="528"/>
      <point x="758" y="610"/>
      <point x="785" y="698" type="curve"/>
      <point x="947" y="700" type="line"/>
      <point x="953" y="688" type="line"/>
      <point x="934" y="668" type="line" smooth="yes"/>
      <point x="924" y="658"/>
      <point x="924" y="642"/>
      <point x="924" y="595" type="curve" smooth="yes"/>
      <point x="924" y="449" type="line" smooth="yes"/>
      <point x="924" y="360"/>
      <point x="929" y="272"/>
      <point x="937" y="184" type="curve" smooth="yes"/>
      <point x="944" y="112"/>
      <point x="947" y="54"/>
      <point x="1004" y="54" type="curve" smooth="yes"/>
      <point x="1022" y="54"/>
      <point x="1047" y="56"/>
      <point x="1062" y="58" type="curve"/>
      <point x="1066" y="31" type="line"/>
      <point x="1050" y="31"/>
      <point x="910" y="-16"/>
      <point x="869" y="-16" type="curve" smooth="yes"/>
      <point x="830" y="-16"/>
      <point x="811" y="11"/>
      <point x="811" y="38" type="curve" smooth="yes"/>
      <point x="811" y="124"/>
      <point x="811" y="544"/>
      <point x="788" y="544" type="curve" smooth="yes"/>
      <point x="786" y="544"/>
      <point x="783" y="539"/>
      <point x="779" y="533" type="curve" smooth="yes"/>
      <point x="671" y="355"/>
      <point x="581" y="183"/>
      <point x="485" y="-1" type="curve"/>
      <point x="411" y="-1" type="line"/>
      <point x="345" y="181"/>
      <point x="282" y="354"/>
      <point x="202" y="532" type="curve" smooth="yes"/>
      <point x="200" y="536"/>
      <point x="196" y="539"/>
      <point x="193" y="539" type="curve" smooth="yes"/>
      <point x="189" y="539"/>
      <point x="185" y="536"/>
    </contour>
  </outline>
</glyph>
<glyph name="N" format="1">
  <advance width="808"/>
  <unicode hex="004E"/>
  <outline>
    <contour>
      <point x="6" y="691" type="line"/>
      <point x="14" y="699" type="line"/>
      <point x="213" y="699" type="line"/>
      <point x="348" y="531"/>
      <point x="495" y="370"/>
      <point x="645" y="211" type="curve"/>
      <point x="645" y="686" type="line"/>
      <point x="726" y="713" type="line"/>
      <point x="746" y="699" type="line"/>
      <point x="730" y="520"/>
      <point x="718" y="342"/>
      <point x="718" y="163" type="curve" smooth="yes"/>
      <point x="718" y="110"/>
      <point x="719" y="57"/>
      <point x="723" y="5" type="curve"/>
      <point x="648" y="5" type="line"/>
      <point x="185" y="520" type="line"/>
      <point x="185" y="34" type="line"/>
      <point x="103" y="-3" type="line"/>
      <point x="90" y="5" type="line"/>
      <point x="100" y="191"/>
      <point x="109" y="377"/>
      <point x="109" y="562" type="curve" smooth="yes"/>
      <point x="109" y="585"/>
      <point x="108" y="599"/>
      <point x="104" y="614" type="curve"/>
      <point x="93" y="646"/>
      <point x="36" y="661"/>
      <point x="6" y="669" type="curve"/>
    </contour>
    <contour>
      <point x="444" y="692" type="move" name="top"/>
    </contour>
  </outline>
</glyph>
<glyph name="O" format="2">
  <advance width="856"/>
  <unicode hex="004F"/>
  <outline>
    <contour>
      <point x="52.0" y="330.0" type="curve" smooth="yes"/>
      <point x="52.0" y="438.0"/>
      <point x="88.0" y="553.0"/>
      <point x="173.0" y="630.0" type="curve" smooth="yes"/>
      <point x="250.0" y="700.0"/>
      <point x="350.0" y="720.0"/>
      <point x="469.0" y="720.0" type="curve" smooth="yes"/>
      <point x="554.0" y="720.0"/>
      <point x="641.0" y="699.0"/>
      <point x="702.0" y="644.0" type="curve" smooth="yes"/>
      <point x="775.0" y="577.0"/>
      <point x="802.0" y="483.0"/>
      <point x="802.0" y="391.0" type="curve" smooth="yes"/>
      <point x="802.0" y="99.0"/>
      <point x="597.0" y="-15.0"/>
      <point x="369.0" y="-15.0" type="curve" smooth="yes"/>
      <point x="289.0" y="-15.0"/>
      <point x="209.0" y="7.0"/>
      <point x="152.0" y="59.0" type="curve" smooth="yes"/>
      <point x="78.0" y="127.0"/>
      <point x="52.0" y="233.0"/>
    </contour>
    <contour>
      <point x="190.0" y="366.0" type="curve" smooth="yes"/>
      <point x="190.0" y="229.0"/>
      <point x="251.0" y="31.0"/>
      <point x="434.0" y="31.0" type="curve" smooth="yes"/>
      <point x="610.0" y="31.0"/>
      <point x="659.0" y="187.0"/>
      <point x="659.0" y="325.0" type="curve" smooth="yes"/>
      <point x="659.0" y="464.0"/>
      <point x="613.0" y="680.0"/>
      <point x="427.0" y="680.0" type="curve" smooth="yes"/>
      <point x="265.0" y="680.0"/>
      <point x="190.0" y="506.0"/>
    </contour>
  </outline>
</glyph>
<glyph name="Q" format="2">
  <advance width="839"/>
  <unicode hex="0051"/>
  <outline>
    <contour>
      <point x="780.0" y="-141.0" type="curve"/>
      <point x="789.0" y="-170.0" type="line"/>
      <point x="730.0" y="-188.0"/>
      <point x="667.0" y="-197.0"/>
      <point x="604.0" y="-197.0" type="curve" smooth="yes"/>
      <point x="489.0" y="-197.0"/>
      <point x="406.0" y="-102.0"/>
      <point x="339.0" y="-20.0" type="curve"/>
      <point x="127.0" y="-11.0"/>
      <point x="46.0" y="159.0"/>
      <point x="46.0" y="318.0" type="curve" smooth="yes"/>
      <point x="46.0" y="427.0"/>
      <point x="75.0" y="538.0"/>
      <point x="161.0" y="616.0" type="curve" smooth="yes"/>
      <point x="238.0" y="686.0"/>
      <point x="350.0" y="714.0"/>
      <point x="459.0" y="714.0" type="curve" smooth="yes"/>
      <point x="545.0" y="714.0"/>
      <point x="633.0" y="691.0"/>
      <point x="695.0" y="635.0" type="curve" smooth="yes"/>
      <point x="770.0" y="567.0"/>
      <point x="795.0" y="470.0"/>
      <point x="795.0" y="375.0" type="curve" smooth="yes"/>
      <point x="795.0" y="147.0"/>
      <point x="676.0" y="39.0"/>
      <point x="511.0" y="-3.0" type="curve"/>
      <point x="505.0" y="-17.0" type="line"/>
      <point x="542.0" y="-75.0"/>
      <point x="598.0" y="-153.0"/>
      <point x="674.0" y="-153.0" type="curve" smooth="yes"/>
      <point x="712.0" y="-153.0"/>
      <point x="747.0" y="-147.0"/>
    </contour>
    <contour>
      <point x="424.0" y="26.0" type="curve" smooth="yes"/>
      <point x="617.0" y="26.0"/>
      <point x="656.0" y="195.0"/>
      <point x="656.0" y="348.0" type="curve" smooth="yes"/>
      <point x="656.0" y="511.0"/>
      <point x="587.0" y="668.0"/>
      <point x="422.0" y="668.0" type="curve" smooth="yes"/>
      <point x="245.0" y="668.0"/>
      <point x="188.0" y="488.0"/>
      <point x="188.0" y="352.0" type="curve" smooth="yes"/>
      <point x="188.0" y="221.0"/>
      <point x="246.0" y="26.0"/>
    </contour>
  </outline>
</glyph>
<glyph name="R" format="2">
  <advance width="614"/>
  <unicode hex="0052"/>
  <outline>
    <contour>
      <point x="224.0" y="325.0" type="curve"/>
      <point x="235.0" y="41.0" type="line"/>
      <point x="98.0" y="-8.0" type="line"/>
      <point x="89.0" y="1.0" type="line"/>
      <point x="98.0" y="156.0"/>
      <point x="102.0" y="311.0"/>
      <point x="102.0" y="466.0" type="curve" smooth="yes"/>
      <point x="102.0" y="519.0"/>
      <point x="102.0" y="602.0"/>
      <point x="99.0" y="624.0" type="curve" smooth="yes"/>
      <point x="94.0" y="664.0"/>
      <point x="41.0" y="668.0"/>
      <point x="8.0" y="670.0" type="curve"/>
      <point x="8.0" y="696.0" type="line"/>
      <point x="13.0" y="701.0" type="line"/>
      <point x="334.0" y="701.0" type="line" smooth="yes"/>
      <point x="487.0" y="701.0"/>
      <point x="572.0" y="655.0"/>
      <point x="572.0" y="552.0" type="curve" smooth="yes"/>
      <point x="572.0" y="504.0"/>
      <point x="559.0" y="451.0"/>
      <point x="521.0" y="417.0" type="curve" smooth="yes"/>
      <point x="480.0" y="380.0"/>
      <point x="428.0" y="365.0"/>
      <point x="374.0" y="351.0" type="curve"/>
      <point x="370.0" y="340.0" type="line"/>
      <point x="456.0" y="239.0"/>
      <point x="568.0" y="106.0"/>
      <point x="621.0" y="57.0" type="curve"/>
      <point x="624.0" y="41.0" type="line"/>
      <point x="507.0" y="-10.0" type="line"/>
      <point x="486.0" y="-8.0" type="line"/>
      <point x="237.0" y="323.0" type="line"/>
      <point x="236.0" y="324.0"/>
      <point x="232.0" y="325.0"/>
    </contour>
    <contour>
      <point x="224.0" y="366.0" type="curve"/>
      <point x="270.0" y="366.0"/>
      <point x="352.0" y="381.0"/>
      <point x="382.0" y="412.0" type="curve" smooth="yes"/>
      <point x="415.0" y="446.0"/>
      <point x="430.0" y="490.0"/>
      <point x="430.0" y="536.0" type="curve" smooth="yes"/>
      <point x="430.0" y="623.0"/>
      <point x="365.0" y="662.0"/>
      <point x="280.0" y="662.0" type="curve" smooth="yes"/>
      <point x="261.0" y="662.0"/>
      <point x="231.0" y="665.0"/>
      <point x="228.0" y="639.0" type="curve"/>
      <point x="227.0" y="635.0"/>
      <point x="224.0" y="458.0"/>
    </contour>
  </outline>
</glyph>
<glyph name="S" format="2">
  <advance width="575"/>
  <unicode hex="0053"/>
  <outline>
    <contour>
      <point x="461.0" y="548.0" type="line"/>
      <point x="444.0" y="553.0" type="line"/>
      <point x="435.0" y="619.0"/>
      <point x="392.0" y="685.0"/>
      <point x="310.0" y="685.0" type="curve" smooth="yes"/>
      <point x="246.0" y="685.0"/>
      <point x="206.0" y="639.0"/>
      <point x="206.0" y="584.0" type="curve" smooth="yes"/>
      <point x="206.0" y="498.0"/>
      <point x="289.0" y="453.0"/>
      <point x="363.0" y="416.0" type="curve" smooth="yes"/>
      <point x="480.0" y="356.0"/>
      <point x="554.0" y="308.0"/>
      <point x="554.0" y="213.0" type="curve" smooth="yes"/>
      <point x="554.0" y="76.0"/>
      <point x="388.0" y="-14.0"/>
      <point x="248.0" y="-14.0" type="curve" smooth="yes"/>
      <point x="167.0" y="-14.0"/>
      <point x="92.0" y="21.0"/>
      <point x="46.0" y="87.0" type="curve"/>
      <point x="143.0" y="196.0" type="line"/>
      <point x="162.0" y="189.0" type="line"/>
      <point x="162.0" y="114.0"/>
      <point x="216.0" y="35.0"/>
      <point x="305.0" y="35.0" type="curve" smooth="yes"/>
      <point x="377.0" y="35.0"/>
      <point x="433.0" y="95.0"/>
      <point x="433.0" y="158.0" type="curve" smooth="yes"/>
      <point x="433.0" y="196.0"/>
      <point x="408.0" y="227.0"/>
      <point x="379.0" y="254.0" type="curve" smooth="yes"/>
      <point x="307.0" y="320.0"/>
      <point x="95.0" y="373.0"/>
      <point x="95.0" y="520.0" type="curve" smooth="yes"/>
      <point x="95.0" y="665.0"/>
      <point x="224.0" y="723.0"/>
      <point x="355.0" y="723.0" type="curve" smooth="yes"/>
      <point x="457.0" y="723.0"/>
      <point x="525.0" y="697.0"/>
      <point x="556.0" y="622.0" type="curve"/>
    </contour>
  </outline>
</glyph>
<glyph name="T" format="2">
  <advance width="580"/>
  <unicode hex="0054"/>
  <outline>
    <contour>
      <point x="211.0" y="496.0" type="curve" smooth="yes"/>
      <point x="211.0" y="629.0" type="line" smooth="yes"/>
      <point x="211.0" y="643.0"/>
      <point x="200.0" y="648.0"/>
      <point x="186.0" y="647.0" type="curve" smooth="yes"/>
      <point x="-15.0" y="637.0" type="line"/>
      <point x="-24.0" y="646.0" type="line"/>
      <point x="-24.0" y="704.0" type="line"/>
      <point x="-16.0" y="712.0" type="line"/>
      <point x="80.0" y="710.0"/>
      <point x="176.0" y="703.0"/>
      <point x="272.0" y="703.0" type="curve" smooth="yes"/>
      <point x="372.0" y="703.0"/>
      <point x="472.0" y="710.0"/>
      <point x="572.0" y="714.0" type="curve"/>
      <point x="582.0" y="704.0" type="line"/>
      <point x="582.0" y="654.0" type="line"/>
      <point x="571.0" y="645.0" type="line"/>
      <point x="560.0" y="645.0"/>
      <point x="428.0" y="649.0"/>
      <point x="360.0" y="649.0" type="curve" smooth="yes"/>
      <point x="345.0" y="649.0"/>
      <point x="339.0" y="647.0"/>
      <point x="339.0" y="634.0" type="curve" smooth="yes"/>
      <point x="339.0" y="496.0" type="line" smooth="yes"/>
      <point x="339.0" y="341.0"/>
      <point x="346.0" y="185.0"/>
      <point x="356.0" y="30.0" type="curve"/>
      <point x="212.0" y="-11.0" type="line"/>
      <point x="203.0" y="1.0" type="line"/>
      <point x="208.0" y="166.0"/>
      <point x="211.0" y="331.0"/>
    </contour>
  </outline>
</glyph>
<glyph name="U" format="2">
  <advance width="793"/>
  <unicode hex="0055"/>
  <outline>
    <contour>
      <point x="541.0" y="671.0" type="curve"/>
      <point x="681.0" y="717.0" type="line"/>
      <point x="696.0" y="709.0" type="line"/>
      <point x="688.0" y="672.0"/>
      <point x="682.0" y="630.0"/>
      <point x="680.0" y="589.0" type="curve" smooth="yes"/>
      <point x="674.0" y="452.0"/>
      <point x="674.0" y="315.0"/>
      <point x="674.0" y="180.0" type="curve" smooth="yes"/>
      <point x="674.0" y="111.0"/>
      <point x="667.0" y="63.0"/>
      <point x="743.0" y="63.0" type="curve" smooth="yes"/>
      <point x="762.0" y="63.0"/>
      <point x="783.0" y="65.0"/>
      <point x="800.0" y="67.0" type="curve"/>
      <point x="801.0" y="49.0" type="line"/>
      <point x="793.0" y="39.0" type="line"/>
      <point x="636.0" y="-5.0" type="line" smooth="yes"/>
      <point x="623.0" y="-9.0"/>
      <point x="609.0" y="-10.0"/>
      <point x="596.0" y="-10.0" type="curve" smooth="yes"/>
      <point x="564.0" y="-10.0"/>
      <point x="553.0" y="15.0"/>
      <point x="547.0" y="39.0" type="curve"/>
      <point x="536.0" y="44.0" type="line"/>
      <point x="466.0" y="16.0"/>
      <point x="392.0" y="-8.0"/>
      <point x="317.0" y="-8.0" type="curve" smooth="yes"/>
      <point x="259.0" y="-8.0"/>
      <point x="198.0" y="0.0"/>
      <point x="157.0" y="38.0" type="curve" smooth="yes"/>
      <point x="100.0" y="90.0"/>
      <point x="89.0" y="185.0"/>
      <point x="89.0" y="260.0" type="curve" smooth="yes"/>
      <point x="89.0" y="334.0"/>
      <point x="96.0" y="436.0"/>
      <point x="96.0" y="524.0" type="curve" smooth="yes"/>
      <point x="96.0" y="561.0"/>
      <point x="96.0" y="584.0"/>
      <point x="92.0" y="622.0" type="curve"/>
      <point x="85.0" y="658.0"/>
      <point x="30.0" y="664.0"/>
      <point x="-8.0" y="670.0" type="curve"/>
      <point x="-8.0" y="696.0" type="line"/>
      <point x="-3.0" y="704.0" type="line"/>
      <point x="226.0" y="704.0" type="line"/>
      <point x="236.0" y="693.0" type="line"/>
      <point x="220.0" y="560.0"/>
      <point x="216.0" y="431.0"/>
      <point x="216.0" y="297.0" type="curve" smooth="yes"/>
      <point x="216.0" y="125.0"/>
      <point x="292.0" y="53.0"/>
      <point x="414.0" y="53.0" type="curve" smooth="yes"/>
      <point x="461.0" y="53.0"/>
      <point x="508.0" y="70.0"/>
      <point x="548.0" y="88.0" type="curve"/>
      <point x="548.0" y="283.0"/>
      <point x="548.0" y="560.0"/>
    </contour>
  </outline>
</glyph>
<glyph name="V" format="2">
  <advance width="745"/>
  <unicode hex="0056"/>
  <outline>
    <contour>
      <point x="642.0" y="697.0" type="curve"/>
      <point x="758.0" y="712.0" type="line"/>
      <point x="761.0" y="698.0" type="line"/>
      <point x="679.0" y="590.0"/>
      <point x="618.0" y="510.0"/>
      <point x="542.0" y="360.0" type="curve" smooth="yes"/>
      <point x="486.0" y="250.0"/>
      <point x="430.0" y="140.0"/>
      <point x="388.0" y="25.0" type="curve"/>
      <point x="291.0" y="-5.0" type="line"/>
      <point x="280.0" y="1.0" type="line"/>
      <point x="109.0" y="520.0" type="line" smooth="yes"/>
      <point x="96.0" y="560.0"/>
      <point x="77.0" y="616.0"/>
      <point x="62.0" y="638.0" type="curve" smooth="yes"/>
      <point x="45.0" y="663.0"/>
      <point x="-9.0" y="669.0"/>
      <point x="-19.0" y="669.0" type="curve"/>
      <point x="-19.0" y="696.0" type="line"/>
      <point x="-11.0" y="703.0" type="line"/>
      <point x="56.0" y="703.0"/>
      <point x="125.0" y="705.0"/>
      <point x="192.0" y="710.0" type="curve"/>
      <point x="243.0" y="518.0"/>
      <point x="294.0" y="345.0"/>
      <point x="371.0" y="178.0" type="curve"/>
      <point x="371.0" y="177.0"/>
      <point x="375.0" y="171.0"/>
      <point x="378.0" y="171.0" type="curve" smooth="yes"/>
      <point x="383.0" y="171.0"/>
      <point x="388.0" y="178.0"/>
      <point x="390.0" y="182.0" type="curve" smooth="yes"/>
      <point x="513.0" y="437.0" type="line" smooth="yes"/>
      <point x="552.0" y="519.0"/>
      <point x="597.0" y="611.0"/>
    </contour>
  </outline>
</glyph>
<glyph name="W" format="2">
  <advance width="1081"/>
  <unicode hex="0057"/>
  <outline>
    <contour>
      <point x="1138.0" y="699.0" type="line"/>
      <point x="1138.0" y="684.0" type="line"/>
      <point x="1004.0" y="471.0"/>
      <point x="895.0" y="246.0"/>
      <point x="791.0" y="19.0" type="curve"/>
      <point x="686.0" y="-16.0" type="line"/>
      <point x="672.0" y="-4.0" type="line"/>
      <point x="555.0" y="522.0" type="line"/>
      <point x="554.0" y="529.0"/>
      <point x="552.0" y="536.0"/>
      <point x="547.0" y="536.0" type="curve" smooth="yes"/>
      <point x="540.0" y="536.0"/>
      <point x="537.0" y="530.0"/>
      <point x="534.0" y="523.0" type="curve" smooth="yes"/>
      <point x="458.0" y="354.0"/>
      <point x="387.0" y="193.0"/>
      <point x="322.0" y="20.0" type="curve"/>
      <point x="222.0" y="-12.0" type="line"/>
      <point x="208.0" y="-2.0" type="line"/>
      <point x="208.0" y="-5.0"/>
      <point x="90.0" y="528.0"/>
      <point x="51.0" y="633.0" type="curve" smooth="yes"/>
      <point x="42.0" y="657.0"/>
      <point x="-15.0" y="670.0"/>
      <point x="-26.0" y="670.0" type="curve"/>
      <point x="-26.0" y="692.0" type="line"/>
      <point x="-18.0" y="701.0" type="line"/>
      <point x="180.0" y="701.0" type="line"/>
      <point x="212.0" y="524.0"/>
      <point x="255.0" y="348.0"/>
      <point x="303.0" y="174.0" type="curve" smooth="yes"/>
      <point x="304.0" y="170.0"/>
      <point x="307.0" y="168.0"/>
      <point x="310.0" y="168.0" type="curve" smooth="yes"/>
      <point x="314.0" y="168.0"/>
      <point x="317.0" y="174.0"/>
      <point x="319.0" y="177.0" type="curve"/>
      <point x="403.0" y="343.0"/>
      <point x="480.0" y="503.0"/>
      <point x="541.0" y="678.0" type="curve"/>
      <point x="644.0" y="699.0" type="line"/>
      <point x="651.0" y="694.0" type="line"/>
      <point x="676.0" y="516.0"/>
      <point x="728.0" y="334.0"/>
      <point x="772.0" y="151.0" type="curve" smooth="yes"/>
      <point x="773.0" y="146.0"/>
      <point x="777.0" y="136.0"/>
      <point x="781.0" y="136.0" type="curve" smooth="yes"/>
      <point x="785.0" y="136.0"/>
      <point x="788.0" y="139.0"/>
      <point x="792.0" y="147.0" type="curve" smooth="yes"/>
      <point x="872.0" y="316.0"/>
      <point x="962.0" y="508.0"/>
      <point x="1018.0" y="683.0" type="curve"/>
    </contour>
  </outline>
</glyph>
<glyph name="X" format="2">
  <advance width="652"/>
  <unicode hex="0058"/>
  <outline>
    <contour>
      <point x="360.0" y="448.0" type="line"/>
      <point x="552.0" y="684.0" type="line"/>
      <point x="665.0" y="700.0" type="line"/>
      <point x="665.0" y="673.0" type="line"/>
      <point x="563.0" y="604.0"/>
      <point x="463.0" y="485.0"/>
      <point x="383.0" y="387.0" type="curve"/>
      <point x="421.0" y="323.0"/>
      <point x="461.0" y="260.0"/>
      <point x="506.0" y="199.0" type="curve" smooth="yes"/>
      <point x="548.0" y="141.0"/>
      <point x="616.0" y="55.0"/>
      <point x="665.0" y="41.0" type="curve"/>
      <point x="665.0" y="23.0" type="line"/>
      <point x="497.0" y="-13.0" type="line"/>
      <point x="450.0" y="50.0"/>
      <point x="366.0" y="182.0"/>
      <point x="304.0" y="282.0" type="curve"/>
      <point x="288.0" y="282.0" type="line"/>
      <point x="238.0" y="224.0"/>
      <point x="146.0" y="100.0"/>
      <point x="94.0" y="19.0" type="curve"/>
      <point x="-11.0" y="-1.0" type="line"/>
      <point x="-11.0" y="25.0" type="line"/>
      <point x="268.0" y="338.0" type="line"/>
      <point x="88.0" y="623.0" type="line"/>
      <point x="69.0" y="648.0"/>
      <point x="26.0" y="657.0"/>
      <point x="-11.0" y="666.0" type="curve"/>
      <point x="-11.0" y="690.0" type="line"/>
      <point x="-3.0" y="699.0" type="line"/>
      <point x="198.0" y="705.0" type="line"/>
      <point x="243.0" y="617.0"/>
      <point x="295.0" y="531.0"/>
      <point x="346.0" y="448.0" type="curve"/>
    </contour>
  </outline>
</glyph>
<glyph name="Y" format="2">
  <advance width="594"/>
  <unicode hex="0059"/>
  <outline>
    <contour>
      <point x="632.0" y="695.0" type="line"/>
      <point x="349.0" y="323.0" type="line"/>
      <point x="349.0" y="224.0"/>
      <point x="353.0" y="129.0"/>
      <point x="358.0" y="28.0" type="curve"/>
      <point x="244.0" y="-4.0" type="line"/>
      <point x="226.0" y="5.0" type="line"/>
      <point x="228.0" y="107.0"/>
      <point x="232.0" y="296.0"/>
      <point x="232.0" y="297.0" type="curve"/>
      <point x="231.0" y="298.0"/>
      <point x="137.0" y="488.0"/>
      <point x="91.0" y="576.0" type="curve" smooth="yes"/>
      <point x="75.0" y="607.0"/>
      <point x="56.0" y="648.0"/>
      <point x="24.0" y="657.0" type="curve" smooth="yes"/>
      <point x="-22.0" y="669.0" type="line"/>
      <point x="-22.0" y="695.0" type="line"/>
      <point x="-14.0" y="704.0" type="line"/>
      <point x="169.0" y="704.0" type="line"/>
      <point x="176.0" y="687.0"/>
      <point x="269.0" y="503.0"/>
      <point x="319.0" y="402.0" type="curve" smooth="yes"/>
      <point x="321.0" y="398.0"/>
      <point x="327.0" y="396.0"/>
      <point x="331.0" y="396.0" type="curve" smooth="yes"/>
      <point x="336.0" y="396.0"/>
      <point x="339.0" y="397.0"/>
      <point x="343.0" y="401.0" type="curve"/>
      <point x="529.0" y="690.0" type="line"/>
      <point x="631.0" y="707.0" type="line"/>
    </contour>
  </outline>
</glyph>
<glyph name="Z" format="2">
  <advance width="670"/>
  <unicode hex="005A"/>
  <outline>
    <contour>
      <point x="427.0" y="629.0" type="curve"/>
      <point x="417.0" y="643.0" type="line"/>
      <point x="293.0" y="640.0"/>
      <point x="136.0" y="635.0"/>
      <point x="71.0" y="630.0" type="curve"/>
      <point x="63.0" y="638.0" type="line"/>
      <point x="63.0" y="702.0" type="line"/>
      <point x="72.0" y="709.0" type="line"/>
      <point x="249.0" y="699.0"/>
      <point x="429.0" y="697.0"/>
      <point x="604.0" y="697.0" type="curve"/>
      <point x="604.0" y="670.0" type="line"/>
      <point x="452.0" y="478.0"/>
      <point x="328.0" y="283.0"/>
      <point x="188.0" y="84.0" type="curve"/>
      <point x="187.0" y="83.0"/>
      <point x="186.0" y="81.0"/>
      <point x="186.0" y="80.0" type="curve" smooth="yes"/>
      <point x="186.0" y="71.0"/>
      <point x="196.0" y="64.0"/>
      <point x="206.0" y="64.0" type="curve" smooth="yes"/>
      <point x="350.0" y="65.0"/>
      <point x="494.0" y="72.0"/>
      <point x="638.0" y="80.0" type="curve"/>
      <point x="653.0" y="67.0" type="line"/>
      <point x="626.0" y="-11.0" type="line"/>
      <point x="499.0" y="0.0"/>
      <point x="195.0" y="0.0"/>
      <point x="-21.0" y="0.0" type="curve"/>
      <point x="-21.0" y="24.0" type="line"/>
      <point x="138.0" y="223.0"/>
      <point x="278.0" y="424.0"/>
    </contour>
  </outline>
</glyph>
<glyph name="bracketleft" format="2">
  <advance width="257"/>
  <unicode hex="005B"/>
  <outline>
    <contour>
      <point x="226.0" y="712.0" type="line"/>
      <point x="86.0" y="699.0" type="line"/>
      <point x="86.0" y="-100.0" type="line"/>
      <point x="226.0" y="-100.0" type="line"/>
      <point x="226.0" y="-119.0" type="line"/>
      <point x="162.0" y="-119.0"/>
      <point x="99.0" y="-124.0"/>
      <point x="36.0" y="-130.0" type="curve"/>
      <point x="36.0" y="741.0" type="line"/>
      <point x="82.0" y="736.0"/>
      <point x="162.0" y="736.0"/>
      <point x="226.0" y="736.0" type="curve"/>
    </contour>
  </outline>
</glyph>
<glyph name="backslash" format="2">
  <advance width="567"/>
  <unicode hex="005C"/>
  <outline>
    <contour>
      <point x="486.0" y="-194.0" type="line"/>
      <point x="43.0" y="709.0" type="line"/>
      <point x="89.0" y="728.0" type="line"/>
      <point x="528.0" y="-169.0" type="line"/>
    </contour>
  </outline>
</glyph>
<glyph name="bracketright" format="1">
  <advance width="301"/>
  <unicode hex="005D"/>
  <outline>
    <contour>
      <point x="161" y="700" type="line"/>
      <point x="17" y="709" type="line"/>
      <point x="17" y="733" type="line"/>
      <point x="82" y="733"/>
      <point x="155" y="733"/>
      <point x="211" y="739" type="curve"/>
      <point x="211" y="-132" type="line"/>
      <point x="147" y="-125"/>
      <point x="82" y="-124"/>
      <point x="17" y="-124" type="curve"/>
      <point x="17" y="-103" type="line"/>
      <point x="161" y="-92" type="line"/>
    </contour>
  </outline>
</glyph>
<glyph name="underscore" format="2">
  <advance width="893"/>
  <unicode hex="005F"/>
  <outline>
    <contour>
      <point x="893" y="-119" type="line"/>
      <point x="0" y="-119" type="line"/>
      <point x="0" y="-69" type="line"/>
      <point x="893" y="-69" type="line"/>
    </contour>
  </outline>
</glyph>
<glyph name="a" format="2">
  <advance width="585"/>
  <unicode hex="0061"/>
  <outline>
    <contour>
      <point x="506.0" y="493.0" type="line"/>
      <point x="520.0" y="484.0" type="line"/>
      <point x="511.0" y="393.0"/>
      <point x="504.0" y="302.0"/>
      <point x="504.0" y="211.0" type="curve" smooth="yes"/>
      <point x="504.0" y="122.0"/>
      <point x="504.0" y="73.0"/>
      <point x="537.0" y="73.0" type="curve" smooth="yes"/>
      <point x="559.0" y="73.0"/>
      <point x="587.0" y="97.0"/>
      <point x="607.0" y="115.0" type="curve"/>
      <point x="626.0" y="94.0" type="line"/>
      <point x="586.0" y="46.0"/>
      <point x="529.0" y="-12.0"/>
      <point x="461.0" y="-12.0" type="curve" smooth="yes"/>
      <point x="416.0" y="-12.0"/>
      <point x="403.0" y="24.0"/>
      <point x="399.0" y="54.0" type="curve"/>
      <point x="386.0" y="59.0" type="line"/>
      <point x="334.0" y="20.0"/>
      <point x="268.0" y="-15.0"/>
      <point x="200.0" y="-15.0" type="curve" smooth="yes"/>
      <point x="92.0" y="-15.0"/>
      <point x="58.0" y="108.0"/>
      <point x="58.0" y="191.0" type="curve" smooth="yes"/>
      <point x="58.0" y="393.0"/>
      <point x="141.0" y="498.0"/>
      <point x="300.0" y="498.0" type="curve" smooth="yes"/>
      <point x="354.0" y="498.0"/>
      <point x="402.0" y="482.0"/>
      <point x="446.0" y="455.0" type="curve"/>
    </contour>
    <contour>
      <point x="401.0" y="331.0" type="curve" smooth="yes"/>
      <point x="401.0" y="383.0"/>
      <point x="390.0" y="460.0"/>
      <point x="309.0" y="460.0" type="curve" smooth="yes"/>
      <point x="194.0" y="460.0"/>
      <point x="171.0" y="321.0"/>
      <point x="171.0" y="230.0" type="curve" smooth="yes"/>
      <point x="171.0" y="161.0"/>
      <point x="192.0" y="63.0"/>
      <point x="276.0" y="63.0" type="curve" smooth="yes"/>
      <point x="321.0" y="63.0"/>
      <point x="364.0" y="90.0"/>
      <point x="393.0" y="117.0" type="curve"/>
      <point x="399.0" y="161.0"/>
      <point x="401.0" y="263.0"/>
    </contour>
  </outline>
</glyph>
<glyph name="b" format="2">
  <advance width="613"/>
  <unicode hex="0062"/>
  <outline>
    <contour>
      <point x="209.0" y="693.0" type="line"/>
      <point x="202.0" y="418.0" type="line"/>
      <point x="213.0" y="415.0" type="line"/>
      <point x="265.0" y="458.0"/>
      <point x="328.0" y="493.0"/>
      <point x="399.0" y="493.0" type="curve" smooth="yes"/>
      <point x="515.0" y="493.0"/>
      <point x="557.0" y="386.0"/>
      <point x="557.0" y="296.0" type="curve" smooth="yes"/>
      <point x="557.0" y="213.0"/>
      <point x="528.0" y="129.0"/>
      <point x="461.0" y="72.0" type="curve" smooth="yes"/>
      <point x="402.0" y="22.0"/>
      <point x="329.0" y="-14.0"/>
      <point x="248.0" y="-14.0" type="curve" smooth="yes"/>
      <point x="168.0" y="-14.0"/>
      <point x="93.0" y="27.0"/>
      <point x="93.0" y="161.0" type="curve" smooth="yes"/>
      <point x="93.0" y="507.0" type="line" smooth="yes"/>
      <point x="93.0" y="546.0"/>
      <point x="91.0" y="572.0"/>
      <point x="91.0" y="602.0" type="curve" smooth="yes"/>
      <point x="91.0" y="632.0"/>
      <point x="57.0" y="641.0"/>
      <point x="-3.0" y="646.0" type="curve"/>
      <point x="-3.0" y="668.0" type="line"/>
      <point x="6.0" y="677.0" type="line"/>
      <point x="194.0" y="705.0" type="line"/>
    </contour>
    <contour>
      <point x="202.0" y="367.0" type="curve"/>
      <point x="199.0" y="233.0" type="line"/>
      <point x="199.0" y="150.0"/>
      <point x="214.0" y="38.0"/>
      <point x="297.0" y="38.0" type="curve" smooth="yes"/>
      <point x="407.0" y="38.0"/>
      <point x="438.0" y="151.0"/>
      <point x="438.0" y="238.0" type="curve" smooth="yes"/>
      <point x="438.0" y="311.0"/>
      <point x="425.0" y="419.0"/>
      <point x="319.0" y="419.0" type="curve" smooth="yes"/>
      <point x="276.0" y="419.0"/>
      <point x="235.0" y="391.0"/>
    </contour>
  </outline>
</glyph>
<glyph name="c" format="1">
  <advance width="475"/>
  <unicode hex="0063"/>
  <outline>
    <contour>
      <point x="455" y="379" type="curve"/>
      <point x="363" y="324" type="line"/>
      <point x="346" y="331" type="line"/>
      <point x="346" y="393"/>
      <point x="323" y="456"/>
      <point x="258" y="456" type="curve" smooth="yes"/>
      <point x="171" y="456"/>
      <point x="147" y="317"/>
      <point x="147" y="248" type="curve" smooth="yes"/>
      <point x="147" y="173"/>
      <point x="178" y="59"/>
      <point x="283" y="59" type="curve" smooth="yes"/>
      <point x="340" y="59"/>
      <point x="397" y="89"/>
      <point x="448" y="128" type="curve"/>
      <point x="460" y="125" type="line"/>
      <point x="470" y="111" type="line"/>
      <point x="402" y="43"/>
      <point x="314" y="-10"/>
      <point x="212" y="-10" type="curve" smooth="yes"/>
      <point x="80" y="-10"/>
      <point x="29" y="94"/>
      <point x="29" y="193" type="curve" smooth="yes"/>
      <point x="29" y="338"/>
      <point x="100" y="496"/>
      <point x="299" y="496" type="curve" smooth="yes"/>
      <point x="374" y="496"/>
      <point x="449" y="469"/>
    </contour>
    <contour>
      <point x="278" y="486" type="move" name="top"/>
    </contour>
    <contour>
      <point x="246" y="0" type="move" name="bottom"/>
    </contour>
  </outline>
</glyph>
<glyph name="d" format="1">
  <advance width="608"/>
  <unicode hex="0064"/>
  <outline>
    <contour>
      <point x="303" y="678" type="line"/>
      <point x="494" y="699" type="line"/>
      <point x="503" y="693" type="line"/>
      <point x="495" y="577"/>
      <point x="491" y="535"/>
      <point x="491" y="436" type="curve"/>
      <point x="490" y="143" type="line"/>
      <point x="490" y="118"/>
      <point x="497" y="75"/>
      <point x="526" y="75" type="curve" smooth="yes"/>
      <point x="545" y="75"/>
      <point x="580" y="98"/>
      <point x="597" y="112" type="curve"/>
      <point x="614" y="90" type="line"/>
      <point x="570" y="45"/>
      <point x="510" y="-11"/>
      <point x="449" y="-11" type="curve" smooth="yes"/>
      <point x="403" y="-11"/>
      <point x="387" y="29"/>
      <point x="384" y="65" type="curve"/>
      <point x="329" y="27"/>
      <point x="261" y="-10"/>
      <point x="192" y="-10" type="curve" smooth="yes"/>
      <point x="68" y="-10"/>
      <point x="30" y="106"/>
      <point x="30" y="193" type="curve" smooth="yes"/>
      <point x="30" y="370"/>
      <point x="129" y="495"/>
      <point x="287" y="495" type="curve" smooth="yes"/>
      <point x="317" y="495"/>
      <point x="349" y="493"/>
      <point x="378" y="483" type="curve"/>
      <point x="385" y="488" type="line"/>
      <point x="385" y="581" type="line" smooth="yes"/>
      <point x="385" y="636"/>
      <point x="355" y="636"/>
      <point x="289" y="645" type="curve"/>
      <point x="289" y="669" type="line"/>
    </contour>
    <contour>
      <point x="385" y="113" type="curve"/>
      <point x="385" y="362" type="line" smooth="yes"/>
      <point x="385" y="440"/>
      <point x="353" y="456"/>
      <point x="307" y="456" type="curve" smooth="yes"/>
      <point x="186" y="456"/>
      <point x="153" y="329"/>
      <point x="153" y="236" type="curve" smooth="yes"/>
      <point x="153" y="162"/>
      <point x="173" y="63"/>
      <point x="266" y="63" type="curve" smooth="yes"/>
      <point x="314" y="63"/>
      <point x="352" y="87"/>
    </contour>
  </outline>
</glyph>
<glyph name="e" format="2">
  <advance width="527"/>
  <unicode hex="0065"/>
  <outline>
    <contour>
      <point x="190.0" y="258.0" type="curve"/>
      <point x="375.0" y="317.0"/>
      <point x="405.0" y="315.0"/>
      <point x="405.0" y="344.0" type="curve" smooth="yes"/>
      <point x="405.0" y="395.0"/>
      <point x="379.0" y="455.0"/>
      <point x="314.0" y="455.0" type="curve" smooth="yes"/>
      <point x="206.0" y="455.0"/>
      <point x="177.0" y="335.0"/>
      <point x="177.0" y="262.0" type="curve" smooth="yes"/>
      <point x="177.0" y="258.0"/>
      <point x="180.0" y="257.0"/>
      <point x="184.0" y="257.0" type="curve" smooth="yes"/>
      <point x="186.0" y="257.0"/>
      <point x="188.0" y="258.0"/>
    </contour>
    <contour>
      <point x="492.0" y="101.0" type="line"/>
      <point x="503.0" y="82.0" type="line"/>
      <point x="437.0" y="35.0"/>
      <point x="356.0" y="-16.0"/>
      <point x="274.0" y="-16.0" type="curve" smooth="yes"/>
      <point x="217.0" y="-16.0"/>
      <point x="158.0" y="-2.0"/>
      <point x="118.0" y="35.0" type="curve" smooth="yes"/>
      <point x="70.0" y="79.0"/>
      <point x="57.0" y="143.0"/>
      <point x="57.0" y="204.0" type="curve" smooth="yes"/>
      <point x="57.0" y="351.0"/>
      <point x="148.0" y="495.0"/>
      <point x="337.0" y="495.0" type="curve" smooth="yes"/>
      <point x="431.0" y="495.0"/>
      <point x="528.0" y="459.0"/>
      <point x="528.0" y="349.0" type="curve" smooth="yes"/>
      <point x="528.0" y="328.0"/>
      <point x="518.0" y="318.0"/>
      <point x="499.0" y="312.0" type="curve"/>
      <point x="498.0" y="312.0"/>
      <point x="284.0" y="246.0"/>
      <point x="177.0" y="213.0" type="curve"/>
      <point x="177.0" y="133.0"/>
      <point x="228.0" y="52.0"/>
      <point x="325.0" y="52.0" type="curve" smooth="yes"/>
      <point x="380.0" y="52.0"/>
      <point x="431.0" y="77.0"/>
      <point x="477.0" y="105.0" type="curve"/>
    </contour>
  </outline>
</glyph>
<glyph name="f" format="2">
  <advance width="356"/>
  <unicode hex="0066"/>
  <outline>
    <contour>
      <point x="221.0" y="392.0" type="line"/>
      <point x="221.0" y="266.0"/>
      <point x="230.0" y="128.0"/>
      <point x="237.0" y="18.0" type="curve"/>
      <point x="128.0" y="-10.0" type="line"/>
      <point x="111.0" y="-1.0" type="line"/>
      <point x="115.0" y="102.0"/>
      <point x="118.0" y="261.0"/>
      <point x="118.0" y="391.0" type="curve"/>
      <point x="109.0" y="400.0" type="line"/>
      <point x="-2.0" y="400.0" type="line"/>
      <point x="-7.0" y="408.0" type="line"/>
      <point x="3.0" y="437.0" type="line"/>
      <point x="14.0" y="444.0" type="line"/>
      <point x="110.0" y="444.0" type="line"/>
      <point x="118.0" y="454.0" type="line"/>
      <point x="128.0" y="668.0"/>
      <point x="251.0" y="686.0"/>
      <point x="308.0" y="686.0" type="curve" smooth="yes"/>
      <point x="327.0" y="686.0"/>
      <point x="391.0" y="679.0"/>
      <point x="425.0" y="609.0" type="curve"/>
      <point x="355.0" y="558.0" type="line"/>
      <point x="339.0" y="565.0" type="line"/>
      <point x="339.0" y="613.0"/>
      <point x="305.0" y="644.0"/>
      <point x="284.0" y="644.0" type="curve" smooth="yes"/>
      <point x="264.0" y="644.0"/>
      <point x="236.0" y="617.0"/>
      <point x="227.0" y="571.0" type="curve" smooth="yes"/>
      <point x="221.0" y="543.0"/>
      <point x="221.0" y="517.0"/>
      <point x="221.0" y="454.0" type="curve"/>
      <point x="230.0" y="445.0" type="line"/>
      <point x="356.0" y="445.0" type="line"/>
      <point x="362.0" y="435.0" type="line"/>
      <point x="353.0" y="409.0" type="line"/>
      <point x="341.0" y="400.0" type="line"/>
      <point x="230.0" y="400.0" type="line"/>
    </contour>
  </outline>
</glyph>
<glyph name="g" format="2">
  <advance width="598"/>
  <unicode hex="0067"/>
  <outline>
    <contour>
      <point x="501.0" y="127.0" type="curve" smooth="yes"/>
      <point x="501.0" y="51.0"/>
      <point x="498.0" y="5.0"/>
      <point x="486.0" y="-45.0" type="curve" smooth="yes"/>
      <point x="456.0" y="-172.0"/>
      <point x="329.0" y="-242.0"/>
      <point x="206.0" y="-242.0" type="curve" smooth="yes"/>
      <point x="149.0" y="-242.0"/>
      <point x="82.0" y="-213.0"/>
      <point x="46.0" y="-171.0" type="curve"/>
      <point x="106.0" y="-92.0" type="line"/>
      <point x="127.0" y="-92.0" type="line"/>
      <point x="158.0" y="-146.0"/>
      <point x="200.0" y="-192.0"/>
      <point x="251.0" y="-192.0" type="curve" smooth="yes"/>
      <point x="290.0" y="-192.0"/>
      <point x="327.0" y="-174.0"/>
      <point x="347.0" y="-147.0" type="curve" smooth="yes"/>
      <point x="390.0" y="-89.0"/>
      <point x="394.0" y="-54.0"/>
      <point x="396.0" y="55.0" type="curve"/>
      <point x="333.0" y="14.0"/>
      <point x="269.0" y="-19.0"/>
      <point x="195.0" y="-19.0" type="curve" smooth="yes"/>
      <point x="62.0" y="-19.0"/>
      <point x="51.0" y="128.0"/>
      <point x="51.0" y="214.0" type="curve" smooth="yes"/>
      <point x="51.0" y="386.0"/>
      <point x="144.0" y="495.0"/>
      <point x="298.0" y="495.0" type="curve" smooth="yes"/>
      <point x="351.0" y="495.0"/>
      <point x="390.0" y="483.0"/>
      <point x="430.0" y="456.0" type="curve"/>
      <point x="492.0" y="481.0" type="line"/>
      <point x="505.0" y="477.0" type="line"/>
      <point x="501.0" y="405.0"/>
      <point x="501.0" y="388.0"/>
    </contour>
    <contour>
      <point x="396.0" y="114.0" type="curve"/>
      <point x="396.0" y="373.0" type="line" smooth="yes"/>
      <point x="396.0" y="429.0"/>
      <point x="344.0" y="454.0"/>
      <point x="308.0" y="454.0" type="curve" smooth="yes"/>
      <point x="208.0" y="454.0"/>
      <point x="167.0" y="371.0"/>
      <point x="167.0" y="269.0" type="curve" smooth="yes"/>
      <point x="167.0" y="189.0"/>
      <point x="176.0" y="58.0"/>
      <point x="276.0" y="58.0" type="curve" smooth="yes"/>
      <point x="320.0" y="58.0"/>
      <point x="370.0" y="80.0"/>
    </contour>
  </outline>
</glyph>
<glyph name="h" format="2">
  <advance width="585"/>
  <unicode hex="0068"/>
  <outline>
    <contour>
      <point x="186.0" y="380.0" type="curve"/>
      <point x="186.0" y="262.0"/>
      <point x="186.0" y="90.0"/>
      <point x="194.0" y="25.0" type="curve"/>
      <point x="89.0" y="-7.0" type="line"/>
      <point x="76.0" y="4.0" type="line"/>
      <point x="81.0" y="110.0"/>
      <point x="81.0" y="218.0"/>
      <point x="81.0" y="325.0" type="curve" smooth="yes"/>
      <point x="81.0" y="418.0"/>
      <point x="80.0" y="588.0"/>
      <point x="76.0" y="604.0" type="curve" smooth="yes"/>
      <point x="67.0" y="635.0"/>
      <point x="53.0" y="637.0"/>
      <point x="-14.0" y="641.0" type="curve"/>
      <point x="-14.0" y="668.0" type="line"/>
      <point x="-2.0" y="676.0" type="line"/>
      <point x="184.0" y="696.0" type="line"/>
      <point x="186.0" y="686.0" type="line"/>
      <point x="186.0" y="433.0" type="line"/>
      <point x="195.0" y="426.0" type="line"/>
      <point x="254.0" y="460.0"/>
      <point x="325.0" y="497.0"/>
      <point x="390.0" y="497.0" type="curve" smooth="yes"/>
      <point x="486.0" y="497.0"/>
      <point x="497.0" y="413.0"/>
      <point x="497.0" y="348.0" type="curve" smooth="yes"/>
      <point x="497.0" y="316.0"/>
      <point x="489.0" y="252.0"/>
      <point x="489.0" y="188.0" type="curve" smooth="yes"/>
      <point x="489.0" y="125.0"/>
      <point x="499.0" y="88.0"/>
      <point x="535.0" y="88.0" type="curve" smooth="yes"/>
      <point x="563.0" y="88.0"/>
      <point x="584.0" y="106.0"/>
      <point x="603.0" y="123.0" type="curve"/>
      <point x="618.0" y="112.0" type="line"/>
      <point x="620.0" y="100.0" type="line"/>
      <point x="582.0" y="56.0"/>
      <point x="528.0" y="-8.0"/>
      <point x="474.0" y="-8.0" type="curve" smooth="yes"/>
      <point x="403.0" y="-8.0"/>
      <point x="383.0" y="42.0"/>
      <point x="383.0" y="155.0" type="curve" smooth="yes"/>
      <point x="383.0" y="215.0"/>
      <point x="388.0" y="265.0"/>
      <point x="388.0" y="310.0" type="curve" smooth="yes"/>
      <point x="388.0" y="400.0"/>
      <point x="361.0" y="428.0"/>
      <point x="303.0" y="428.0" type="curve" smooth="yes"/>
      <point x="267.0" y="428.0"/>
      <point x="218.0" y="404.0"/>
    </contour>
  </outline>
</glyph>
<glyph name="i" format="2">
  <advance width="344"/>
  <unicode hex="0069"/>
  <outline>
    <contour>
      <point x="100" y="621" type="curve" smooth="yes"/>
      <point x="100" y="657"/>
      <point x="130" y="687"/>
      <point x="166" y="687" type="curve" smooth="yes"/>
      <point x="202" y="687"/>
      <point x="232" y="657"/>
      <point x="232" y="621" type="curve" smooth="yes"/>
      <point x="232" y="585"/>
      <point x="202" y="555"/>
      <point x="166" y="555" type="curve" smooth="yes"/>
      <point x="130" y="555"/>
      <point x="100" y="585"/>
    </contour>
    <contour>
      <point x="331" y="119" type="curve"/>
      <point x="348" y="103" type="line"/>
      <point x="348" y="92" type="line"/>
      <point x="310" y="45"/>
      <point x="252" y="-13"/>
      <point x="192" y="-13" type="curve" smooth="yes"/>
      <point x="168" y="-13"/>
      <point x="145" y="-3"/>
      <point x="132" y="15" type="curve" smooth="yes"/>
      <point x="105" y="50"/>
      <point x="113" y="101"/>
      <point x="113" y="254" type="curve" smooth="yes"/>
      <point x="113" y="371" type="line"/>
      <point x="111" y="392"/>
      <point x="106" y="420"/>
      <point x="78" y="420" type="curve" smooth="yes"/>
      <point x="56" y="420"/>
      <point x="33" y="405"/>
      <point x="9" y="388" type="curve"/>
      <point x="-7" y="410" type="line"/>
      <point x="39" y="447"/>
      <point x="100" y="493"/>
      <point x="158" y="493" type="curve" smooth="yes"/>
      <point x="178" y="493"/>
      <point x="198" y="486"/>
      <point x="208" y="470" type="curve" smooth="yes"/>
      <point x="216" y="457"/>
      <point x="220" y="445"/>
      <point x="220" y="386" type="curve" smooth="yes"/>
      <point x="220" y="346"/>
      <point x="217" y="305"/>
      <point x="217" y="265" type="curve" smooth="yes"/>
      <point x="217" y="143"/>
      <point x="207" y="72"/>
      <point x="260" y="72" type="curve" smooth="yes"/>
      <point x="284" y="72"/>
      <point x="311" y="99"/>
    </contour>
  </outline>
</glyph>
<glyph name="j" format="2">
  <advance width="295"/>
  <unicode hex="006A"/>
  <outline>
    <contour>
      <point x="87.0" y="621.0" type="curve" smooth="yes"/>
      <point x="87.0" y="657.0"/>
      <point x="117.0" y="687.0"/>
      <point x="153.0" y="687.0" type="curve" smooth="yes"/>
      <point x="189.0" y="687.0"/>
      <point x="219.0" y="657.0"/>
      <point x="219.0" y="621.0" type="curve" smooth="yes"/>
      <point x="219.0" y="585.0"/>
      <point x="189.0" y="555.0"/>
      <point x="153.0" y="555.0" type="curve" smooth="yes"/>
      <point x="117.0" y="555.0"/>
      <point x="87.0" y="585.0"/>
    </contour>
    <contour>
      <point x="-2.0" y="389.0" type="curve"/>
      <point x="-18.0" y="411.0" type="line"/>
      <point x="27.0" y="445.0"/>
      <point x="88.0" y="493.0"/>
      <point x="141.0" y="493.0" type="curve" smooth="yes"/>
      <point x="224.0" y="493.0"/>
      <point x="211.0" y="417.0"/>
      <point x="211.0" y="256.0" type="curve" smooth="yes"/>
      <point x="211.0" y="191.0"/>
      <point x="211.0" y="81.0"/>
      <point x="206.0" y="27.0" type="curve" smooth="yes"/>
      <point x="194.0" y="-85.0"/>
      <point x="72.0" y="-180.0"/>
      <point x="-31.0" y="-246.0" type="curve"/>
      <point x="-58.0" y="-227.0" type="line"/>
      <point x="23.0" y="-166.0"/>
      <point x="95.0" y="-101.0"/>
      <point x="102.0" y="0.0" type="curve" smooth="yes"/>
      <point x="104.0" y="32.0"/>
      <point x="105.0" y="78.0"/>
      <point x="105.0" y="125.0" type="curve" smooth="yes"/>
      <point x="105.0" y="275.0"/>
      <point x="121.0" y="420.0"/>
      <point x="67.0" y="420.0" type="curve" smooth="yes"/>
      <point x="45.0" y="420.0"/>
      <point x="18.0" y="405.0"/>
    </contour>
  </outline>
</glyph>
<glyph name="k" format="2">
  <advance width="531"/>
  <unicode hex="006B"/>
  <outline>
    <contour>
      <point x="203.0" y="253.0" type="line"/>
      <point x="203.0" y="25.0" type="line"/>
      <point x="106.0" y="-6.0" type="line"/>
      <point x="90.0" y="3.0" type="line"/>
      <point x="93.0" y="93.0"/>
      <point x="93.0" y="243.0"/>
      <point x="93.0" y="363.0" type="curve" smooth="yes"/>
      <point x="93.0" y="540.0" type="line" smooth="yes"/>
      <point x="93.0" y="562.0"/>
      <point x="92.0" y="584.0"/>
      <point x="87.0" y="605.0" type="curve" smooth="yes"/>
      <point x="80.0" y="636.0"/>
      <point x="64.0" y="638.0"/>
      <point x="-10.0" y="645.0" type="curve"/>
      <point x="-10.0" y="674.0" type="line"/>
      <point x="0.0" y="681.0" type="line"/>
      <point x="201.0" y="698.0" type="line"/>
      <point x="209.0" y="693.0" type="line"/>
      <point x="208.0" y="654.0"/>
      <point x="201.0" y="418.0"/>
      <point x="198.0" y="294.0" type="curve"/>
      <point x="212.0" y="294.0" type="line"/>
      <point x="300.0" y="366.0"/>
      <point x="376.0" y="451.0"/>
      <point x="471.0" y="515.0" type="curve"/>
      <point x="530.0" y="478.0" type="line"/>
      <point x="529.0" y="466.0" type="line"/>
      <point x="443.0" y="420.0"/>
      <point x="358.0" y="370.0"/>
      <point x="282.0" y="312.0" type="curve"/>
      <point x="343.0" y="224.0"/>
      <point x="442.0" y="89.0"/>
      <point x="480.0" y="89.0" type="curve" smooth="yes"/>
      <point x="507.0" y="89.0"/>
      <point x="526.0" y="103.0"/>
      <point x="551.0" y="125.0" type="curve"/>
      <point x="573.0" y="101.0" type="line"/>
      <point x="468.0" y="-19.0"/>
      <point x="459.0" y="-2.0"/>
      <point x="440.0" y="-2.0" type="curve" smooth="yes"/>
      <point x="360.0" y="-2.0"/>
      <point x="280.0" y="176.0"/>
      <point x="212.0" y="262.0" type="curve"/>
    </contour>
  </outline>
</glyph>
<glyph name="l" format="2">
  <advance width="298"/>
  <unicode hex="006C"/>
  <outline>
    <contour>
      <point x="201.0" y="685.0" type="line"/>
      <point x="193.0" y="231.0" type="line"/>
      <point x="193.0" y="218.0"/>
      <point x="192.0" y="203.0"/>
      <point x="192.0" y="188.0" type="curve" smooth="yes"/>
      <point x="192.0" y="117.0"/>
      <point x="196.0" y="78.0"/>
      <point x="230.0" y="78.0" type="curve" smooth="yes"/>
      <point x="258.0" y="78.0"/>
      <point x="284.0" y="101.0"/>
      <point x="304.0" y="123.0" type="curve"/>
      <point x="316.0" y="123.0" type="line"/>
      <point x="332.0" y="107.0" type="line"/>
      <point x="294.0" y="56.0"/>
      <point x="234.0" y="-7.0"/>
      <point x="169.0" y="-7.0" type="curve" smooth="yes"/>
      <point x="84.0" y="-7.0"/>
      <point x="84.0" y="62.0"/>
      <point x="84.0" y="124.0" type="curve" smooth="yes"/>
      <point x="84.0" y="200.0"/>
      <point x="88.0" y="276.0"/>
      <point x="88.0" y="358.0" type="curve" smooth="yes"/>
      <point x="88.0" y="414.0"/>
      <point x="88.0" y="472.0"/>
      <point x="87.0" y="527.0" type="curve" smooth="yes"/>
      <point x="86.0" y="556.0"/>
      <point x="86.0" y="597.0"/>
      <point x="82.0" y="614.0" type="curve" smooth="yes"/>
      <point x="74.0" y="649.0"/>
      <point x="34.0" y="647.0"/>
      <point x="-8.0" y="649.0" type="curve"/>
      <point x="-8.0" y="672.0" type="line"/>
      <point x="4.0" y="680.0" type="line"/>
      <point x="188.0" y="697.0" type="line"/>
    </contour>
  </outline>
</glyph>
<glyph name="m" format="1">
  <advance width="965"/>
  <unicode hex="006D"/>
  <outline>
    <contour>
      <point x="227" y="383" type="curve"/>
      <point x="227" y="264"/>
      <point x="228" y="64"/>
      <point x="233" y="26" type="curve"/>
      <point x="132" y="-8" type="line"/>
      <point x="115" y="0" type="line"/>
      <point x="119" y="92"/>
      <point x="122" y="247"/>
      <point x="122" y="290" type="curve" smooth="yes"/>
      <point x="122" y="357"/>
      <point x="123" y="419"/>
      <point x="83" y="419" type="curve" smooth="yes"/>
      <point x="60" y="419"/>
      <point x="33" y="404"/>
      <point x="11" y="389" type="curve"/>
      <point x="-8" y="413" type="line"/>
      <point x="38" y="449"/>
      <point x="97" y="492"/>
      <point x="152" y="492" type="curve" smooth="yes"/>
      <point x="200" y="492"/>
      <point x="220" y="463"/>
      <point x="223" y="428" type="curve"/>
      <point x="233" y="425" type="line"/>
      <point x="287" y="458"/>
      <point x="361" y="495"/>
      <point x="426" y="495" type="curve" smooth="yes"/>
      <point x="473" y="495"/>
      <point x="516" y="471"/>
      <point x="530" y="423" type="curve"/>
      <point x="545" y="418" type="line"/>
      <point x="606" y="453"/>
      <point x="668" y="494"/>
      <point x="735" y="494" type="curve" smooth="yes"/>
      <point x="817" y="494"/>
      <point x="847" y="456"/>
      <point x="847" y="315" type="curve" smooth="yes"/>
      <point x="847" y="272"/>
      <point x="843" y="196"/>
      <point x="843" y="154" type="curve" smooth="yes"/>
      <point x="843" y="124"/>
      <point x="849" y="91"/>
      <point x="884" y="91" type="curve" smooth="yes"/>
      <point x="909" y="91"/>
      <point x="930" y="100"/>
      <point x="950" y="114" type="curve"/>
      <point x="960" y="114" type="line"/>
      <point x="971" y="93" type="line"/>
      <point x="928" y="52"/>
      <point x="869" y="-7"/>
      <point x="809" y="-7" type="curve" smooth="yes"/>
      <point x="772" y="-7"/>
      <point x="735" y="13"/>
      <point x="735" y="114" type="curve" smooth="yes"/>
      <point x="735" y="165"/>
      <point x="739" y="232"/>
      <point x="739" y="283" type="curve" smooth="yes"/>
      <point x="739" y="339"/>
      <point x="743" y="431"/>
      <point x="667" y="431" type="curve" smooth="yes"/>
      <point x="624" y="431"/>
      <point x="571" y="396"/>
      <point x="532" y="369" type="curve"/>
      <point x="532" y="250"/>
      <point x="533" y="93"/>
      <point x="538" y="26" type="curve"/>
      <point x="439" y="-9" type="line"/>
      <point x="423" y="-1" type="line"/>
      <point x="427" y="98"/>
      <point x="427" y="193"/>
      <point x="427" y="289" type="curve" smooth="yes"/>
      <point x="427" y="345"/>
      <point x="431" y="433"/>
      <point x="358" y="433" type="curve" smooth="yes"/>
      <point x="312" y="433"/>
      <point x="263" y="406"/>
    </contour>
  </outline>
</glyph>
<glyph name="n" format="2">
  <advance width="591"/>
  <unicode hex="006E"/>
  <outline>
    <contour>
      <point x="183.0" y="378.0" type="curve"/>
      <point x="183.0" y="261.0"/>
      <point x="186.0" y="59.0"/>
      <point x="193.0" y="28.0" type="curve"/>
      <point x="83.0" y="-4.0" type="line"/>
      <point x="71.0" y="3.0" type="line"/>
      <point x="74.0" y="101.0"/>
      <point x="78.0" y="295.0"/>
      <point x="78.0" y="296.0" type="curve" smooth="yes"/>
      <point x="78.0" y="360.0"/>
      <point x="80.0" y="423.0"/>
      <point x="40.0" y="423.0" type="curve" smooth="yes"/>
      <point x="20.0" y="423.0"/>
      <point x="-17.0" y="398.0"/>
      <point x="-30.0" y="390.0" type="curve"/>
      <point x="-48.0" y="414.0" type="line"/>
      <point x="-2.0" y="451.0"/>
      <point x="59.0" y="497.0"/>
      <point x="114.0" y="497.0" type="curve" smooth="yes"/>
      <point x="166.0" y="497.0"/>
      <point x="177.0" y="462.0"/>
      <point x="180.0" y="428.0" type="curve"/>
      <point x="192.0" y="424.0" type="line"/>
      <point x="250.0" y="460.0"/>
      <point x="324.0" y="494.0"/>
      <point x="391.0" y="494.0" type="curve" smooth="yes"/>
      <point x="502.0" y="494.0"/>
      <point x="492.0" y="404.0"/>
      <point x="492.0" y="273.0" type="curve" smooth="yes"/>
      <point x="492.0" y="242.0"/>
      <point x="489.0" y="202.0"/>
      <point x="489.0" y="170.0" type="curve" smooth="yes"/>
      <point x="489.0" y="113.0"/>
      <point x="496.0" y="106.0"/>
      <point x="505.0" y="98.0" type="curve"/>
      <point x="512.0" y="91.0"/>
      <point x="522.0" y="88.0"/>
      <point x="533.0" y="88.0" type="curve" smooth="yes"/>
      <point x="558.0" y="88.0"/>
      <point x="580.0" y="100.0"/>
      <point x="600.0" y="114.0" type="curve"/>
      <point x="612.0" y="114.0" type="line"/>
      <point x="623.0" y="97.0" type="line"/>
      <point x="579.0" y="53.0"/>
      <point x="520.0" y="-10.0"/>
      <point x="464.0" y="-10.0" type="curve" smooth="yes"/>
      <point x="444.0" y="-10.0"/>
      <point x="424.0" y="-3.0"/>
      <point x="410.0" y="10.0" type="curve" smooth="yes"/>
      <point x="380.0" y="38.0"/>
      <point x="387.0" y="94.0"/>
      <point x="387.0" y="240.0" type="curve" smooth="yes"/>
      <point x="387.0" y="298.0"/>
      <point x="387.0" y="383.0"/>
      <point x="360.0" y="408.0" type="curve" smooth="yes"/>
      <point x="345.0" y="422.0"/>
      <point x="324.0" y="424.0"/>
      <point x="304.0" y="424.0" type="curve" smooth="yes"/>
      <point x="274.0" y="424.0"/>
      <point x="220.0" y="398.0"/>
    </contour>
  </outline>
</glyph>
<glyph name="o" format="2">
  <advance width="596"/>
  <unicode hex="006F"/>
  <outline>
    <contour>
      <point x="163.0" y="234.0" type="curve" smooth="yes"/>
      <point x="163.0" y="167.0"/>
      <point x="185.0" y="30.0"/>
      <point x="283.0" y="30.0" type="curve" smooth="yes"/>
      <point x="411.0" y="30.0"/>
      <point x="416.0" y="156.0"/>
      <point x="416.0" y="268.0" type="curve" smooth="yes"/>
      <point x="416.0" y="353.0"/>
      <point x="389.0" y="446.0"/>
      <point x="295.0" y="446.0" type="curve" smooth="yes"/>
      <point x="190.0" y="446.0"/>
      <point x="163.0" y="321.0"/>
    </contour>
    <contour>
      <point x="34.0" y="233.0" type="curve" smooth="yes"/>
      <point x="34.0" y="378.0"/>
      <point x="145.0" y="486.0"/>
      <point x="301.0" y="486.0" type="curve" smooth="yes"/>
      <point x="365.0" y="486.0"/>
      <point x="431.0" y="473.0"/>
      <point x="478.0" y="431.0" type="curve" smooth="yes"/>
      <point x="524.0" y="389.0"/>
      <point x="545.0" y="332.0"/>
      <point x="545.0" y="274.0" type="curve" smooth="yes"/>
      <point x="545.0" y="68.0"/>
      <point x="422.0" y="-11.0"/>
      <point x="275.0" y="-11.0" type="curve" smooth="yes"/>
      <point x="214.0" y="-11.0"/>
      <point x="150.0" y="-3.0"/>
      <point x="106.0" y="37.0" type="curve" smooth="yes"/>
      <point x="50.0" y="88.0"/>
      <point x="34.0" y="162.0"/>
    </contour>
  </outline>
</glyph>
<glyph name="q" format="2">
  <advance width="589"/>
  <unicode hex="0071"/>
  <outline>
    <contour>
      <point x="507.0" y="-213.0" type="curve"/>
      <point x="398.0" y="-247.0" type="line"/>
      <point x="390.0" y="-240.0" type="line"/>
      <point x="390.0" y="54.0" type="line"/>
      <point x="381.0" y="59.0" type="line"/>
      <point x="322.0" y="21.0"/>
      <point x="258.0" y="-13.0"/>
      <point x="188.0" y="-13.0" type="curve" smooth="yes"/>
      <point x="67.0" y="-13.0"/>
      <point x="52.0" y="100.0"/>
      <point x="52.0" y="202.0" type="curve" smooth="yes"/>
      <point x="52.0" y="340.0"/>
      <point x="121.0" y="495.0"/>
      <point x="305.0" y="495.0" type="curve" smooth="yes"/>
      <point x="347.0" y="495.0"/>
      <point x="391.0" y="484.0"/>
      <point x="426.0" y="464.0" type="curve"/>
      <point x="485.0" y="538.0" type="line"/>
      <point x="506.0" y="535.0" type="line"/>
      <point x="500.0" y="433.0"/>
      <point x="495.0" y="331.0"/>
      <point x="495.0" y="228.0" type="curve" smooth="yes"/>
      <point x="495.0" y="97.0"/>
      <point x="499.0" y="-85.0"/>
    </contour>
    <contour>
      <point x="390.0" y="112.0" type="curve"/>
      <point x="390.0" y="349.0" type="line" smooth="yes"/>
      <point x="390.0" y="416.0"/>
      <point x="354.0" y="455.0"/>
      <point x="298.0" y="455.0" type="curve" smooth="yes"/>
      <point x="190.0" y="455.0"/>
      <point x="167.0" y="324.0"/>
      <point x="167.0" y="235.0" type="curve" smooth="yes"/>
      <point x="167.0" y="164.0"/>
      <point x="183.0" y="61.0"/>
      <point x="274.0" y="61.0" type="curve" smooth="yes"/>
      <point x="322.0" y="61.0"/>
      <point x="360.0" y="89.0"/>
    </contour>
  </outline>
</glyph>
<glyph name="r" format="2">
  <advance width="418"/>
  <unicode hex="0072"/>
  <outline>
    <contour>
      <point x="221.0" y="33.0" type="curve"/>
      <point x="115.0" y="-6.0" type="line"/>
      <point x="95.0" y="1.0" type="line"/>
      <point x="98.0" y="101.0"/>
      <point x="102.0" y="293.0"/>
      <point x="102.0" y="294.0" type="curve" smooth="yes"/>
      <point x="102.0" y="354.0"/>
      <point x="105.0" y="415.0"/>
      <point x="66.0" y="415.0" type="curve" smooth="yes"/>
      <point x="47.0" y="415.0"/>
      <point x="17.0" y="400.0"/>
      <point x="-2.0" y="385.0" type="curve"/>
      <point x="-18.0" y="408.0" type="line"/>
      <point x="27.0" y="443.0"/>
      <point x="85.0" y="489.0"/>
      <point x="140.0" y="489.0" type="curve" smooth="yes"/>
      <point x="195.0" y="489.0"/>
      <point x="206.0" y="451.0"/>
      <point x="206.0" y="402.0" type="curve"/>
      <point x="217.0" y="397.0" type="line"/>
      <point x="257.0" y="438.0"/>
      <point x="310.0" y="486.0"/>
      <point x="368.0" y="486.0" type="curve" smooth="yes"/>
      <point x="425.0" y="486.0"/>
      <point x="447.0" y="441.0"/>
      <point x="447.0" y="396.0" type="curve"/>
      <point x="372.0" y="338.0" type="line"/>
      <point x="359.0" y="346.0" type="line"/>
      <point x="353.0" y="374.0"/>
      <point x="335.0" y="401.0"/>
      <point x="302.0" y="401.0" type="curve" smooth="yes"/>
      <point x="224.0" y="401.0"/>
      <point x="207.0" y="313.0"/>
      <point x="207.0" y="257.0" type="curve" smooth="yes"/>
      <point x="207.0" y="225.0"/>
      <point x="214.0" y="109.0"/>
    </contour>
  </outline>
</glyph>
<glyph name="s" format="2">
  <advance width="433"/>
  <unicode hex="0073"/>
  <outline>
    <contour>
      <point x="385.0" y="426.0" type="curve"/>
      <point x="312.0" y="352.0" type="line"/>
      <point x="297.0" y="356.0" type="line"/>
      <point x="290.0" y="403.0"/>
      <point x="262.0" y="457.0"/>
      <point x="199.0" y="457.0" type="curve" smooth="yes"/>
      <point x="154.0" y="457.0"/>
      <point x="134.0" y="429.0"/>
      <point x="134.0" y="385.0" type="curve" smooth="yes"/>
      <point x="134.0" y="327.0"/>
      <point x="208.0" y="294.0"/>
      <point x="259.0" y="271.0" type="curve" smooth="yes"/>
      <point x="351.0" y="229.0"/>
      <point x="391.0" y="204.0"/>
      <point x="391.0" y="138.0" type="curve" smooth="yes"/>
      <point x="391.0" y="33.0"/>
      <point x="273.0" y="-15.0"/>
      <point x="174.0" y="-15.0" type="curve" smooth="yes"/>
      <point x="108.0" y="-15.0"/>
      <point x="48.0" y="0.0"/>
      <point x="1.0" y="52.0" type="curve"/>
      <point x="64.0" y="146.0" type="line"/>
      <point x="79.0" y="145.0" type="line"/>
      <point x="94.0" y="88.0"/>
      <point x="120.0" y="22.0"/>
      <point x="196.0" y="22.0" type="curve" smooth="yes"/>
      <point x="240.0" y="22.0"/>
      <point x="279.0" y="50.0"/>
      <point x="279.0" y="95.0" type="curve" smooth="yes"/>
      <point x="279.0" y="113.0"/>
      <point x="270.0" y="128.0"/>
      <point x="256.0" y="141.0" type="curve" smooth="yes"/>
      <point x="205.0" y="188.0"/>
      <point x="37.0" y="219.0"/>
      <point x="37.0" y="331.0" type="curve" smooth="yes"/>
      <point x="37.0" y="445.0"/>
      <point x="133.0" y="494.0"/>
      <point x="236.0" y="494.0" type="curve" smooth="yes"/>
      <point x="295.0" y="494.0"/>
      <point x="356.0" y="484.0"/>
    </contour>
  </outline>
</glyph>
<glyph name="t" format="2">
  <advance width="357"/>
  <unicode hex="0074"/>
  <outline>
    <contour>
      <point x="103.0" y="588.0" type="curve"/>
      <point x="210.0" y="624.0" type="line"/>
      <point x="225.0" y="617.0" type="line"/>
      <point x="225.0" y="616.0"/>
      <point x="217.0" y="515.0"/>
      <point x="213.0" y="453.0" type="curve"/>
      <point x="220.0" y="445.0" type="line"/>
      <point x="345.0" y="445.0" type="line"/>
      <point x="352.0" y="435.0" type="line"/>
      <point x="342.0" y="409.0" type="line"/>
      <point x="330.0" y="400.0" type="line"/>
      <point x="220.0" y="400.0" type="line"/>
      <point x="212.0" y="392.0" type="line"/>
      <point x="212.0" y="233.0" type="line" smooth="yes"/>
      <point x="212.0" y="149.0"/>
      <point x="212.0" y="73.0"/>
      <point x="267.0" y="73.0" type="curve" smooth="yes"/>
      <point x="294.0" y="73.0"/>
      <point x="326.0" y="93.0"/>
      <point x="348.0" y="113.0" type="curve"/>
      <point x="358.0" y="113.0" type="line"/>
      <point x="370.0" y="98.0" type="line"/>
      <point x="332.0" y="48.0"/>
      <point x="272.0" y="-11.0"/>
      <point x="205.0" y="-11.0" type="curve" smooth="yes"/>
      <point x="109.0" y="-11.0"/>
      <point x="107.0" y="79.0"/>
      <point x="107.0" y="163.0" type="curve" smooth="yes"/>
      <point x="107.0" y="391.0" type="line"/>
      <point x="98.0" y="400.0" type="line"/>
      <point x="-12.0" y="400.0" type="line"/>
      <point x="-18.0" y="408.0" type="line"/>
      <point x="-8.0" y="437.0" type="line"/>
      <point x="3.0" y="444.0" type="line"/>
      <point x="99.0" y="444.0" type="line"/>
      <point x="106.0" y="453.0" type="line"/>
      <point x="105.0" y="505.0"/>
      <point x="103.0" y="587.0"/>
    </contour>
  </outline>
</glyph>
<glyph name="u" format="2">
  <advance width="580"/>
  <unicode hex="0075"/>
  <outline>
    <contour>
      <point x="391.0" y="466.0" type="curve"/>
      <point x="494.0" y="500.0" type="line"/>
      <point x="506.0" y="490.0" type="line"/>
      <point x="502.0" y="399.0"/>
      <point x="501.0" y="309.0"/>
      <point x="501.0" y="217.0" type="curve" smooth="yes"/>
      <point x="501.0" y="189.0"/>
      <point x="487.0" y="90.0"/>
      <point x="542.0" y="90.0" type="curve" smooth="yes"/>
      <point x="562.0" y="90.0"/>
      <point x="588.0" y="105.0"/>
      <point x="610.0" y="118.0" type="curve"/>
      <point x="620.0" y="118.0" type="line"/>
      <point x="628.0" y="98.0" type="line"/>
      <point x="585.0" y="55.0"/>
      <point x="523.0" y="-8.0"/>
      <point x="472.0" y="-8.0" type="curve" smooth="yes"/>
      <point x="425.0" y="-8.0"/>
      <point x="406.0" y="23.0"/>
      <point x="400.0" y="61.0" type="curve"/>
      <point x="390.0" y="67.0" type="line"/>
      <point x="331.0" y="36.0"/>
      <point x="257.0" y="-8.0"/>
      <point x="202.0" y="-8.0" type="curve" smooth="yes"/>
      <point x="165.0" y="-8.0"/>
      <point x="131.0" y="1.0"/>
      <point x="105.0" y="25.0" type="curve" smooth="yes"/>
      <point x="72.0" y="55.0"/>
      <point x="76.0" y="109.0"/>
      <point x="76.0" y="204.0" type="curve" smooth="yes"/>
      <point x="76.0" y="227.0"/>
      <point x="77.0" y="249.0"/>
      <point x="77.0" y="269.0" type="curve" smooth="yes"/>
      <point x="77.0" y="346.0"/>
      <point x="84.0" y="420.0"/>
      <point x="38.0" y="420.0" type="curve" smooth="yes"/>
      <point x="21.0" y="420.0"/>
      <point x="-5.0" y="404.0"/>
      <point x="-23.0" y="393.0" type="curve"/>
      <point x="-37.0" y="418.0" type="line"/>
      <point x="8.0" y="451.0"/>
      <point x="67.0" y="496.0"/>
      <point x="117.0" y="496.0" type="curve" smooth="yes"/>
      <point x="181.0" y="496.0"/>
      <point x="193.0" y="451.0"/>
      <point x="193.0" y="401.0" type="curve" smooth="yes"/>
      <point x="193.0" y="360.0"/>
      <point x="186.0" y="287.0"/>
      <point x="186.0" y="226.0" type="curve" smooth="yes"/>
      <point x="186.0" y="125.0"/>
      <point x="198.0" y="66.0"/>
      <point x="282.0" y="66.0" type="curve" smooth="yes"/>
      <point x="328.0" y="66.0"/>
      <point x="362.0" y="88.0"/>
      <point x="396.0" y="114.0" type="curve"/>
      <point x="397.0" y="153.0"/>
      <point x="397.0" y="194.0"/>
      <point x="397.0" y="236.0" type="curve" smooth="yes"/>
      <point x="397.0" y="314.0"/>
      <point x="395.0" y="393.0"/>
    </contour>
  </outline>
</glyph>
<glyph name="v" format="2">
  <advance width="486"/>
  <unicode hex="0076"/>
  <outline>
    <contour>
      <point x="-50.0" y="386.0" type="curve"/>
      <point x="-65.0" y="411.0" type="line"/>
      <point x="-18.0" y="444.0"/>
      <point x="43.0" y="487.0"/>
      <point x="94.0" y="487.0" type="curve" smooth="yes"/>
      <point x="108.0" y="487.0"/>
      <point x="124.0" y="484.0"/>
      <point x="135.0" y="475.0" type="curve" smooth="yes"/>
      <point x="187.0" y="433.0"/>
      <point x="203.0" y="113.0"/>
      <point x="262.0" y="113.0" type="curve" smooth="yes"/>
      <point x="272.0" y="113.0"/>
      <point x="283.0" y="118.0"/>
      <point x="289.0" y="124.0" type="curve"/>
      <point x="343.0" y="171.0"/>
      <point x="383.0" y="230.0"/>
      <point x="383.0" y="302.0" type="curve" smooth="yes"/>
      <point x="383.0" y="340.0"/>
      <point x="364.0" y="385.0"/>
      <point x="339.0" y="416.0" type="curve"/>
      <point x="339.0" y="433.0" type="line"/>
      <point x="414.0" y="490.0" type="line"/>
      <point x="427.0" y="490.0" type="line"/>
      <point x="463.0" y="468.0"/>
      <point x="479.0" y="428.0"/>
      <point x="479.0" y="389.0" type="curve" smooth="yes"/>
      <point x="479.0" y="321.0"/>
      <point x="443.0" y="260.0"/>
      <point x="403.0" y="204.0" type="curve" smooth="yes"/>
      <point x="311.0" y="77.0"/>
      <point x="223.0" y="8.0"/>
      <point x="199.0" y="-12.0" type="curve"/>
      <point x="156.0" y="-12.0" type="line"/>
      <point x="142.0" y="51.0"/>
      <point x="116.0" y="161.0"/>
      <point x="95.0" y="245.0" type="curve" smooth="yes"/>
      <point x="79.0" y="308.0"/>
      <point x="70.0" y="412.0"/>
      <point x="19.0" y="412.0" type="curve" smooth="yes"/>
      <point x="5.0" y="412.0"/>
      <point x="-28.0" y="400.0"/>
    </contour>
  </outline>
</glyph>
<glyph name="w" format="2">
  <advance width="851"/>
  <unicode hex="0077"/>
  <outline>
    <contour>
      <point x="191.0" y="382.0" type="curve" smooth="yes"/>
      <point x="226.0" y="142.0" type="line"/>
      <point x="236.0" y="139.0" type="line"/>
      <point x="306.0" y="244.0"/>
      <point x="373.0" y="351.0"/>
      <point x="429.0" y="463.0" type="curve"/>
      <point x="483.0" y="493.0" type="line"/>
      <point x="496.0" y="491.0" type="line"/>
      <point x="521.0" y="365.0"/>
      <point x="554.0" y="241.0"/>
      <point x="605.0" y="121.0" type="curve" smooth="yes"/>
      <point x="607.0" y="116.0"/>
      <point x="610.0" y="109.0"/>
      <point x="614.0" y="109.0" type="curve" smooth="yes"/>
      <point x="620.0" y="109.0"/>
      <point x="629.0" y="111.0"/>
      <point x="634.0" y="115.0" type="curve" smooth="yes"/>
      <point x="692.0" y="160.0"/>
      <point x="748.0" y="229.0"/>
      <point x="748.0" y="302.0" type="curve" smooth="yes"/>
      <point x="748.0" y="342.0"/>
      <point x="724.0" y="388.0"/>
      <point x="701.0" y="423.0" type="curve"/>
      <point x="701.0" y="436.0" type="line"/>
      <point x="783.0" y="496.0" type="line"/>
      <point x="799.0" y="494.0" type="line"/>
      <point x="827.0" y="463.0"/>
      <point x="850.0" y="427.0"/>
      <point x="850.0" y="387.0" type="curve" smooth="yes"/>
      <point x="850.0" y="285.0"/>
      <point x="735.0" y="161.0"/>
      <point x="647.0" y="68.0" type="curve" smooth="yes"/>
      <point x="623.0" y="43.0"/>
      <point x="581.0" y="-7.0"/>
      <point x="548.0" y="-7.0" type="curve" smooth="yes"/>
      <point x="527.0" y="-7.0"/>
      <point x="516.0" y="24.0"/>
      <point x="510.0" y="43.0" type="curve" smooth="yes"/>
      <point x="416.0" y="336.0" type="line"/>
      <point x="406.0" y="336.0" type="line"/>
      <point x="341.0" y="224.0"/>
      <point x="267.0" y="115.0"/>
      <point x="205.0" y="2.0" type="curve"/>
      <point x="143.0" y="-13.0" type="line"/>
      <point x="132.0" y="-7.0" type="line"/>
      <point x="128.0" y="67.0"/>
      <point x="119.0" y="140.0"/>
      <point x="110.0" y="213.0" type="curve" smooth="yes"/>
      <point x="99.0" y="302.0"/>
      <point x="89.0" y="408.0"/>
      <point x="38.0" y="408.0" type="curve" smooth="yes"/>
      <point x="14.0" y="408.0"/>
      <point x="-14.0" y="400.0"/>
      <point x="-34.0" y="388.0" type="curve"/>
      <point x="-48.0" y="407.0" type="line"/>
      <point x="-2.0" y="443.0"/>
      <point x="59.0" y="490.0"/>
      <point x="115.0" y="490.0" type="curve" smooth="yes"/>
      <point x="138.0" y="490.0"/>
      <point x="154.0" y="479.0"/>
      <point x="170.0" y="465.0" type="curve" smooth="yes"/>
      <point x="182.0" y="454.0"/>
      <point x="183.0" y="432.0"/>
    </contour>
  </outline>
</glyph>
<glyph name="x" format="2">
  <advance width="480"/>
  <unicode hex="0078"/>
  <outline>
    <contour>
      <point x="424.0" y="489.0" type="line"/>
      <point x="461.0" y="453.0" type="line"/>
      <point x="461.0" y="443.0" type="line"/>
      <point x="381.0" y="396.0"/>
      <point x="312.0" y="332.0"/>
      <point x="253.0" y="267.0" type="curve"/>
      <point x="293.0" y="190.0"/>
      <point x="352.0" y="77.0"/>
      <point x="398.0" y="77.0" type="curve" smooth="yes"/>
      <point x="424.0" y="77.0"/>
      <point x="451.0" y="98.0"/>
      <point x="470.0" y="117.0" type="curve"/>
      <point x="480.0" y="117.0" type="line"/>
      <point x="491.0" y="103.0" type="line"/>
      <point x="457.0" y="53.0"/>
      <point x="402.0" y="-12.0"/>
      <point x="341.0" y="-12.0" type="curve" smooth="yes"/>
      <point x="295.0" y="-12.0"/>
      <point x="272.0" y="24.0"/>
      <point x="250.0" y="58.0" type="curve"/>
      <point x="183.0" y="182.0" type="line"/>
      <point x="173.0" y="182.0" type="line"/>
      <point x="126.0" y="126.0"/>
      <point x="85.0" y="62.0"/>
      <point x="56.0" y="-4.0" type="curve"/>
      <point x="40.0" y="-8.0" type="line"/>
      <point x="-8.0" y="17.0" type="line"/>
      <point x="-8.0" y="24.0" type="line"/>
      <point x="41.0" y="94.0"/>
      <point x="97.0" y="165.0"/>
      <point x="159.0" y="227.0" type="curve"/>
      <point x="137.0" y="276.0"/>
      <point x="100.0" y="341.0"/>
      <point x="90.0" y="358.0" type="curve" smooth="yes"/>
      <point x="75.0" y="384.0"/>
      <point x="53.0" y="418.0"/>
      <point x="24.0" y="418.0" type="curve" smooth="yes"/>
      <point x="5.0" y="418.0"/>
      <point x="-25.0" y="400.0"/>
      <point x="-45.0" y="386.0" type="curve"/>
      <point x="-63.0" y="410.0" type="line"/>
      <point x="-22.0" y="446.0"/>
      <point x="30.0" y="491.0"/>
      <point x="83.0" y="491.0" type="curve" smooth="yes"/>
      <point x="102.0" y="491.0"/>
      <point x="121.0" y="489.0"/>
      <point x="136.0" y="476.0" type="curve" smooth="yes"/>
      <point x="178.0" y="438.0"/>
      <point x="207.0" y="367.0"/>
      <point x="232.0" y="310.0" type="curve"/>
      <point x="238.0" y="310.0" type="line"/>
      <point x="292.0" y="372.0"/>
      <point x="348.0" y="434.0"/>
      <point x="412.0" y="489.0" type="curve"/>
    </contour>
  </outline>
</glyph>
<glyph name="y" format="2">
  <advance width="580"/>
  <unicode hex="0079"/>
  <outline>
    <contour>
      <point x="502.0" y="487.0" type="line"/>
      <point x="498.0" y="415.0"/>
      <point x="498.0" y="398.0"/>
      <point x="498.0" y="137.0" type="curve" smooth="yes"/>
      <point x="498.0" y="61.0"/>
      <point x="495.0" y="15.0"/>
      <point x="483.0" y="-35.0" type="curve" smooth="yes"/>
      <point x="455.0" y="-155.0"/>
      <point x="319.0" y="-232.0"/>
      <point x="196.0" y="-232.0" type="curve" smooth="yes"/>
      <point x="139.0" y="-232.0"/>
      <point x="72.0" y="-203.0"/>
      <point x="36.0" y="-161.0" type="curve"/>
      <point x="96.0" y="-82.0" type="line"/>
      <point x="117.0" y="-82.0" type="line"/>
      <point x="148.0" y="-136.0"/>
      <point x="190.0" y="-182.0"/>
      <point x="241.0" y="-182.0" type="curve" smooth="yes"/>
      <point x="355.0" y="-182.0"/>
      <point x="382.0" y="-76.0"/>
      <point x="385.0" y="54.0" type="curve"/>
      <point x="375.0" y="58.0" type="line"/>
      <point x="321.0" y="23.0"/>
      <point x="244.0" y="-11.0"/>
      <point x="186.0" y="-11.0" type="curve" smooth="yes"/>
      <point x="73.0" y="-11.0"/>
      <point x="75.0" y="82.0"/>
      <point x="75.0" y="176.0" type="curve" smooth="yes"/>
      <point x="75.0" y="227.0"/>
      <point x="81.0" y="279.0"/>
      <point x="81.0" y="330.0" type="curve" smooth="yes"/>
      <point x="81.0" y="362.0"/>
      <point x="82.0" y="417.0"/>
      <point x="37.0" y="417.0" type="curve" smooth="yes"/>
      <point x="20.0" y="417.0"/>
      <point x="-5.0" y="400.0"/>
      <point x="-21.0" y="386.0" type="curve"/>
      <point x="-39.0" y="411.0" type="line"/>
      <point x="4.0" y="448.0"/>
      <point x="66.0" y="489.0"/>
      <point x="125.0" y="489.0" type="curve" smooth="yes"/>
      <point x="142.0" y="489.0"/>
      <point x="158.0" y="482.0"/>
      <point x="170.0" y="471.0" type="curve" smooth="yes"/>
      <point x="181.0" y="461.0"/>
      <point x="188.0" y="446.0"/>
      <point x="188.0" y="384.0" type="curve" smooth="yes"/>
      <point x="188.0" y="325.0"/>
      <point x="183.0" y="270.0"/>
      <point x="183.0" y="208.0" type="curve" smooth="yes"/>
      <point x="183.0" y="101.0"/>
      <point x="201.0" y="61.0"/>
      <point x="274.0" y="61.0" type="curve" smooth="yes"/>
      <point x="315.0" y="61.0"/>
      <point x="370.0" y="92.0"/>
      <point x="386.0" y="103.0" type="curve"/>
      <point x="391.0" y="161.0"/>
      <point x="393.0" y="224.0"/>
      <point x="393.0" y="287.0" type="curve" smooth="yes"/>
      <point x="393.0" y="345.0"/>
      <point x="391.0" y="403.0"/>
      <point x="384.0" y="456.0" type="curve"/>
      <point x="484.0" y="491.0" type="line"/>
    </contour>
  </outline>
</glyph>
<glyph name="z" format="2">
  <advance width="455"/>
  <unicode hex="007A"/>
  <outline>
    <contour>
      <point x="411.0" y="492.0" type="curve"/>
      <point x="432.0" y="474.0" type="line"/>
      <point x="369.0" y="396.0"/>
      <point x="296.0" y="312.0"/>
      <point x="226.0" y="240.0" type="curve" smooth="yes"/>
      <point x="112.0" y="116.0" type="line"/>
      <point x="116.0" y="107.0" type="line"/>
      <point x="183.0" y="107.0"/>
      <point x="251.0" y="93.0"/>
      <point x="316.0" y="93.0" type="curve" smooth="yes"/>
      <point x="372.0" y="93.0"/>
      <point x="409.0" y="128.0"/>
      <point x="439.0" y="171.0" type="curve"/>
      <point x="464.0" y="155.0" type="line"/>
      <point x="418.0" y="69.0" type="line" smooth="yes"/>
      <point x="394.0" y="23.0"/>
      <point x="371.0" y="-8.0"/>
      <point x="309.0" y="-8.0" type="curve" smooth="yes"/>
      <point x="218.0" y="-8.0"/>
      <point x="129.0" y="17.0"/>
      <point x="38.0" y="17.0" type="curve" smooth="yes"/>
      <point x="11.0" y="17.0"/>
      <point x="-7.0" y="-1.0"/>
      <point x="-19.0" y="-14.0" type="curve"/>
      <point x="-29.0" y="-14.0" type="line"/>
      <point x="-43.0" y="-2.0" type="line"/>
      <point x="58.0" y="135.0"/>
      <point x="195.0" y="248.0"/>
      <point x="299.0" y="377.0" type="curve"/>
      <point x="292.0" y="377.0"/>
      <point x="284.0" y="376.0"/>
      <point x="277.0" y="376.0" type="curve" smooth="yes"/>
      <point x="210.0" y="376.0"/>
      <point x="134.0" y="398.0"/>
      <point x="94.0" y="398.0" type="curve" smooth="yes"/>
      <point x="63.0" y="398.0"/>
      <point x="34.0" y="365.0"/>
      <point x="15.0" y="342.0" type="curve"/>
      <point x="-11.0" y="354.0" type="line"/>
      <point x="58.0" y="468.0" type="line" smooth="yes"/>
      <point x="68.0" y="484.0"/>
      <point x="91.0" y="492.0"/>
      <point x="112.0" y="492.0" type="curve" smooth="yes"/>
      <point x="175.0" y="492.0"/>
      <point x="244.0" y="462.0"/>
      <point x="317.0" y="462.0" type="curve" smooth="yes"/>
      <point x="352.0" y="462.0"/>
      <point x="383.0" y="473.0"/>
    </contour>
  </outline>
</glyph>
<glyph name="braceleft" format="2">
  <advance width="362"/>
  <unicode hex="007B"/>
  <outline>
    <contour>
      <point x="330.0" y="-161.0" type="curve"/>
      <point x="330.0" y="-178.0" type="line"/>
      <point x="286.0" y="-178.0"/>
      <point x="226.0" y="-178.0"/>
      <point x="199.0" y="-172.0" type="curve" smooth="yes"/>
      <point x="113.0" y="-152.0"/>
      <point x="123.0" y="-67.0"/>
      <point x="123.0" y="34.0" type="curve" smooth="yes"/>
      <point x="123.0" y="103.0"/>
      <point x="123.0" y="208.0"/>
      <point x="95.0" y="236.0" type="curve" smooth="yes"/>
      <point x="75.0" y="256.0"/>
      <point x="30.0" y="259.0"/>
      <point x="-4.0" y="259.0" type="curve"/>
      <point x="-4.0" y="285.0" type="line"/>
      <point x="26.0" y="284.0"/>
      <point x="70.0" y="287.0"/>
      <point x="93.0" y="305.0" type="curve" smooth="yes"/>
      <point x="136.0" y="340.0"/>
      <point x="115.0" y="542.0"/>
      <point x="123.0" y="620.0" type="curve" smooth="yes"/>
      <point x="138.0" y="728.0"/>
      <point x="190.0" y="730.0"/>
      <point x="330.0" y="730.0" type="curve"/>
      <point x="330.0" y="712.0" type="line"/>
      <point x="297.0" y="712.0"/>
      <point x="264.0" y="711.0"/>
      <point x="233.0" y="702.0" type="curve" smooth="yes"/>
      <point x="177.0" y="685.0"/>
      <point x="180.0" y="589.0"/>
      <point x="180.0" y="518.0" type="curve" smooth="yes"/>
      <point x="180.0" y="365.0"/>
      <point x="154.0" y="304.0"/>
      <point x="78.0" y="274.0" type="curve"/>
      <point x="78.0" y="273.0" type="line"/>
      <point x="217.0" y="222.0"/>
      <point x="166.0" y="37.0"/>
      <point x="189.0" y="-89.0" type="curve" smooth="yes"/>
      <point x="204.0" y="-162.0"/>
      <point x="270.0" y="-161.0"/>
    </contour>
  </outline>
</glyph>
<glyph name="bar" format="2">
  <advance width="241"/>
  <unicode hex="007C"/>
  <outline>
    <contour>
      <point x="145.0" y="-159.0" type="line"/>
      <point x="95.0" y="-172.0" type="line"/>
      <point x="95.0" y="719.0" type="line"/>
      <point x="145.0" y="738.0" type="line"/>
    </contour>
  </outline>
</glyph>
<glyph name="braceright" format="2">
  <advance width="362"/>
  <unicode hex="007D"/>
  <outline>
    <contour>
      <point x="25.0" y="-178.0" type="curve"/>
      <point x="25.0" y="-161.0" type="line"/>
      <point x="55.0" y="-161.0"/>
      <point x="86.0" y="-160.0"/>
      <point x="115.0" y="-152.0" type="curve" smooth="yes"/>
      <point x="175.0" y="-135.0"/>
      <point x="176.0" y="-41.0"/>
      <point x="176.0" y="30.0" type="curve" smooth="yes"/>
      <point x="176.0" y="126.0"/>
      <point x="180.0" y="237.0"/>
      <point x="275.0" y="273.0" type="curve"/>
      <point x="275.0" y="274.0" type="line"/>
      <point x="135.0" y="325.0"/>
      <point x="194.0" y="495.0"/>
      <point x="168.0" y="636.0" type="curve" smooth="yes"/>
      <point x="153.0" y="715.0"/>
      <point x="88.0" y="712.0"/>
      <point x="25.0" y="712.0" type="curve"/>
      <point x="25.0" y="730.0" type="line"/>
      <point x="72.0" y="730.0"/>
      <point x="140.0" y="730.0"/>
      <point x="164.0" y="723.0" type="curve" smooth="yes"/>
      <point x="262.0" y="693.0"/>
      <point x="223.0" y="538.0"/>
      <point x="238.0" y="363.0" type="curve" smooth="yes"/>
      <point x="247.0" y="289.0"/>
      <point x="300.0" y="285.0"/>
      <point x="359.0" y="285.0" type="curve"/>
      <point x="359.0" y="259.0" type="line"/>
      <point x="325.0" y="259.0"/>
      <point x="280.0" y="256.0"/>
      <point x="260.0" y="236.0" type="curve" smooth="yes"/>
      <point x="232.0" y="208.0"/>
      <point x="232.0" y="103.0"/>
      <point x="232.0" y="34.0" type="curve" smooth="yes"/>
      <point x="232.0" y="-181.0"/>
      <point x="193.0" y="-178.0"/>
    </contour>
  </outline>
</glyph>
<glyph name="asciitilde" format="2">
  <advance width="623"/>
  <unicode hex="007E"/>
  <outline>
    <contour>
      <point x="353.0" y="214.0" type="curve" smooth="yes"/>
      <point x="242.0" y="277.0" type="line" smooth="yes"/>
      <point x="214.0" y="293.0"/>
      <point x="184.0" y="304.0"/>
      <point x="151.0" y="305.0" type="curve" smooth="yes"/>
      <point x="104.0" y="305.0"/>
      <point x="80.0" y="282.0"/>
      <point x="44.0" y="228.0" type="curve"/>
      <point x="25.0" y="240.0" type="line"/>
      <point x="52.0" y="290.0"/>
      <point x="97.0" y="347.0"/>
      <point x="165.0" y="347.0" type="curve" smooth="yes"/>
      <point x="215.0" y="347.0"/>
      <point x="271.0" y="317.0"/>
      <point x="318.0" y="291.0" type="curve" smooth="yes"/>
      <point x="401.0" y="245.0" type="line" smooth="yes"/>
      <point x="426.0" y="231.0"/>
      <point x="454.0" y="219.0"/>
      <point x="484.0" y="219.0" type="curve" smooth="yes"/>
      <point x="527.0" y="219.0"/>
      <point x="559.0" y="253.0"/>
      <point x="578.0" y="288.0" type="curve"/>
      <point x="599.0" y="275.0" type="line"/>
      <point x="575.0" y="227.0"/>
      <point x="531.0" y="178.0"/>
      <point x="472.0" y="178.0" type="curve" smooth="yes"/>
      <point x="429.0" y="178.0"/>
      <point x="388.0" y="194.0"/>
    </contour>
  </outline>
</glyph>
<glyph name="exclamdown" format="2">
  <advance width="349"/>
  <unicode hex="00A1"/>
  <outline>
    <contour>
      <point x="112.0" y="442.0" type="curve" smooth="yes"/>
      <point x="112.0" y="408.0"/>
      <point x="140.0" y="380.0"/>
      <point x="174.0" y="380.0" type="curve" smooth="yes"/>
      <point x="208.0" y="380.0"/>
      <point x="236.0" y="408.0"/>
      <point x="236.0" y="442.0" type="curve" smooth="yes"/>
      <point x="236.0" y="476.0"/>
      <point x="208.0" y="504.0"/>
      <point x="174.0" y="504.0" type="curve" smooth="yes"/>
      <point x="140.0" y="504.0"/>
      <point x="112.0" y="476.0"/>
    </contour>
    <contour>
      <point x="217.0" y="-69.0" type="curve" smooth="yes"/>
      <point x="175.0" y="302.0" type="line"/>
      <point x="156.0" y="304.0" type="line"/>
      <point x="124.0" y="-79.0" type="line" smooth="yes"/>
      <point x="122.0" y="-98.0"/>
      <point x="120.0" y="-120.0"/>
      <point x="120.0" y="-137.0" type="curve" smooth="yes"/>
      <point x="120.0" y="-192.0"/>
      <point x="146.0" y="-202.0"/>
      <point x="180.0" y="-202.0" type="curve" smooth="yes"/>
      <point x="212.0" y="-202.0"/>
      <point x="224.0" y="-178.0"/>
      <point x="224.0" y="-156.0" type="curve" smooth="yes"/>
      <point x="224.0" y="-127.0"/>
      <point x="220.0" y="-98.0"/>
    </contour>
  </outline>
</glyph>
<glyph name="cent" format="2">
  <advance width="469"/>
  <unicode hex="00A2"/>
  <outline>
    <contour>
      <point x="299.0" y="-159.0" type="line"/>
      <point x="249.0" y="-172.0" type="line"/>
      <point x="249.0" y="665.0" type="line"/>
      <point x="299.0" y="684.0" type="line"/>
    </contour>
    <contour>
      <point x="472.0" y="379.0" type="curve"/>
      <point x="380.0" y="324.0" type="line"/>
      <point x="363.0" y="331.0" type="line"/>
      <point x="363.0" y="393.0"/>
      <point x="340.0" y="456.0"/>
      <point x="275.0" y="456.0" type="curve" smooth="yes"/>
      <point x="188.0" y="456.0"/>
      <point x="164.0" y="317.0"/>
      <point x="164.0" y="248.0" type="curve" smooth="yes"/>
      <point x="164.0" y="173.0"/>
      <point x="195.0" y="59.0"/>
      <point x="300.0" y="59.0" type="curve" smooth="yes"/>
      <point x="357.0" y="59.0"/>
      <point x="414.0" y="89.0"/>
      <point x="465.0" y="128.0" type="curve"/>
      <point x="477.0" y="125.0" type="line"/>
      <point x="487.0" y="111.0" type="line"/>
      <point x="419.0" y="43.0"/>
      <point x="331.0" y="-10.0"/>
      <point x="229.0" y="-10.0" type="curve" smooth="yes"/>
      <point x="97.0" y="-10.0"/>
      <point x="46.0" y="94.0"/>
      <point x="46.0" y="193.0" type="curve" smooth="yes"/>
      <point x="46.0" y="338.0"/>
      <point x="117.0" y="496.0"/>
      <point x="316.0" y="496.0" type="curve" smooth="yes"/>
      <point x="391.0" y="496.0"/>
      <point x="466.0" y="469.0"/>
    </contour>
  </outline>
</glyph>
<glyph name="sterling" format="2">
  <advance width="785"/>
  <unicode hex="00A3"/>
  <outline>
    <contour>
      <point x="234.0" y="360.0" type="curve"/>
      <point x="229.0" y="320.0" type="line"/>
      <point x="186.0" y="318.0"/>
      <point x="143.0" y="317.0"/>
      <point x="100.0" y="316.0" type="curve"/>
      <point x="108.0" y="366.0" type="line"/>
      <point x="158.0" y="365.0"/>
      <point x="187.0" y="363.0"/>
    </contour>
    <contour>
      <point x="280.0" y="362.0" type="line"/>
      <point x="462.0" y="368.0" type="line"/>
      <point x="458.0" y="315.0" type="line"/>
      <point x="362.0" y="318.0"/>
      <point x="328.0" y="319.0"/>
      <point x="260.0" y="320.0" type="curve"/>
    </contour>
    <contour>
      <point x="218.0" y="411.0" type="curve" smooth="yes"/>
      <point x="242.0" y="566.0"/>
      <point x="296.0" y="710.0"/>
      <point x="515.0" y="710.0" type="curve" smooth="yes"/>
      <point x="580.0" y="710.0"/>
      <point x="651.0" y="685.0"/>
      <point x="651.0" y="624.0" type="curve" smooth="yes"/>
      <point x="651.0" y="588.0"/>
      <point x="626.0" y="549.0"/>
      <point x="585.0" y="549.0" type="curve" smooth="yes"/>
      <point x="476.0" y="549.0"/>
      <point x="564.0" y="670.0"/>
      <point x="465.0" y="670.0" type="curve" smooth="yes"/>
      <point x="419.0" y="670.0"/>
      <point x="390.0" y="633.0"/>
      <point x="377.0" y="595.0" type="curve" smooth="yes"/>
      <point x="348.0" y="510.0"/>
      <point x="344.0" y="424.0"/>
      <point x="313.0" y="340.0" type="curve" smooth="yes"/>
      <point x="292.0" y="283.0"/>
      <point x="237.0" y="234.0"/>
      <point x="166.0" y="192.0" type="curve"/>
      <point x="167.0" y="183.0" type="line"/>
      <point x="324.0" y="183.0"/>
      <point x="411.0" y="89.0"/>
      <point x="552.0" y="89.0" type="curve" smooth="yes"/>
      <point x="591.0" y="89.0"/>
      <point x="630.0" y="96.0"/>
      <point x="659.0" y="121.0" type="curve" smooth="yes"/>
      <point x="700.0" y="157.0"/>
      <point x="712.0" y="246.0"/>
      <point x="712.0" y="277.0" type="curve"/>
      <point x="741.0" y="278.0" type="line"/>
      <point x="741.0" y="209.0" type="line" smooth="yes"/>
      <point x="741.0" y="103.0"/>
      <point x="655.0" y="-12.0"/>
      <point x="529.0" y="-12.0" type="curve" smooth="yes"/>
      <point x="377.0" y="-12.0"/>
      <point x="271.0" y="102.0"/>
      <point x="149.0" y="102.0" type="curve" smooth="yes"/>
      <point x="86.0" y="102.0"/>
      <point x="67.0" y="54.0"/>
      <point x="53.0" y="0.0" type="curve"/>
      <point x="26.0" y="13.0" type="line"/>
      <point x="29.0" y="81.0"/>
      <point x="44.0" y="125.0"/>
      <point x="113.0" y="180.0" type="curve"/>
      <point x="166.0" y="228.0"/>
      <point x="197.0" y="266.0"/>
    </contour>
  </outline>
</glyph>
<glyph name="currency" format="2">
  <advance width="500"/>
  <unicode hex="00A4"/>
  <outline>
    <contour>
      <point x="32.0" y="141.0" type="line"/>
      <point x="81.0" y="190.0" type="line"/>
      <point x="51.0" y="228.0"/>
      <point x="39.0" y="263.0"/>
      <point x="39.0" y="313.0" type="curve" smooth="yes"/>
      <point x="39.0" y="365.0"/>
      <point x="51.0" y="401.0"/>
      <point x="81.0" y="435.0" type="curve"/>
      <point x="32.0" y="484.0" type="line"/>
      <point x="79.0" y="531.0" type="line"/>
      <point x="127.0" y="483.0" type="line"/>
      <point x="164.0" y="511.0"/>
      <point x="204.0" y="524.0"/>
      <point x="251.0" y="524.0" type="curve" smooth="yes"/>
      <point x="297.0" y="524.0"/>
      <point x="334.0" y="512.0"/>
      <point x="371.0" y="484.0" type="curve"/>
      <point x="419.0" y="533.0" type="line"/>
      <point x="468.0" y="484.0" type="line"/>
      <point x="422.0" y="436.0" type="line"/>
      <point x="449.0" y="401.0"/>
      <point x="461.0" y="363.0"/>
      <point x="461.0" y="314.0" type="curve" smooth="yes"/>
      <point x="461.0" y="265.0"/>
      <point x="449.0" y="227.0"/>
      <point x="421.0" y="189.0" type="curve"/>
      <point x="467.0" y="141.0" type="line"/>
      <point x="422.0" y="96.0" type="line"/>
      <point x="375.0" y="145.0" type="line"/>
      <point x="338.0" y="115.0"/>
      <point x="301.0" y="102.0"/>
      <point x="250.0" y="102.0" type="curve" smooth="yes"/>
      <point x="199.0" y="102.0"/>
      <point x="162.0" y="114.0"/>
      <point x="125.0" y="144.0" type="curve"/>
      <point x="77.0" y="96.0" type="line"/>
    </contour>
    <contour>
      <point x="251.0" y="447.0" type="curve" smooth="yes"/>
      <point x="177.0" y="447.0"/>
      <point x="116.0" y="386.0"/>
      <point x="116.0" y="312.0" type="curve" smooth="yes"/>
      <point x="116.0" y="240.0"/>
      <point x="177.0" y="178.0"/>
      <point x="249.0" y="178.0" type="curve" smooth="yes"/>
      <point x="324.0" y="178.0"/>
      <point x="384.0" y="239.0"/>
      <point x="384.0" y="314.0" type="curve" smooth="yes"/>
      <point x="384.0" y="386.0"/>
      <point x="324.0" y="447.0"/>
    </contour>
  </outline>
</glyph>
<glyph name="yen" format="2">
  <advance width="594"/>
  <unicode hex="00A5"/>
  <outline>
    <contour>
      <point x="229.0" y="375.0" type="line"/>
      <point x="54.0" y="375.0" type="line"/>
      <point x="61.0" y="420.0" type="line"/>
      <point x="210.0" y="420.0" type="line"/>
    </contour>
    <contour>
      <point x="384.0" y="420.0" type="line"/>
      <point x="534.0" y="420.0" type="line"/>
      <point x="528.0" y="375.0" type="line"/>
      <point x="357.0" y="375.0" type="line"/>
    </contour>
    <contour>
      <point x="526.0" y="243.0" type="line"/>
      <point x="56.0" y="243.0" type="line"/>
      <point x="63.0" y="288.0" type="line"/>
      <point x="532.0" y="288.0" type="line"/>
    </contour>
    <contour>
      <point x="632.0" y="695.0" type="line"/>
      <point x="349.0" y="323.0" type="line"/>
      <point x="349.0" y="224.0"/>
      <point x="353.0" y="129.0"/>
      <point x="358.0" y="28.0" type="curve"/>
      <point x="244.0" y="-4.0" type="line"/>
      <point x="226.0" y="5.0" type="line"/>
      <point x="228.0" y="107.0"/>
      <point x="232.0" y="296.0"/>
      <point x="232.0" y="297.0" type="curve"/>
      <point x="231.0" y="298.0"/>
      <point x="137.0" y="488.0"/>
      <point x="91.0" y="576.0" type="curve" smooth="yes"/>
      <point x="75.0" y="607.0"/>
      <point x="56.0" y="648.0"/>
      <point x="24.0" y="657.0" type="curve" smooth="yes"/>
      <point x="-22.0" y="669.0" type="line"/>
      <point x="-22.0" y="695.0" type="line"/>
      <point x="-14.0" y="704.0" type="line"/>
      <point x="169.0" y="704.0" type="line"/>
      <point x="176.0" y="687.0"/>
      <point x="269.0" y="503.0"/>
      <point x="319.0" y="402.0" type="curve" smooth="yes"/>
      <point x="321.0" y="398.0"/>
      <point x="327.0" y="396.0"/>
      <point x="331.0" y="396.0" type="curve" smooth="yes"/>
      <point x="336.0" y="396.0"/>
      <point x="339.0" y="397.0"/>
      <point x="343.0" y="401.0" type="curve"/>
      <point x="529.0" y="690.0" type="line"/>
      <point x="631.0" y="707.0" type="line"/>
    </contour>
  </outline>
</glyph>
<glyph name="brokenbar" format="2">
  <advance width="241"/>
  <unicode hex="00A6"/>
  <outline>
    <contour>
      <point x="145.0" y="328.0" type="line"/>
      <point x="95.0" y="315.0" type="line"/>
      <point x="95.0" y="719.0" type="line"/>
      <point x="145.0" y="738.0" type="line"/>
    </contour>
    <contour>
      <point x="145.0" y="-159.0" type="line"/>
      <point x="95.0" y="-172.0" type="line"/>
      <point x="95.0" y="232.0" type="line"/>
      <point x="145.0" y="251.0" type="line"/>
    </contour>
  </outline>
</glyph>
<glyph name="section" format="1">
  <advance width="517"/>
  <unicode hex="00A7"/>
  <outline>
    <contour>
      <point x="431" y="232" type="curve" smooth="yes"/>
      <point x="431" y="348"/>
      <point x="209" y="360"/>
      <point x="125" y="440" type="curve"/>
      <point x="108" y="421"/>
      <point x="96" y="397"/>
      <point x="96" y="373" type="curve" smooth="yes"/>
      <point x="96" y="267"/>
      <point x="333" y="231"/>
      <point x="408" y="166" type="curve"/>
      <point x="423" y="185"/>
      <point x="431" y="209"/>
    </contour>
    <contour>
      <point x="35" y="23" type="curve"/>
      <point x="114" y="50" type="line"/>
      <point x="123" y="44" type="line"/>
      <point x="129" y="-22"/>
      <point x="170" y="-76"/>
      <point x="250" y="-76" type="curve" smooth="yes"/>
      <point x="322" y="-76"/>
      <point x="375" y="-23"/>
      <point x="375" y="48" type="curve" smooth="yes"/>
      <point x="375" y="110"/>
      <point x="308" y="138"/>
      <point x="215" y="176" type="curve" smooth="yes"/>
      <point x="121" y="214"/>
      <point x="53" y="248"/>
      <point x="53" y="338" type="curve" smooth="yes"/>
      <point x="53" y="384"/>
      <point x="77" y="426"/>
      <point x="107" y="464" type="curve"/>
      <point x="100" y="484"/>
      <point x="95" y="504"/>
      <point x="95" y="525" type="curve" smooth="yes"/>
      <point x="95" y="622"/>
      <point x="173" y="701"/>
      <point x="287" y="701" type="curve" smooth="yes"/>
      <point x="341" y="701"/>
      <point x="421" y="684"/>
      <point x="421" y="622" type="curve" smooth="yes"/>
      <point x="421" y="615"/>
      <point x="417" y="597"/>
      <point x="414" y="585" type="curve"/>
      <point x="347" y="564" type="line"/>
      <point x="331" y="575" type="line"/>
      <point x="331" y="633"/>
      <point x="306" y="670"/>
      <point x="254" y="670" type="curve" smooth="yes"/>
      <point x="195" y="670"/>
      <point x="160" y="613"/>
      <point x="160" y="561" type="curve" smooth="yes"/>
      <point x="160" y="529"/>
      <point x="175" y="497"/>
      <point x="210" y="480" type="curve" smooth="yes"/>
      <point x="312" y="431" type="line" smooth="yes"/>
      <point x="383" y="394"/>
      <point x="481" y="372"/>
      <point x="481" y="285" type="curve" smooth="yes"/>
      <point x="481" y="235"/>
      <point x="461" y="186"/>
      <point x="423" y="150" type="curve"/>
      <point x="438" y="128"/>
      <point x="444" y="101"/>
      <point x="444" y="75" type="curve" smooth="yes"/>
      <point x="444" y="-26"/>
      <point x="349" y="-107"/>
      <point x="240" y="-107" type="curve" smooth="yes"/>
      <point x="148" y="-107"/>
      <point x="48" y="-76"/>
    </contour>
  </outline>
</glyph>
<glyph name="copyright" format="1">
  <advance width="666"/>
  <unicode hex="00A9"/>
  <outline>
    <contour>
      <point x="48" y="445" type="curve" smooth="yes"/>
      <point x="48" y="601"/>
      <point x="176" y="727"/>
      <point x="333" y="727" type="curve" smooth="yes"/>
      <point x="490" y="727"/>
      <point x="618" y="601"/>
      <point x="618" y="445" type="curve" smooth="yes"/>
      <point x="618" y="289"/>
      <point x="490" y="163"/>
      <point x="333" y="163" type="curve" smooth="yes"/>
      <point x="176" y="163"/>
      <point x="48" y="289"/>
    </contour>
    <contour>
      <point x="78" y="445" type="curve" smooth="yes"/>
      <point x="78" y="306"/>
      <point x="192" y="193"/>
      <point x="333" y="193" type="curve" smooth="yes"/>
      <point x="474" y="193"/>
      <point x="588" y="306"/>
      <point x="588" y="445" type="curve" smooth="yes"/>
      <point x="588" y="584"/>
      <point x="474" y="697"/>
      <point x="333" y="697" type="curve" smooth="yes"/>
      <point x="192" y="697"/>
      <point x="78" y="584"/>
    </contour>
    <contour>
      <point x="507" y="562" type="curve"/>
      <point x="452" y="520" type="line"/>
      <point x="444" y="521" type="line"/>
      <point x="430" y="565"/>
      <point x="400" y="603"/>
      <point x="336" y="603" type="curve" smooth="yes"/>
      <point x="237" y="603"/>
      <point x="207" y="512"/>
      <point x="207" y="450" type="curve" smooth="yes"/>
      <point x="207" y="380"/>
      <point x="250" y="291"/>
      <point x="358" y="291" type="curve" smooth="yes"/>
      <point x="405" y="291"/>
      <point x="449" y="306"/>
      <point x="490" y="323" type="curve"/>
      <point x="502" y="310" type="line"/>
      <point x="453" y="280"/>
      <point x="396" y="261"/>
      <point x="334" y="261" type="curve" smooth="yes"/>
      <point x="176" y="261"/>
      <point x="122" y="347"/>
      <point x="122" y="436" type="curve" smooth="yes"/>
      <point x="122" y="486"/>
      <point x="136" y="536"/>
      <point x="182" y="572" type="curve" smooth="yes"/>
      <point x="226" y="607"/>
      <point x="287" y="625"/>
      <point x="351" y="625" type="curve" smooth="yes"/>
      <point x="421" y="625"/>
      <point x="473" y="608"/>
    </contour>
  </outline>
</glyph>
<glyph name="ordfeminine" format="2">
  <advance width="514"/>
  <unicode hex="00AA"/>
  <outline>
    <contour>
      <point x="408.0" y="590.0" type="line"/>
      <point x="417.0" y="585.0" type="line"/>
      <point x="411.0" y="526.0"/>
      <point x="406.0" y="466.0"/>
      <point x="406.0" y="407.0" type="curve" smooth="yes"/>
      <point x="406.0" y="349.0"/>
      <point x="407.0" y="317.0"/>
      <point x="430.0" y="317.0" type="curve" smooth="yes"/>
      <point x="446.0" y="317.0"/>
      <point x="465.0" y="333.0"/>
      <point x="479.0" y="345.0" type="curve"/>
      <point x="493.0" y="331.0" type="line"/>
      <point x="465.0" y="300.0"/>
      <point x="425.0" y="262.0"/>
      <point x="376.0" y="262.0" type="curve" smooth="yes"/>
      <point x="345.0" y="262.0"/>
      <point x="336.0" y="285.0"/>
      <point x="332.0" y="305.0" type="curve"/>
      <point x="323.0" y="308.0" type="line"/>
      <point x="285.0" y="283.0"/>
      <point x="239.0" y="260.0"/>
      <point x="191.0" y="260.0" type="curve" smooth="yes"/>
      <point x="114.0" y="260.0"/>
      <point x="90.0" y="339.0"/>
      <point x="90.0" y="394.0" type="curve" smooth="yes"/>
      <point x="90.0" y="529.0"/>
      <point x="152.0" y="594.0"/>
      <point x="262.0" y="594.0" type="curve" smooth="yes"/>
      <point x="300.0" y="594.0"/>
      <point x="334.0" y="584.0"/>
      <point x="365.0" y="566.0" type="curve"/>
    </contour>
    <contour>
      <point x="333.0" y="485.0" type="curve" smooth="yes"/>
      <point x="333.0" y="519.0"/>
      <point x="325.0" y="569.0"/>
      <point x="268.0" y="569.0" type="curve" smooth="yes"/>
      <point x="187.0" y="569.0"/>
      <point x="170.0" y="478.0"/>
      <point x="170.0" y="420.0" type="curve" smooth="yes"/>
      <point x="170.0" y="375.0"/>
      <point x="186.0" y="311.0"/>
      <point x="244.0" y="311.0" type="curve" smooth="yes"/>
      <point x="276.0" y="311.0"/>
      <point x="305.0" y="328.0"/>
      <point x="328.0" y="346.0" type="curve"/>
      <point x="332.0" y="375.0"/>
      <point x="333.0" y="441.0"/>
    </contour>
  </outline>
</glyph>
<glyph name="guillemotleft" format="2">
  <advance width="502"/>
  <unicode hex="00AB"/>
  <outline>
    <contour>
      <point x="212.0" y="221.0" type="line"/>
      <point x="401.0" y="441.0" type="line"/>
      <point x="432.0" y="387.0" type="line"/>
      <point x="286.0" y="218.0" type="line"/>
      <point x="442.0" y="17.0" type="line"/>
      <point x="428.0" y="-15.0" type="line"/>
    </contour>
    <contour>
      <point x="60.0" y="221.0" type="line"/>
      <point x="250.0" y="441.0" type="line"/>
      <point x="281.0" y="387.0" type="line"/>
      <point x="134.0" y="218.0" type="line"/>
      <point x="290.0" y="17.0" type="line"/>
      <point x="276.0" y="-15.0" type="line"/>
    </contour>
  </outline>
</glyph>
<glyph name="logicalnot" format="2">
  <advance width="773"/>
  <unicode hex="00AC"/>
  <outline>
    <contour>
      <point x="709.0" y="401.0" type="line"/>
      <point x="709.0" y="205.0" type="line"/>
      <point x="659.0" y="205.0" type="line"/>
      <point x="659.0" y="351.0" type="line"/>
      <point x="30.0" y="351.0" type="line"/>
      <point x="30.0" y="401.0" type="line"/>
    </contour>
  </outline>
</glyph>
<glyph name="registered" format="2">
  <advance width="666"/>
  <unicode hex="00AE"/>
  <outline>
    <contour>
      <point x="48" y="445" type="curve" smooth="yes"/>
      <point x="48" y="601"/>
      <point x="176" y="727"/>
      <point x="333" y="727" type="curve" smooth="yes"/>
      <point x="490" y="727"/>
      <point x="618" y="601"/>
      <point x="618" y="445" type="curve" smooth="yes"/>
      <point x="618" y="289"/>
      <point x="490" y="163"/>
      <point x="333" y="163" type="curve" smooth="yes"/>
      <point x="176" y="163"/>
      <point x="48" y="289"/>
    </contour>
    <contour>
      <point x="78" y="445" type="curve" smooth="yes"/>
      <point x="78" y="306"/>
      <point x="192" y="193"/>
      <point x="333" y="193" type="curve" smooth="yes"/>
      <point x="474" y="193"/>
      <point x="588" y="306"/>
      <point x="588" y="445" type="curve" smooth="yes"/>
      <point x="588" y="584"/>
      <point x="474" y="697"/>
      <point x="333" y="697" type="curve" smooth="yes"/>
      <point x="192" y="697"/>
      <point x="78" y="584"/>
    </contour>
    <contour>
      <point x="291" y="432" type="curve"/>
      <point x="298" y="290" type="line"/>
      <point x="218" y="266" type="line"/>
      <point x="214" y="270" type="line"/>
      <point x="219" y="348"/>
      <point x="221" y="425"/>
      <point x="221" y="503" type="curve" smooth="yes"/>
      <point x="221" y="529"/>
      <point x="221" y="570"/>
      <point x="219" y="582" type="curve"/>
      <point x="217" y="602"/>
      <point x="186" y="603"/>
      <point x="166" y="605" type="curve"/>
      <point x="166" y="618" type="line"/>
      <point x="169" y="621" type="line"/>
      <point x="356" y="621" type="line" smooth="yes"/>
      <point x="440" y="621"/>
      <point x="493" y="600"/>
      <point x="493" y="546" type="curve" smooth="yes"/>
      <point x="493" y="522"/>
      <point x="486" y="495"/>
      <point x="464" y="478" type="curve" smooth="yes"/>
      <point x="440" y="460"/>
      <point x="411" y="453"/>
      <point x="379" y="446" type="curve"/>
      <point x="376" y="440" type="line"/>
      <point x="426" y="390"/>
      <point x="492" y="322"/>
      <point x="522" y="298" type="curve"/>
      <point x="524" y="290" type="line"/>
      <point x="456" y="265" type="line"/>
      <point x="444" y="266" type="line"/>
      <point x="299" y="432" type="line"/>
      <point x="299" y="432"/>
      <point x="296" y="432"/>
    </contour>
    <contour>
      <point x="291" y="452" type="curve"/>
      <point x="318" y="452"/>
      <point x="366" y="460"/>
      <point x="384" y="476" type="curve" smooth="yes"/>
      <point x="403" y="492"/>
      <point x="411" y="515"/>
      <point x="411" y="538" type="curve" smooth="yes"/>
      <point x="411" y="582"/>
      <point x="374" y="601"/>
      <point x="324" y="601" type="curve" smooth="yes"/>
      <point x="314" y="601"/>
      <point x="296" y="603"/>
      <point x="294" y="590" type="curve"/>
      <point x="294" y="588"/>
      <point x="291" y="498"/>
    </contour>
  </outline>
</glyph>
<glyph name="plusminus" format="1">
  <advance width="893"/>
  <unicode hex="00B1"/>
  <outline>
    <contour>
      <point x="472" y="288" type="line"/>
      <point x="837" y="288" type="line"/>
      <point x="821" y="238" type="line"/>
      <point x="472" y="238" type="line"/>
      <point x="472" y="-64" type="line"/>
      <point x="422" y="-83" type="line"/>
      <point x="422" y="238" type="line"/>
      <point x="56" y="238" type="line"/>
      <point x="73" y="288" type="line"/>
      <point x="422" y="288" type="line"/>
      <point x="422" y="584" type="line"/>
      <point x="472" y="598" type="line"/>
    </contour>
    <contour>
      <point x="818" y="-84" type="line"/>
      <point x="54" y="-84" type="line"/>
      <point x="73" y="-34" type="line"/>
      <point x="834" y="-34" type="line"/>
    </contour>
  </outline>
</glyph>
<glyph name="uni00B2" format="2">
  <advance width="432"/>
  <unicode hex="00B2"/>
  <outline>
    <contour>
      <point x="396.0" y="341.0" type="line"/>
      <point x="375.0" y="273.0" type="line"/>
      <point x="31.0" y="273.0" type="line"/>
      <point x="31.0" y="286.0" type="line"/>
      <point x="101.0" y="339.0"/>
      <point x="163.0" y="396.0"/>
      <point x="216.0" y="461.0" type="curve" smooth="yes"/>
      <point x="248.0" y="501.0"/>
      <point x="275.0" y="548.0"/>
      <point x="275.0" y="597.0" type="curve" smooth="yes"/>
      <point x="275.0" y="639.0"/>
      <point x="256.0" y="687.0"/>
      <point x="192.0" y="687.0" type="curve" smooth="yes"/>
      <point x="154.0" y="687.0"/>
      <point x="118.0" y="665.0"/>
      <point x="87.0" y="647.0" type="curve"/>
      <point x="75.0" y="663.0" type="line"/>
      <point x="120.0" y="700.0"/>
      <point x="180.0" y="735.0"/>
      <point x="242.0" y="735.0" type="curve" smooth="yes"/>
      <point x="307.0" y="735.0"/>
      <point x="369.0" y="700.0"/>
      <point x="369.0" y="640.0" type="curve" smooth="yes"/>
      <point x="369.0" y="535.0"/>
      <point x="236.0" y="437.0"/>
      <point x="153.0" y="347.0" type="curve" smooth="yes"/>
      <point x="152.0" y="346.0"/>
      <point x="152.0" y="345.0"/>
      <point x="152.0" y="344.0" type="curve" smooth="yes"/>
      <point x="152.0" y="343.0"/>
      <point x="154.0" y="341.0"/>
      <point x="156.0" y="341.0" type="curve" smooth="yes"/>
    </contour>
  </outline>
</glyph>
<glyph name="uni00B3" format="2">
  <advance width="432"/>
  <unicode hex="00B3"/>
  <outline>
    <contour>
      <point x="220.0" y="524.0" type="curve"/>
      <point x="220.0" y="520.0" type="line"/>
      <point x="318.0" y="512.0"/>
      <point x="372.0" y="478.0"/>
      <point x="372.0" y="415.0" type="curve" smooth="yes"/>
      <point x="372.0" y="318.0"/>
      <point x="270.0" y="265.0"/>
      <point x="170.0" y="265.0" type="curve" smooth="yes"/>
      <point x="122.0" y="265.0"/>
      <point x="74.0" y="277.0"/>
      <point x="38.0" y="304.0" type="curve"/>
      <point x="79.0" y="374.0" type="line"/>
      <point x="92.0" y="373.0" type="line"/>
      <point x="103.0" y="337.0"/>
      <point x="129.0" y="291.0"/>
      <point x="175.0" y="291.0" type="curve" smooth="yes"/>
      <point x="252.0" y="291.0"/>
      <point x="282.0" y="345.0"/>
      <point x="282.0" y="401.0" type="curve" smooth="yes"/>
      <point x="282.0" y="487.0"/>
      <point x="198.0" y="503.0"/>
      <point x="115.0" y="503.0" type="curve"/>
      <point x="115.0" y="522.0" type="line"/>
      <point x="175.0" y="525.0"/>
      <point x="260.0" y="550.0"/>
      <point x="260.0" y="622.0" type="curve" smooth="yes"/>
      <point x="260.0" y="662.0"/>
      <point x="228.0" y="689.0"/>
      <point x="183.0" y="689.0" type="curve" smooth="yes"/>
      <point x="148.0" y="689.0"/>
      <point x="115.0" y="670.0"/>
      <point x="84.0" y="652.0" type="curve"/>
      <point x="72.0" y="668.0" type="line"/>
      <point x="117.0" y="699.0"/>
      <point x="172.0" y="731.0"/>
      <point x="230.0" y="731.0" type="curve" smooth="yes"/>
      <point x="287.0" y="731.0"/>
      <point x="343.0" y="701.0"/>
      <point x="343.0" y="648.0" type="curve" smooth="yes"/>
      <point x="343.0" y="587.0"/>
      <point x="286.0" y="545.0"/>
    </contour>
  </outline>
</glyph>
<glyph name="mu" format="2">
  <advance width="646"/>
  <unicode hex="00B5"/>
  <outline>
    <contour>
      <point x="419.0" y="116.0" type="curve"/>
      <point x="420.0" y="255.0" type="line" smooth="yes"/>
      <point x="420.0" y="307.0"/>
      <point x="418.0" y="379.0"/>
      <point x="417.0" y="441.0" type="curve"/>
      <point x="515.0" y="474.0" type="line"/>
      <point x="527.0" y="468.0" type="line"/>
      <point x="526.0" y="378.0"/>
      <point x="524.0" y="247.0"/>
      <point x="524.0" y="199.0" type="curve" smooth="yes"/>
      <point x="524.0" y="146.0"/>
      <point x="523.0" y="84.0"/>
      <point x="563.0" y="84.0" type="curve" smooth="yes"/>
      <point x="584.0" y="84.0"/>
      <point x="604.0" y="97.0"/>
      <point x="623.0" y="110.0" type="curve"/>
      <point x="632.0" y="109.0" type="line"/>
      <point x="641.0" y="96.0" type="line"/>
      <point x="601.0" y="53.0"/>
      <point x="541.0" y="-10.0"/>
      <point x="491.0" y="-10.0" type="curve" smooth="yes"/>
      <point x="438.0" y="-10.0"/>
      <point x="422.0" y="31.0"/>
      <point x="419.0" y="74.0" type="curve"/>
      <point x="365.0" y="36.0"/>
      <point x="298.0" y="-6.0"/>
      <point x="235.0" y="-6.0" type="curve" smooth="yes"/>
      <point x="209.0" y="-6.0"/>
      <point x="183.0" y="0.0"/>
      <point x="163.0" y="22.0" type="curve"/>
      <point x="155.0" y="19.0" type="line"/>
      <point x="155.0" y="-27.0" type="line" smooth="yes"/>
      <point x="155.0" y="-74.0"/>
      <point x="164.0" y="-120.0"/>
      <point x="182.0" y="-164.0" type="curve"/>
      <point x="111.0" y="-196.0" type="line"/>
      <point x="95.0" y="-182.0" type="line"/>
      <point x="110.0" y="26.0"/>
      <point x="111.0" y="254.0"/>
      <point x="111.0" y="254.0" type="curve"/>
      <point x="111.0" y="315.0"/>
      <point x="107.0" y="376.0"/>
      <point x="104.0" y="437.0" type="curve"/>
      <point x="208.0" y="473.0" type="line"/>
      <point x="222.0" y="465.0" type="line"/>
      <point x="219.0" y="395.0"/>
      <point x="216.0" y="324.0"/>
      <point x="216.0" y="254.0" type="curve" smooth="yes"/>
      <point x="216.0" y="183.0"/>
      <point x="202.0" y="69.0"/>
      <point x="305.0" y="69.0" type="curve" smooth="yes"/>
      <point x="348.0" y="69.0"/>
      <point x="387.0" y="94.0"/>
    </contour>
  </outline>
</glyph>
<glyph name="paragraph" format="1">
  <advance width="513"/>
  <unicode hex="00B6"/>
  <outline>
    <contour>
      <point x="328" y="20" type="curve"/>
      <point x="405" y="-6" type="line"/>
      <point x="417" y="4" type="line"/>
      <point x="410" y="156"/>
      <point x="409" y="307"/>
      <point x="409" y="459" type="curve" smooth="yes"/>
      <point x="409" y="514"/>
      <point x="409" y="592"/>
      <point x="413" y="623" type="curve"/>
      <point x="421" y="659"/>
      <point x="466" y="665"/>
      <point x="499" y="669" type="curve"/>
      <point x="499" y="691" type="line"/>
      <point x="491" y="699" type="line"/>
      <point x="275" y="699" type="line" smooth="yes"/>
      <point x="115" y="699"/>
      <point x="39" y="607"/>
      <point x="34" y="512" type="curve" smooth="yes"/>
      <point x="29" y="416"/>
      <point x="94" y="317"/>
      <point x="215" y="307" type="curve" smooth="yes"/>
      <point x="243" y="305"/>
      <point x="333" y="315"/>
      <point x="333" y="282" type="curve" smooth="yes"/>
      <point x="333" y="281"/>
      <point x="330" y="104"/>
    </contour>
  </outline>
</glyph>
<glyph name="periodcentered" format="1">
  <advance width="280"/>
  <unicode hex="00B7"/>
  <outline>
    <contour>
      <point x="69" y="261" type="curve" smooth="yes"/>
      <point x="69" y="300"/>
      <point x="101" y="332"/>
      <point x="140" y="332" type="curve" smooth="yes"/>
      <point x="178" y="332"/>
      <point x="210" y="300"/>
      <point x="210" y="261" type="curve" smooth="yes"/>
      <point x="210" y="223"/>
      <point x="178" y="191"/>
      <point x="140" y="191" type="curve" smooth="yes"/>
      <point x="101" y="191"/>
      <point x="69" y="223"/>
    </contour>
  </outline>
</glyph>
<glyph name="uni00B9" format="2">
  <advance width="432"/>
  <unicode hex="00B9"/>
  <outline>
    <contour>
      <point x="70.0" y="677.0" type="line"/>
      <point x="263.0" y="735.0" type="line"/>
      <point x="274.0" y="723.0" type="line"/>
      <point x="266.0" y="634.0"/>
      <point x="263.0" y="545.0"/>
      <point x="263.0" y="455.0" type="curve" smooth="yes"/>
      <point x="263.0" y="400.0"/>
      <point x="263.0" y="333.0"/>
      <point x="265.0" y="291.0" type="curve"/>
      <point x="189.0" y="264.0" type="line"/>
      <point x="175.0" y="273.0" type="line"/>
      <point x="184.0" y="350.0"/>
      <point x="188.0" y="428.0"/>
      <point x="188.0" y="505.0" type="curve" smooth="yes"/>
      <point x="188.0" y="549.0"/>
      <point x="188.0" y="591.0"/>
      <point x="185.0" y="635.0" type="curve" smooth="yes"/>
      <point x="184.0" y="647.0"/>
      <point x="173.0" y="656.0"/>
      <point x="161.0" y="656.0" type="curve" smooth="yes"/>
      <point x="70.0" y="656.0" type="line"/>
    </contour>
  </outline>
</glyph>
<glyph name="ordmasculine" format="2">
  <advance width="520"/>
  <unicode hex="00BA"/>
  <outline>
    <contour>
      <point x="169.0" y="422.0" type="curve" smooth="yes"/>
      <point x="169.0" y="378.0"/>
      <point x="184.0" y="290.0"/>
      <point x="254.0" y="290.0" type="curve" smooth="yes"/>
      <point x="344.0" y="290.0"/>
      <point x="347.0" y="371.0"/>
      <point x="347.0" y="444.0" type="curve" smooth="yes"/>
      <point x="347.0" y="496.0"/>
      <point x="330.0" y="560.0"/>
      <point x="262.0" y="560.0" type="curve" smooth="yes"/>
      <point x="187.0" y="560.0"/>
      <point x="169.0" y="479.0"/>
    </contour>
    <contour>
      <point x="77.0" y="421.0" type="curve" smooth="yes"/>
      <point x="77.0" y="516.0"/>
      <point x="156.0" y="586.0"/>
      <point x="266.0" y="586.0" type="curve" smooth="yes"/>
      <point x="312.0" y="586.0"/>
      <point x="358.0" y="577.0"/>
      <point x="391.0" y="550.0" type="curve" smooth="yes"/>
      <point x="423.0" y="523.0"/>
      <point x="439.0" y="486.0"/>
      <point x="439.0" y="448.0" type="curve" smooth="yes"/>
      <point x="439.0" y="314.0"/>
      <point x="352.0" y="263.0"/>
      <point x="248.0" y="263.0" type="curve" smooth="yes"/>
      <point x="204.0" y="263.0"/>
      <point x="159.0" y="268.0"/>
      <point x="128.0" y="294.0" type="curve" smooth="yes"/>
      <point x="88.0" y="327.0"/>
      <point x="77.0" y="375.0"/>
    </contour>
  </outline>
</glyph>
<glyph name="guillemotright" format="2">
  <advance width="502"/>
  <unicode hex="00BB"/>
  <outline>
    <contour>
      <point x="290.0" y="221.0" type="line"/>
      <point x="101.0" y="441.0" type="line"/>
      <point x="70.0" y="387.0" type="line"/>
      <point x="216.0" y="218.0" type="line"/>
      <point x="60.0" y="17.0" type="line"/>
      <point x="74.0" y="-15.0" type="line"/>
    </contour>
    <contour>
      <point x="442.0" y="221.0" type="line"/>
      <point x="252.0" y="441.0" type="line"/>
      <point x="221.0" y="387.0" type="line"/>
      <point x="368.0" y="218.0" type="line"/>
      <point x="212.0" y="17.0" type="line"/>
      <point x="226.0" y="-15.0" type="line"/>
    </contour>
  </outline>
</glyph>
<glyph name="onequarter" format="2">
  <advance width="842"/>
  <unicode hex="00BC"/>
  <outline>
    <contour>
      <point x="723.0" y="151.0" type="line"/>
      <point x="795.0" y="151.0" type="line"/>
      <point x="797.0" y="146.0" type="line"/>
      <point x="777.0" y="109.0" type="line"/>
      <point x="723.0" y="109.0" type="line"/>
      <point x="719.0" y="104.0" type="line"/>
      <point x="719.0" y="75.0"/>
      <point x="720.0" y="46.0"/>
      <point x="723.0" y="17.0" type="curve"/>
      <point x="649.0" y="-9.0" type="line"/>
      <point x="639.0" y="-2.0" type="line"/>
      <point x="643.0" y="33.0"/>
      <point x="645.0" y="69.0"/>
      <point x="645.0" y="105.0" type="curve"/>
      <point x="641.0" y="109.0" type="line"/>
      <point x="437.0" y="109.0" type="line"/>
      <point x="437.0" y="140.0" type="line"/>
      <point x="645.0" y="406.0" type="line"/>
      <point x="719.0" y="423.0" type="line"/>
      <point x="719.0" y="417.0" type="line"/>
      <point x="719.0" y="156.0" type="line"/>
    </contour>
    <contour>
      <point x="645.0" y="154.0" type="line"/>
      <point x="645.0" y="341.0" type="line"/>
      <point x="641.0" y="347.0" type="line"/>
      <point x="638.0" y="347.0"/>
      <point x="608.0" y="315.0"/>
      <point x="573.0" y="271.0" type="curve" smooth="yes"/>
      <point x="502.0" y="182.0"/>
      <point x="494.0" y="157.0"/>
      <point x="493.0" y="155.0" type="curve"/>
      <point x="497.0" y="151.0" type="line"/>
      <point x="641.0" y="151.0" type="line"/>
    </contour>
    <contour>
      <point x="25.0" y="652.0" type="line"/>
      <point x="214.0" y="705.0" type="line"/>
      <point x="224.0" y="694.0" type="line"/>
      <point x="216.0" y="612.0"/>
      <point x="214.0" y="530.0"/>
      <point x="214.0" y="447.0" type="curve" smooth="yes"/>
      <point x="214.0" y="397.0"/>
      <point x="214.0" y="333.0"/>
      <point x="216.0" y="295.0" type="curve"/>
      <point x="142.0" y="271.0" type="line"/>
      <point x="127.0" y="279.0" type="line"/>
      <point x="136.0" y="350.0"/>
      <point x="140.0" y="422.0"/>
      <point x="140.0" y="493.0" type="curve" smooth="yes"/>
      <point x="140.0" y="533.0"/>
      <point x="140.0" y="573.0"/>
      <point x="137.0" y="613.0" type="curve" smooth="yes"/>
      <point x="136.0" y="624.0"/>
      <point x="125.0" y="633.0"/>
      <point x="114.0" y="633.0" type="curve" smooth="yes"/>
      <point x="25.0" y="633.0" type="line"/>
    </contour>
    <component base="fraction" xOffset="407.0"/>
  </outline>
</glyph>
<glyph name="onehalf" format="2">
  <advance width="842"/>
  <unicode hex="00BD"/>
  <outline>
    <contour>
      <point x="823.0" y="62.0" type="line"/>
      <point x="802.0" y="0.0" type="line"/>
      <point x="464.0" y="0.0" type="line"/>
      <point x="464.0" y="12.0" type="line"/>
      <point x="532.0" y="61.0"/>
      <point x="594.0" y="113.0"/>
      <point x="646.0" y="173.0" type="curve" smooth="yes"/>
      <point x="678.0" y="210.0"/>
      <point x="704.0" y="253.0"/>
      <point x="704.0" y="299.0" type="curve" smooth="yes"/>
      <point x="704.0" y="337.0"/>
      <point x="685.0" y="382.0"/>
      <point x="623.0" y="382.0" type="curve" smooth="yes"/>
      <point x="586.0" y="382.0"/>
      <point x="550.0" y="362.0"/>
      <point x="520.0" y="345.0" type="curve"/>
      <point x="508.0" y="359.0" type="line"/>
      <point x="551.0" y="393.0"/>
      <point x="611.0" y="426.0"/>
      <point x="672.0" y="426.0" type="curve" smooth="yes"/>
      <point x="736.0" y="426.0"/>
      <point x="796.0" y="394.0"/>
      <point x="796.0" y="338.0" type="curve" smooth="yes"/>
      <point x="796.0" y="242.0"/>
      <point x="665.0" y="151.0"/>
      <point x="584.0" y="68.0" type="curve" smooth="yes"/>
      <point x="583.0" y="67.0"/>
      <point x="583.0" y="66.0"/>
      <point x="583.0" y="65.0" type="curve" smooth="yes"/>
      <point x="583.0" y="64.0"/>
      <point x="585.0" y="62.0"/>
      <point x="587.0" y="62.0" type="curve" smooth="yes"/>
    </contour>
    <contour>
      <point x="25.0" y="652.0" type="line"/>
      <point x="214.0" y="705.0" type="line"/>
      <point x="224.0" y="694.0" type="line"/>
      <point x="216.0" y="612.0"/>
      <point x="214.0" y="530.0"/>
      <point x="214.0" y="447.0" type="curve" smooth="yes"/>
      <point x="214.0" y="397.0"/>
      <point x="214.0" y="333.0"/>
      <point x="216.0" y="295.0" type="curve"/>
      <point x="142.0" y="271.0" type="line"/>
      <point x="127.0" y="279.0" type="line"/>
      <point x="136.0" y="350.0"/>
      <point x="140.0" y="422.0"/>
      <point x="140.0" y="493.0" type="curve" smooth="yes"/>
      <point x="140.0" y="533.0"/>
      <point x="140.0" y="573.0"/>
      <point x="137.0" y="613.0" type="curve" smooth="yes"/>
      <point x="136.0" y="624.0"/>
      <point x="125.0" y="633.0"/>
      <point x="114.0" y="633.0" type="curve" smooth="yes"/>
      <point x="25.0" y="633.0" type="line"/>
    </contour>
    <component base="fraction" xOffset="361.0"/>
  </outline>
</glyph>
